<ttFont>
          <CharString index="0">
            225 72 rmoveto
            -45 -30 -43 -33 -31 hhcurveto
            -37 -12 34 39 7 hvcurveto
            91 16 96 102 44 hhcurveto
            19 2 -16 -11 -2 hvcurveto
            -8 15 -1 2 16 vhcurveto
            4 25 -15 17 -18 6 -30 11 -45 -16 -37 -33 -45 -40 -33 -53 -10 -38 -18 -62 12 -47 33 -20 33 -21 54 3 45 38 13 12 13 13 13 14 rrcurveto
            -15 7 17 -10 17 hhcurveto
            39 40 43 27 22 hvcurveto
            15 18 13 16 6 12 -62 callgsubr
            -7 -10 -14 -13 -15 -12 -14 rrcurveto
            -21 -20 -33 -37 -32 hhcurveto
            -13 -11 8 19 -1 hvcurveto
            22 31 35 62 -14 41 -8 27 -44 -10 11 -28 5 -12 8 -21 -27 -54 -17 5 -14 -16 6 -21 rrcurveto
            -3 2 -1 1 -2 vhcurveto
            return
          </CharString>
          <CharString index="1">
            212 84 rmoveto
            -13 -4 -7 -15 22 4 rrcurveto
            3 5 1 2 4 hvcurveto
            -10 -32 -12 -28 -12 -28 -53 33 rcurveline
            -9 5 -16 8 -10 4 8 4 29 2 9 5 17 12 -17 0 -6 -3 -45 -17 -48 22 -15 -5 -34 -10 3 -31 22 -8 9 -2 30 5 25 10 30 -10 31 -18 33 -22 rrcurveto
            -24 -53 -26 -38 -24 -2 rrcurveto
            -7 -4 -11 -2 11 hvcurveto
            30 -5 35 38 33 57 111 -80 130 -113 171 14 79 6 46 46 1 48 2 25 -3 26 -14 29 -8 16 -20 -2 8 -18 42 -77 -93 -42 -61 -5 -145 -12 -128 85 -108 70 rrcurveto
            21 36 19 41 17 40 rrcurveto
            165 58 194 157 175 vvcurveto
            118 -124 50 -115 -130 vhcurveto
            -41 -46 -33 -93 -33 -106 -9 -28 -20 -73 -26 -77 rrcurveto
            101 150 rmoveto
            82 26 58 248 118 hhcurveto
            54 10 -56 -59 -11 hvcurveto
            -30 -157 -129 -120 -144 -65 23 54 16 48 9 25 rrcurveto
            return
          </CharString>
          <CharString index="2">
            846 223 rmoveto
            -7 -13 -14 -10 -18 -6 -21 -9 -29 -2 -28 1 rrcurveto
            -9 -9 1 -7 hhcurveto
            -10 -37 -8 -39 -2 -39 -9 -101 47 14 69 52 46 35 39 44 26 35 4 4 13 -1 -5 -12 -3 -7 -45 -66 -71 -57 rrcurveto
            -30 -38 -40 -5 -20 hhcurveto
            -42 -23 48 64 7 hvcurveto
            2 32 6 34 9 36 -40 4 -39 4 -40 5 -80 -98 -81 -89 -70 -51 rrcurveto
            -39 -52 -55 -20 -57 hhcurveto
            -37 -30 9 16 -23 hvcurveto
            -27 19 -14 26 37 21 20 21 -42 vvcurveto
            -24 10 -16 20 -13 vhcurveto
            -10 15 21 -5 25 hhcurveto
            53 59 20 34 51 hvcurveto
            59 40 77 79 79 90 -56 7 -57 6 -55 4 -70 4 -85 -9 -28 -77 -5 -14 0 -14 6 -10 7 -14 -16 -8 -9 13 -8 14 -4 24 2 24 10 121 104 -1 101 -12 rrcurveto
            59 -6 64 -14 62 -12 105 121 104 135 64 80 return
          </CharString>
          <CharString index="3">
            77 12 rmoveto
            7 3 -2 9 -7 -2 -19 -8 -19 -11 -10 -10 -11 -13 -9 -17 7 -10 11 -21 42 6 19 4 49 11 57 24 34 38 74 83 -85 24 -68 40 -28 17 -4 20 21 29 rrcurveto
            25 35 28 21 33 16 24 12 54 22 31 -2 28 -3 -13 -35 -16 -16 -13 -13 13 -6 5 4 14 9 11 11 6 14 rrcurveto
            47 23 -40 21 -45 hhcurveto
            -72 -131 -65 -78 -10 hvcurveto
            -7 -20 -18 -34 -29 -40 -7 -11 12 -9 9 11 18 26 16 24 11 19 6 -15 13 -11 15 -10 rrcurveto
            19 -13 56 -21 -28 vvcurveto
            -58 -74 -57 -50 -15 vhcurveto
            -37 -10 -9 20 15 20 6 8 10 9 11 5 rrcurveto
            return
          </CharString>
          <CharString index="4">
            612 298 rmoveto
            28 56 4 60 -2 41 -3 88 -64 -79 -4 -25 -7 -42 0 -65 2 -40 -77 -109 -102 -101 -111 -77 -110 -73 -116 -48 42 123 30 88 74 110 68 100 48 72 47 86 20 57 rrcurveto
            17 -2 15 -4 13 -4 60 -20 -39 42 -16 7 -12 5 -13 5 -15 4 2 11 0 9 -1 6 -9 24 -24 -8 7 -13 2 -5 0 -8 -2 -10 -132 26 -218 -27 6 -129 rrcurveto
            -4 4 -7 -1 vvcurveto
            1 -47 54 -32 23 -5 10 -3 4 5 -11 8 -16 10 -42 12 -2 38 -5 97 186 32 123 -9 -28 -55 -57 -81 -48 -69 -56 -85 -64 -90 -47 -81 -47 -79 -15 -71 103 -3 rrcurveto
            72 -1 72 34 67 50 89 62 110 106 64 80 rrcurveto
            -155 -10 90 -126 103 hhcurveto
            207 -2 125 460 -168 108 -49 33 -67 -4 -64 -46 -11 -8 15 -13 11 7 14 10 15 6 15 2 41 6 35 -14 24 -25 116 -124 -77 -356 -150 -2 -90 -3 -79 149 2 155 rrcurveto
            return
          </CharString>
          <CharString index="5">
            90 -11 rmoveto
            80 95 140 8 17 hvcurveto
            -13 -35 -12 -60 9 -27 -50 callsubr
            24 50 36 62 66 18 35 -62 callgsubr
            -7 -41 -58 -75 -63 -33 -71 callgsubr
            4 32 20 62 36 51 rrcurveto
            16 9 -39 8 -10 hhcurveto
            -9 -76 -84 -15 -14 hvcurveto
            -26 -28 -45 -38 -26 -22 -51 callsubr
            19 20 -2 -17 11 hvcurveto
            5 -2 1 0 7 vvcurveto
            10 -7 10 -10 7 vhcurveto
            -26 18 -44 -2 -30 -8 -75 -18 -56 callsubr
            -67 callgsubr
            return
          </CharString>
          <CharString index="6">
            81 274 86 vstem
            629 542 rmoveto
            -119 30 -171 35 -118 -40 -57 -19 -60 -66 41 -53 14 -17 7 8 -9 19 -16 30 44 45 54 14 97 26 161 -25 97 -30 -63 -32 -91 -103 -94 -100 -19 -1 -20 0 -20 1 rrcurveto
            1 -8 -4 19 -16 hhcurveto
            -13 1 -42 -11 -20 vvcurveto
            -16 15 -11 11 vhcurveto
            14 -2 32 2 38 2 -83 -89 -81 -81 -58 -20 -27 3 -25 10 -9 -4 -31 -14 7 -36 25 -9 9 -4 29 7 24 12 145 -51 166 -185 201 20 68 6 31 48 -6 47 rrcurveto
            -4 24 -6 27 -18 29 -9 16 -17 -2 10 -18 49 -77 -73 -41 -52 -7 -154 -16 -136 108 -139 73 -10 7 -9 11 14 12 61 35 69 62 50 51 47 50 rcurveline
            72 5 76 9 25 7 41 13 -26 7 -15 1 -46 3 -49 -6 -46 -4 78 89 78 93 69 39 40 -9 73 34 -5 54 -3 47 -85 -53 -20 -20 rrcurveto
            return
          </CharString>
          <CharString index="7">
            451 223 rmoveto
            70 66 89 125 26 96 14 54 -21 29 -44 -48 -74 -82 -35 -111 -25 -129 rrcurveto
            25 261 rmoveto
            33 69 43 46 60 -5 63 -4 6 -50 -14 -46 -35 -117 -125 -124 -72 -94 -10 -52 -6 -78 -2 -49 -1 -68 11 -50 23 -28 14 -15 20 -6 15 17 3 5 4 5 5 5 rrcurveto
            10 10 8 -3 -4 -14 -3 -5 -3 -8 -7 -6 -11 -14 -32 -7 -20 1 -45 1 -20 43 -9 54 -8 57 4 81 13 87 rrcurveto
            -74 -77 -98 -80 -95 hhcurveto
            -34 -28 17 48 -7 hvcurveto
            -16 119 105 163 47 117 8 17 -9 1 -23 -18 -45 -38 -50 -29 -41 -3 -15 -2 3 17 15 1 57 6 135 120 18 33 5 15 65 3 -7 -18 -22 -37 -148 -240 -25 -137 rrcurveto
            -88 -15 24 -32 36 hhcurveto
            70 104 89 66 68 hvcurveto
            20 129 35 131 32 66 rrcurveto
            return
          </CharString>
          <CharString index="8">
            310 195 rmoveto
            19 28 6 51 -41 14 -75 25 -155 -131 -30 -68 -55 -126 128 -41 102 41 70 29 63 55 40 66 4 5 0 5 -5 2 -2 2 -5 0 -4 -5 -36 -55 -64 -54 -74 -30 rrcurveto
            -65 -26 -77 8 callgsubr
            -37 -30 -56 -32 -32 -3 -15 -1 7 -14 15 1 45 4 95 38 36 53 rrcurveto
            return
          </CharString>
          <CharString index="9">
            266 442 rmoveto
            -37 -125 -37 -115 -58 -112 -53 -97 -62 -81 -75 -23 -20 -7 -28 2 -16 5 -19 5 -11 11 -5 18 -10 36 -11 -24 5 -16 7 -30 18 -17 26 -9 22 -6 27 0 31 10 rrcurveto
            75 23 69 89 60 106 53 98 38 92 41 108 rrcurveto
            -178 38 -272 158 142 130 357 178 -13 vhcurveto
            13 -11 13 -10 17 -8 rrcurveto
            -4 6 7 -2 8 hhcurveto
            10 1 12 8 11 vvcurveto
            6 -1 -2 4 -8 -5 -4 -3 -3 hhcurveto
            -8 -6 2 10 -11 hvcurveto
            31 -34 -21 90 -43 hhcurveto
            -5 -1 -16 -13 2 -5 10 -29 10 -22 7 -36 rrcurveto
            -123 21 -91 -397 -129 hhcurveto
            -131 -34 411 94 14 hvcurveto
            2 18 3 38 6 15 4 19 -64 -4 -5 -15 -30 -71 -70 -62 -58 -6 -15 -2 -1 -17 15 2 41 3 50 17 39 35 rrcurveto
            return
          </CharString>
          <CharString index="10">
            236 24 rmoveto
            -22 -27 -34 -4 24 57 rrcurveto
            93 38 153 301 92 hhcurveto
            4 5 -2 -3 4 hvcurveto
            31 4 -50 14 -13 hhcurveto
            -52 -70 -86 -33 -7 hvcurveto
            3 -6 4 -10 -13 -25 -29 -59 -135 -227 9 -64 rrcurveto
            -7 1 32 -5 6 hhcurveto
            27 27 48 22 16 hvcurveto
            1 1 18 20 -7 38 callgsubr
            -14 -18 rrcurveto
            428 341 rmoveto
            -24 37 32 50 35 35 20 20 22 12 10 10 22 24 -26 17 -25 -5 -10 -1 -13 -10 -18 -20 -75 1 -174 44 -154 -10 -129 -9 -121 -47 -21 -100 rrcurveto
            -1 -5 0 -10 -1 vvcurveto
            -22 -59 64 -46 34 -10 12 -4 9 7 -12 9 -20 15 -52 19 12 49 18 83 107 53 120 16 126 19 136 -26 130 -3 -6 -6 -13 -15 -5 -9 -22 -45 1 -70 13 -14 rrcurveto
            13 -16 13 13 -6 8 rrcurveto
            return
          </CharString>
          <CharString index="11">
            452 589 rmoveto
            35 -9 25 -26 23 -21 7 -8 10 -10 12 -3 5 -3 8 1 5 -3 12 -10 7 -22 6 -15 14 -33 -9 -90 -30 36 -16 20 -2 35 -13 26 -16 34 -18 30 -26 22 rrcurveto
            -15 14 -34 21 -36 -13 -104 -43 44 -176 45 -59 6 -7 35 -2 12 -1 36 -4 0 -25 -19 -11 -20 -11 -46 17 -24 5 -100 -2 -201 -75 -3 -120 rrcurveto
            -54 -1 38 -44 112 hhcurveto
            108 148 42 33 65 hvcurveto
            54 28 121 90 -15 62 -1 5 10 0 3 -3 53 -77 -110 -90 -62 -35 rrcurveto
            -47 -83 -163 -33 -93 hhcurveto
            -111 -116 32 121 167 228 27 109 5 hvcurveto
            -55 63 -50 120 44 75 25 43 84 21 43 -10 rrcurveto
            return
          </CharString>
          <CharString index="12">
            717 337 rmoveto
            -210 -176 -167 -156 -36 vhcurveto
            -348 -81 -48 541 352 83 39 8 55 2 32 -33 rrcurveto
            -15 14 -2 -4 -4 hhcurveto
            -4 -6 5 3 -6 hvcurveto
            -20 7 -25 2 -18 -4 -292 -69 -74 -502 344 80 136 31 161 221 -4 174 -3 137 -90 65 -137 -10 -76 -5 -76 -32 -53 -38 -90 -63 -71 -102 -7 -95 rrcurveto
            -2 -23 -16 20 18 vvcurveto
            -1 100 65 99 92 66 67 48 93 31 78 1 rrcurveto
            160 117 -91 -162 hvcurveto
            return
          </CharString>
          <CharString index="13">
            111 229 rmoveto
            -67 -92 -5 -8 2 -6 4 -3 rlinecurve
            5 -5 10 14 5 6 17 24 23 26 22 20 23 22 24 11 42 -5 29 -4 24 -7 33 -10 -41 -40 -60 -59 -54 -46 -2 -3 -13 -11 -16 -13 -22 7 -23 2 -19 -6 rrcurveto
            -42 -14 -8 -46 14 -8 16 -8 33 17 30 23 15 -5 14 -8 10 -6 52 -33 46 -18 53 18 9 3 15 5 23 17 50 37 89 91 21 36 5 9 -17 2 -5 -7 rrcurveto
            -38 -53 -85 -78 -41 -24 -50 -28 -46 22 -55 33 -30 15 rcurveline
            11 9 9 9 6 5 55 49 71 60 47 38 27 -6 61 28 -2 35 -3 30 -61 -35 -14 -13 -77 18 rcurveline
            -53 12 -48 24 -48 -69 rrcurveto
            return
          </CharString>
          <CharString index="14">
            49 vstem
            575 510 rmoveto
            9 -26 -43 5 -46 hhcurveto
            -40 -122 -73 -238 -88 -112 -13 -15 -12 -14 -13 -10 73 -1 63 2 42 3 33 2 -26 -22 -6 -4 -18 -9 -298 -6 -47 1 -26 1 -11 8 14 34 10 23 35 3 11 -9 rrcurveto
            40 -30 71 -19 59 78 79 105 60 229 31 121 -108 -9 -110 -36 4 -75 3 -38 41 -12 16 -10 11 -8 -3 -5 -10 3 -24 5 -54 32 -1 47 rrcurveto
            1 -3 7 4 vvcurveto
            101 -6 133 38 122 hhcurveto
            2 1 4 2 4 vhcurveto
            3 14 54 3 -2 -17 -2 -4 -2 -4 -1 -5 43 -3 38 -10 26 -13 15 -7 39 -42 -60 20 rrcurveto
            return
          </CharString>
          <CharString index="15">
            515 583 rmoveto
            -196 30 -238 -228 -51 -208 -39 -162 94 -72 122 -1 129 -2 166 62 104 143 5 8 -12 11 -7 -10 -93 -131 -173 -60 -119 4 -106 1 -65 60 43 131 73 229 257 187 105 -16 rrcurveto
            55 -9 -4 -56 -24 -46 -49 -94 -97 -56 -104 -9 -27 -2 -10 -32 32 3 100 9 205 117 4 116 1 40 -26 35 -55 8 rrcurveto
            return
          </CharString>
          <CharString index="16">
            88 112 73 238 40 122 rrcurveto
            46 43 -5 -9 26 hvcurveto
            60 -20 -39 42 -15 7 -92 callgsubr
            return
          </CharString>
          <CharString index="17">
            379 135 rmoveto
            2 4 3 9 -5 2 rrcurveto
            -2 -5 4 -6 -5 hvcurveto
            -57 -73 -49 -46 -90 -26 -57 -16 -58 6 23 74 rrcurveto
            91 27 124 102 51 hhcurveto
            10 5 -11 -9 -6 -4 -7 -1 -7 hvcurveto
            -1 -3 1 -5 4 -3 7 -9 17 37 1 6 7 26 -15 13 -18 6 -75 25 -155 -131 -30 -68 -45 -104 72 -50 96 17 99 17 66 64 57 77 rrcurveto
            return
          </CharString>
          <CharString index="18">
            -85 callgsubr
            2 3 3 2 2 1 rrcurveto
            -72 callsubr
            return
          </CharString>
          <CharString index="19">
            -33 -17 -20 23 7 43 3 32 27 -76 callgsubr
            -17 3 -13 -1 -14 -3 -10 -25 -11 -31 return
          </CharString>
          <CharString index="20">
            30 100 14 vstem
            136 289 rmoveto
            -17 10 -15 -27 27 -15 -20 -27 -37 -56 -28 -34 -17 -22 21 -1 6 8 23 33 17 21 14 15 -33 -84 -40 -117 -6 -11 -9 -19 54 24 10 5 14 8 34 62 46 65 rrcurveto
            -132 24 86 -162 99 hhcurveto
            25 51 19 41 1 hvcurveto
            17 -15 29 -7 8 vhcurveto
            -13 10 -20 5 14 -22 rrcurveto
            -25 16 24 -55 -49 hhcurveto
            -26 -34 23 36 -30 hvcurveto
            -69 85 -21 50 -30 106 40 42 74 33 31 15 48 24 -40 38 -47 -23 -33 -16 -53 -61 -25 -29 -4 14 rcurveline
            -3 25 -15 -19 -2 -13 -2 -11 0 -12 1 -14 -65 -85 rcurveline
            10 31 28 80 31 69 56 24 84 58 64 68 28 31 102 116 -68 37 -6 3 -8 4 -8 1 -127 25 -105 -201 -48 -127 rrcurveto
            -3 -2 1 1 -3 hvcurveto
            56 -7 rmoveto
            53 115 52 83 90 69 23 18 16 3 8 -6 28 -22 -86 -113 -15 -17 -51 -59 -61 -45 -57 -26 rrcurveto
            return
          </CharString>
          <CharString index="21">
            241 465 rmoveto
            -37 -125 -45 -128 -62 -117 -55 -101 -66 -84 -79 -25 -21 -7 -30 4 -16 3 -19 5 -12 12 -7 20 -10 37 -12 -25 5 -17 9 -30 18 -19 28 -9 24 -7 27 0 33 11 rrcurveto
            72 22 66 78 59 96 35 48 61 73 58 68 rrcurveto
            -131 24 58 -162 127 hhcurveto
            25 51 19 41 1 hvcurveto
            18 -15 27 -7 8 vhcurveto
            -12 11 -21 4 14 -21 rrcurveto
            -24 16 24 -56 -49 hhcurveto
            -26 -34 23 37 -30 hvcurveto
            -69 85 -21 50 -29 105 20 22 70 60 90 61 83 55 105 57 15 7 44 21 -19 55 -83 -38 -31 -15 -267 -224 -32 -36 -1 -3 rcurveline
            -1 5 -1 5 5 vvcurveto
            -5 25 -14 -20 -3 -11 -1 -11 -1 -13 1 -15 -36 -39 -29 -32 -25 -31 63 127 46 135 54 131 3 19 -63 -4 -4 -15 -31 -71 -70 -61 -58 -6 -15 -2 0 -16 15 1 rrcurveto
            41 4 50 16 39 35 rrcurveto
            return
          </CharString>
          <CharString index="22">
            50 -82 callsubr
            return
          </CharString>
          <CharString index="23">
            vstem
            589 589 rmoveto
            -19 -18 -11 -18 -16 hvcurveto
            -132 24 -214 -27 7 -128 rrcurveto
            -4 3 -7 -1 vvcurveto
            1 -47 54 -32 24 -5 10 -3 3 5 -11 8 -16 10 -41 12 -3 38 -5 94 173 32 122 -5 -40 -70 -27 -107 -17 -48 -130 -41 -112 -63 -90 -103 -210 -240 379 -139 206 566 rrcurveto
            9 25 77 14 15 -8 8 -3 3 12 -7 5 -11 6 -39 -5 -46 -11 18 63 20 87 24 58 24 -3 20 -4 15 -5 60 -20 -39 42 -15 7 -12 6 -17 5 -17 5 rrcurveto
            10 9 11 6 8 3 rrcurveto
            2 12 4 14 -16 hhcurveto
            -168 -309 rmoveto
            -37 -102 -53 -104 -69 -84 -130 -157 -121 99 133 163 72 -24 callgsubr
            return
          </CharString>
          <CharString index="24">
            21 24 9 15 9 11 -21 -46 -17 -54 8 -23 return
          </CharString>
          <CharString index="25">
            36 61 66 19 35 return
          </CharString>
          <CharString index="26">
            -45 callsubr
            -17 -26 -22 -11 -9 -43 39 callsubr
            -4 -4 -5 -7 -14 callsubr
            return
          </CharString>
          <CharString index="27">
            19 hlineto
            -34 -54 -60 -145 11 -68 rrcurveto
            -7 1 13 -18 7 hhcurveto
            4 0 6 2 1 hvcurveto
            5 74 45 135 48 79 rrcurveto
            1 11 79 -1 77 hhcurveto
            1 2 1 -1 1 hhcurveto
            1 15 30 0 38 hhcurveto
            -112 -43 -14 -138 165 hhcurveto
            173 132 89 71 59 hvcurveto
            6 8 -6 18 -9 -10 rrcurveto
            -86 -73 -140 -57 -113 hhcurveto
            -136 16 138 80 29 hvcurveto
            61 66 3 2 39 hvcurveto
            41 3 22 0 2 9 rrcurveto
            -515 13 rmoveto
            80 117 113 133 136 38 9 -5 16 -9 -3 -35 -5 -91 -60 -69 -36 -80 rrcurveto
            -71 -74 return
          </CharString>
          <CharString index="28">
            rmoveto
            7 6 0 17 -13 -45 callsubr
            -16 -26 -23 -11 -9 -43 39 callsubr
            -3 -4 -5 -8 -14 callsubr
            121 58 22 17 rrcurveto
            endchar
          </CharString>
          <CharString index="29">
            627 138 rmoveto
            4 5 0 5 -5 2 -1 2 -5 0 -4 -5 -39 -53 -62 -56 -74 -30 -64 -26 -78 8 callgsubr
            rrcurveto
            -37 -30 -55 -32 -33 -3 -15 -1 7 -14 15 1 46 4 94 38 36 53 19 28 6 51 -41 14 -44 15 -70 -38 -56 -47 rrcurveto
            6 -10 -18 3 -6 hhcurveto
            -9 -76 -84 -15 -14 hvcurveto
            -26 -28 -45 -38 -26 -22 -14 -11 -49 -36 -14 20 -31 44 83 95 28 26 rrcurveto
            return
          </CharString>
          <CharString index="30">
            34 127 47 118 68 113 rrcurveto
            2 5 3 4 2 vvcurveto
            6 -4 4 -6 -9 -29 -6 -8 -14 vhcurveto
            -2 -1 return
          </CharString>
          <CharString index="31">
            rmoveto
            11 -10 21 -17 -5 -18 3 -13 -4 vhcurveto
            -8 -23 23 5 -11 -34 -9 -30 -18 -24 -18 -22 rrcurveto
            -13 -14 40 callsubr
            29 29 26 33 rrcurveto
            22 28 22 -23 callsubr
          </CharString>
          <CharString index="32">
            -36 -78 0 1 -84 hvcurveto
            29 59 89 165 24 14 32 18 93 13 76 2 -13 -11 -10 -15 -6 -10 -17 -35 1 -52 9 -10 11 -13 9 9 -4 7 -18 28 24 37 28 27 15 15 17 10 8 7 rrcurveto
            17 18 -21 12 -19 -4 rrcurveto
            -2 -3 -1 -1 hhcurveto
            -71 6 -89 -1 -59 -5 -22 -1 -22 -3 -17 -5 rrcurveto
            18 -6 -42 6 -12 hhcurveto
            -119 -187 -220 -81 -53 hvcurveto
            -1 -6 -11 -2 -13 hhcurveto
            return
          </CharString>
          <CharString index="33">
            13 12 13 13 13 14 rrcurveto
            -15 7 17 -10 17 hhcurveto
            39 40 43 27 22 hvcurveto
            15 18 13 16 6 12 -62 callgsubr
            -7 -10 -14 -13 -15 -12 -14 rrcurveto
            -21 -20 -33 -37 -32 hhcurveto
            -13 -11 8 19 -1 hvcurveto
            22 31 35 62 -14 41 -8 27 -44 -10 11 -28 5 -12 8 -21 -27 -54 -17 5 -14 -16 6 -21 rrcurveto
            -3 2 -1 1 -2 vhcurveto
            -45 -30 -43 -33 -31 hhcurveto
            return
          </CharString>
          <CharString index="34">
            -10 -9 -11 -25 30 19 31 21 return
          </CharString>
          <CharString index="35">
            8 14 29 6 9 hhcurveto
            6 4 -4 -6 hvcurveto
            hintmask 1111011111100000
            -86 callgsubr
            return
          </CharString>
          <CharString index="36">
            rmoveto
            7 7 -2 callsubr
            -17 -26 -22 -12 -9 -42 39 callsubr
            -4 -4 -49 callsubr
          </CharString>
          <CharString index="37">
            57 callsubr
            -33 26 -22 15 -18 14 -18 -6 -36 -13 44 -30 13 -7 18 callsubr
            13 -4 return
          </CharString>
          <CharString index="38">
            -47 callsubr
            26 33 32 callgsubr
            11 -61 callsubr
          </CharString>
          <CharString index="39">
            rmoveto
            4 35 6 25 -42 -41 -284 -1 -21 hhcurveto
            -22 -33 -39 2 46 hvcurveto
            34 2 276 3 46 4 rrcurveto
            return
          </CharString>
          <CharString index="40">
            rmoveto
            -11 -31 41 14 4 11 33 104 57 101 50 96 6 13 9 1 7 13 rrcurveto
            16 28 8 24 14 vvcurveto
            19 -36 26 -12 -13 vhcurveto
            -10 -11 -18 -47 -24 -57 -39 -90 -49 -122 -32 -93 rrcurveto
            5 -123 -62 callsubr
            endchar
          </CharString>
          <CharString index="41">
            1 25 84 22 73 86 83 59 27 return
          </CharString>
          <CharString index="42">
            hhcurveto
            -36 -24 32 88 15 hvcurveto
            25 return
          </CharString>
          <CharString index="43">
            47 callgsubr
            -33 -17 -20 23 7 43 20 callsubr
            return
          </CharString>
          <CharString index="44">
            57 45 66 3 7 5 12 -13 1 -4 -4 return
          </CharString>
          <CharString index="45">
            -40 callgsubr
            13 9 61 callgsubr
            return
          </CharString>
          <CharString index="46">
            -12 -75 callgsubr
          </CharString>
          <CharString index="47">
            278 57 callgsubr
            142 588 rmoveto
            4 -1 10 -10 -8 vhcurveto
            -9 -5 -28 -30 -27 -32 rrcurveto
            -22 -28 -21 -31 -14 vvcurveto
            -11 10 -21 16 5 15 0 10 7 vhcurveto
            3 23 -18 -5 12 34 8 29 18 25 19 22 rrcurveto
            12 13 11 12 3 vvcurveto
            return
          </CharString>
          <CharString index="48">
            -16 -42 -26 -46 -34 -42 -32 -41 -92 -77 -67 41 -15 10 -6 20 10 34 rrcurveto
            91 27 124 102 51 hhcurveto
            10 15 -10 -8 -4 5 -10 9 15 hvcurveto
            7 26 -15 13 -18 6 -75 25 -155 -131 -30 -68 -32 -72 27 -48 52 -15 rrcurveto
            endchar
          </CharString>
          <CharString index="49">
            -5 vvcurveto
            -34 callgsubr
            return
          </CharString>
          <CharString index="50">
            16 24 62 11 27 -19 -11 30 85 return
          </CharString>
          <CharString index="51">
            -228 -28 callgsubr
            return
          </CharString>
          <CharString index="52">
            -57 callsubr
            29 80 return
          </CharString>
          <CharString index="53">
            24 -85 callsubr
            rrcurveto
            return
          </CharString>
          <CharString index="54">
            -13 callgsubr
            -13 7 -11 -5 -19 -25 -30 -16 -26 -22 -11 -9 -43 -28 -1 -2 rrcurveto
            -4 -4 -5 -7 -14 callsubr
            return
          </CharString>
          <CharString index="55">
            rmoveto
            2 5 -16 4 -4 -7 -11 -31 -19 -7 -30 8 9 callgsubr
            -3 -3 14 4 callsubr
            37 7 37 -22 37 -14 0 callsubr
          </CharString>
          <CharString index="56">
            -14 -11 -49 -36 -14 20 -31 44 83 95 28 26 rrcurveto
            46 callgsubr
            return
          </CharString>
          <CharString index="57">
            -31 callgsubr
            32 return
          </CharString>
          <CharString index="58">
            -5 -7 -72 callgsubr
          </CharString>
          <CharString index="59">
            -31 callsubr
            -3 vhcurveto
            -8 -23 23 5 -12 -34 -8 -30 -18 24 callsubr
            8 5 28 29 27 33 rrcurveto
            22 28 -27 callsubr
          </CharString>
          <CharString index="60">
            -73 callsubr
            26 return
          </CharString>
          <CharString index="61">
            hhcurveto
            7 6 -10 13 -1 hvcurveto
            26 -5 -42 10 -12 hhcurveto
            -52 -100 -122 -33 -6 hvcurveto
            2 -5 4 -10 -13 -26 return
          </CharString>
          <CharString index="62">
            -13 callgsubr
            -13 -63 callgsubr
            return
          </CharString>
          <CharString index="63">
            -7 callsubr
            -19 3 -13 return
          </CharString>
          <CharString index="64">
            -20 4 -21 3 -20 2 -100 12 -104 0 -11 -121 -2 -24 5 -24 7 -13 9 -14 17 9 -8 13 return
          </CharString>
          <CharString index="65">
            55 callgsubr
            -47 58 callgsubr
            3 -16 callsubr
            11 -5 -31 vhcurveto
            -25 return
          </CharString>
          <CharString index="66">
            -18 -17 -7 -2 20 -20 30 -30 26 -30 23 -36 13 -23 13 14 -10 25 -8 20 -21 40 -27 54 72 68 9 14 21 25 23 26 -12 8 -8 -8 -63 -52 -16 -20 -60 -56 rrcurveto
            endchar
          </CharString>
          <CharString index="67">
            24 33 24 -85 callsubr
            return
          </CharString>
          <CharString index="68">
            20 25 35 -41 -33 vhcurveto
            -6 -5 -54 -40 -5 vvcurveto
            -21 25 0 18 10 23 38 11 vhcurveto
            endchar
          </CharString>
          <CharString index="69">
            61 callsubr
            18 -14 8 -5 2 -12 7 18 callgsubr
            -23 -11 -8 -42 -28 -2 -2 rrcurveto
            -4 -3 -5 -8 12 hhcurveto
            18 2 121 25 callsubr
          </CharString>
          <CharString index="70">
            -13 -7 17 259 -20 return
          </CharString>
          <CharString index="71">
            60 callgsubr
            73 18 13 0 callgsubr
            13 -60 47 -58 callgsubr
          </CharString>
          <CharString index="72">
            -64 -44 -40 -66 37 -47 rrcurveto
            -20 15 28 -13 21 hhcurveto
            80 73 107 18 15 hvcurveto
            13 15 -5 17 -21 -20 -22 -17 -137 -132 -23 35 -32 44 83 95 29 26 return
          </CharString>
          <CharString index="73">
            -56 callgsubr
            -41 -58 -75 -63 -32 -18 -33 -17 return
          </CharString>
          <CharString index="74">
            -39 3 46 hvcurveto
            34 1 return
          </CharString>
          <CharString index="75">
            70 40 52 hhcurveto
            return
          </CharString>
          <CharString index="76">
            rmoveto
            -44 callsubr
            return
          </CharString>
          <CharString index="77">
            16 -32 callgsubr
            return
          </CharString>
          <CharString index="78">
            -54 -140 -58 -141 -25 -51 -20 -43 84 35 6 14 12 22 8 25 9 27 9 26 -8 12 9 27 20 61 24 70 17 40 59 -18 94 return
          </CharString>
          <CharString index="79">
            rmoveto
            -33 25 -34 25 -34 27 -21 15 -19 13 -17 -6 -37 -12 44 -30 14 -8 rrcurveto
            -24 42 78 -36 14 hhcurveto
            12 -4 1 callsubr
          </CharString>
          <CharString index="80">
            21 -23 callsubr
          </CharString>
          <CharString index="81">
            -27 10 -113 41 -81 -156 -38 -81 -32 -71 -34 -84 -26 -74 rrcurveto
            -3 hlineto
            -8 -61 callgsubr
            return
          </CharString>
          <CharString index="82">
            rmoveto
            -17 28 -44 57 -19 8 -20 return
          </CharString>
          <CharString index="83">
            -10 -12 -33 -70 -37 -89 -34 -3 -33 -5 -20 -8 rrcurveto
            -12 -7 -4 -12 -10 vvcurveto
            3 -25 20 15 10 4 18 6 18 5 19 4 return
          </CharString>
          <CharString index="84">
            31 14 vvcurveto
            endchar
          </CharString>
          <CharString index="85">
            rmoveto
            -10 callsubr
            return
          </CharString>
          <CharString index="86">
            -17 callgsubr
            11 return
          </CharString>
          <CharString index="87">
            19 29 10 vhcurveto
            endchar
          </CharString>
          <CharString index="88">
            5 -16 4 -4 -6 -11 -31 -19 -8 -30 9 return
          </CharString>
          <CharString index="89">
            -25 vhcurveto
            -5 -4 -27 -25 -5 vvcurveto
            -16 20 0 return
          </CharString>
          <CharString index="90">
            9 10 25 -29 -19 return
          </CharString>
          <CharString index="91">
            114 rrcurveto
            16 -30 return
          </CharString>
          <CharString index="92">
            -46 -128 -47 -124 -62 -121 rlinecurve
            -54 callgsubr
            3 -57 callsubr
            return
          </CharString>
          <CharString index="93">
            13 hhcurveto
            17 1 return
          </CharString>
          <CharString index="94">
            -64 -44 -40 -66 38 -46 rrcurveto
            -20 15 27 -14 21 hhcurveto
            80 73 108 17 15 hvcurveto
            14 15 -5 18 -22 -20 rrcurveto
            return
          </CharString>
          <CharString index="95">
            rmoveto
            -42 -85 -44 -100 -76 -63 -24 -19 -15 -3 -9 5 -32 17 25 60 40 40 -48 callgsubr
            return
          </CharString>
          <CharString index="96">
            -7 callgsubr
            -21 6 -33 return
          </CharString>
          <CharString index="97">
            -17 27 -44 31 callgsubr
            return
          </CharString>
          <CharString index="98">
            47 5 51 7 15 5 return
          </CharString>
          <CharString index="99">
            13 10 12 14 13 15 return
          </CharString>
          <CharString index="100">
            11 40 callgsubr
            return
          </CharString>
          <CharString index="101">
            vhcurveto
            159 hmoveto
            return
          </CharString>
          <CharString index="102">
            -30 -34 hhcurveto
            -24 -11 13 13 -1 hvcurveto
            27 -3 35 46 38 hhcurveto
            40 -4 -36 -15 -6 hvcurveto
            27 21 rmoveto
            31 return
          </CharString>
          <CharString index="103">
            -13 21 156 18 156 20 130 19 8 18 hstemhm
            66 34 116 35 -24 35 115 35 return
          </CharString>
          <CharString index="104">
            rmoveto
            16 5 22 -34 -27 vhcurveto
            -5 -3 -27 -25 -4 vvcurveto
            -16 20 0 14 8 19 28 9 vhcurveto
            endchar
          </CharString>
          <CharString index="105">
            -9 callgsubr
            -12 -63 callgsubr
            return
          </CharString>
          <CharString index="106">
            hhcurveto
            4 5 -4 -1 3 hvcurveto
            31 3 -51 13 -13 hhcurveto
            return
          </CharString>
          <CharString index="107">
            rrcurveto
            38 -13 37 33 18 40 rrcurveto
            endchar
          </CharString>
          <CharString index="108">
            9 2 -5 hvcurveto
            endchar
          </CharString>
          <CharString index="109">
            36 169 35 return
          </CharString>
          <CharString index="110">
            9 rrcurveto
            endchar
          </CharString>
          <CharString index="111">
            48 callgsubr
            17 18 13 21 5 return
          </CharString>
          <CharString index="112">
            29 36 147 rrcurveto
            3 -1 6 -5 return
          </CharString>
          <CharString index="113">
            -146 253 41 return
          </CharString>
          <CharString index="114">
            rmoveto
            -3 22 -18 15 -22 8 -50 17 -40 -18 -39 -32 -36 -28 -27 -44 -31 -43 18 43 return
          </CharString>
          <CharString index="115">
            -9 1 -63 -5 -25 vhcurveto
            -2 -17 16 -5 5 19 9 40 11 27 6 26 rrcurveto
            endchar
          </CharString>
          <CharString index="116">
            -24 -59 -28 -58 -27 -57 -77 9 -83 22 -81 16 return
          </CharString>
          <CharString index="117">
            -12 -23 16 -7 13 16 12 17 6 23 2 17 1 42 -26 26 -35 14 -62 22 return
          </CharString>
          <CharString index="118">
            -34 -160 -165 -113 -169 20 -167 20 -110 147 33 161 return
          </CharString>
          <CharString index="119">
            73 18 14 11 8 10 25 -29 -18 -32 -22 55 callsubr
            13 -60 47 return
          </CharString>
          <CharString index="120">
            -9 1 -62 -5 -25 vhcurveto
            -2 -18 16 -5 4 19 10 40 11 27 6 27 rrcurveto
            return
          </CharString>
          <CharString index="121">
            246 427 rmoveto
            -15 -2 -1 -16 15 1 return
          </CharString>
          <CharString index="122">
            40 callgsubr
            -15 0 -10 -8 vhcurveto
            -2 -24 return
          </CharString>
          <CharString index="123">
            9 -34 21 -20 8 -46 16 -34 -46 -30 -43 return
          </CharString>
          <CharString index="124">
            9 1 45 -19 callgsubr
            return
          </CharString>
          <CharString index="125">
            rrcurveto
            -24 43 77 -36 14 hhcurveto
            return
          </CharString>
          <CharString index="126">
            -16 callgsubr
            477 45 return
          </CharString>
          <CharString index="127">
            3 32 27 53 30 60 return
          </CharString>
          <CharString index="128">
            -331 25 553 86 hstem
            -56 47 20 40 70 34 166 31 vstem
            return
          </CharString>
          <CharString index="129">
            -2 -4 13 48 callgsubr
            18 18 12 21 5 38 8 36 -23 37 return
          </CharString>
          <CharString index="130">
            -3 hlineto
            -8 -4 16 -16 hhcurveto
            -15 -45 -11 return
          </CharString>
          <CharString index="131">
            -24 -19 -22 rrcurveto
            -12 53 callgsubr
            return
          </CharString>
          <CharString index="132">
            57 21 18 rrcurveto
            endchar
          </CharString>
          <CharString index="133">
            rmoveto
            -22 -18 -136 -131 -24 35 -31 44 82 95 29 26 return
          </CharString>
          <CharString index="134">
            -22 -54 callgsubr
            return
          </CharString>
          <CharString index="135">
            10 -6 callsubr
            15 20 return
          </CharString>
          <CharString index="136">
            15 20 28 -32 -26 vhcurveto
            return
          </CharString>
          <CharString index="137">
            28 77 85 9 70 -4 return
          </CharString>
          <CharString index="138">
            6 -5 -7 -34 -48 return
          </CharString>
          <CharString index="139">
            13 20 rrcurveto
            -89 hmoveto
            12 8 30 38 -29 hhcurveto
            -35 5 -19 return
          </CharString>
          <CharString index="140">
            3 5 18 42 30 68 37 70 20 39 22 39 21 34 return
          </CharString>
          <CharString index="141">
            51 103 37 86 107 56 74 39 7 -59 -33 -57 rrcurveto
            return
          </CharString>
          <CharString index="142">
            14 -85 callsubr
            -62 callgsubr
            -7 return
          </CharString>
          <CharString index="143">
            -67 callgsubr
            80 95 140 8 17 hvcurveto
            return
          </CharString>
          <CharString index="144">
            -5 -7 12 hhcurveto
            18 1 121 return
          </CharString>
          <CharString index="145">
            -20 -1 -74 -73 -17 return
          </CharString>
          <CharString index="146">
            -27 -1 -3 rrcurveto
            return
          </CharString>
          <CharString index="147">
            -10 -13 -10 callgsubr
            8 5 return
          </CharString>
          <CharString index="148">
            7 1 46 2 -1 12 rrcurveto
            8 -21 5 -33 vhcurveto
            return
          </CharString>
          <CharString index="149">
            -10 -11 11 -14 10 14 18 22 32 37 14 18 return
          </CharString>
          <CharString index="150">
            15 20 29 -32 -26 vhcurveto
            -5 -4 -43 -31 -5 vvcurveto
            return
          </CharString>
          <CharString index="151">
            -148 42 133 42 return
          </CharString>
          <CharString index="152">
            -25 -168 246 29 return
          </CharString>
          <CharString index="153">
            92 -27 25 305 15 return
          </CharString>
          <CharString index="154">
            6 -5 3 vhcurveto
            endchar
          </CharString>
          <CharString index="155">
            -83 -165 -67 -48 72 vhcurveto
            -11 17 -15 -2 return
          </CharString>
          <CharString index="156">
            656 232 rmoveto
            10 4 -16 1 -9 hhcurveto
            return
          </CharString>
          <CharString index="157">
            -2 35 46 37 hhcurveto
            40 -3 -36 -15 -7 hvcurveto
            return
          </CharString>
          <CharString index="158">
            -47 28 callgsubr
            18 return
          </CharString>
          <CharString index="159">
            -14 -10 -12 -21 callsubr
            7 vhcurveto
            return
          </CharString>
          <CharString index="160">
            -49 1 31 165 49 vstem
            return
          </CharString>
          <CharString index="161">
            -25 -6 -9 -11 vhcurveto
            -24 -15 return
          </CharString>
          <CharString index="162">
            -25 -25 -33 -20 -11 return
          </CharString>
          <CharString index="163">
            -60 9 -26 20 -60 return
          </CharString>
          <CharString index="164">
            rmoveto
            -34 25 -34 25 return
          </CharString>
          <CharString index="165">
            29 28 callsubr
            29 -33 return
          </CharString>
          <CharString index="166">
            rmoveto
            -18 -6 -24 -30 -33 hhcurveto
            -24 -11 13 return
          </CharString>
          <CharString index="167">
            rrcurveto
            37 -13 38 33 17 40 rrcurveto
            endchar
          </CharString>
          <CharString index="168">
            rmoveto
            8 6 0 return
          </CharString>
        <CharString name=".notdef">
          -239 endchar
        </CharString>
        <CharString name="A">
          391 -77 callgsubr
          19 callsubr
          hintmask 1111101110000000
          -91 callgsubr
          hintmask 1111011110000000
          -77 callsubr
          -1 0 -2 -2 rrcurveto
          -1 hlineto
          -2 -1 -1 0 vhcurveto
          -82 callgsubr
          30 callsubr
          rrcurveto
          -87 callgsubr
          endchar
        </CharString>
        <CharString name="AE">
          396 -57 -21 286 36 -32 30 290 16 hstemhm
          1 25 18 38 388 55 hintmask 00000000
          hintmask 10111110
          49 callsubr
          hintmask 11011110
          -75 callsubr
          -2 -40 0 -34 29 hhcurveto
          -80 callsubr
          1 -56 hhcurveto
          endchar
        </CharString>
        <CharString name="AEacute">
          396 -62 -21 hstem
          49 callsubr
          -75 callsubr
          -40 -2 0 -35 29 1 rrcurveto
          -80 callsubr
          0 1 -56 hvcurveto
          442 445 rmoveto
          8 7 -9 callgsubr
          -12 8 -6 callgsubr
          -17 -27 -22 -11 -9 -42 -27 -2 -3 rrcurveto
          -4 -3 -49 callsubr
        </CharString>
        <CharString name="Aacute">
          391 -77 callgsubr
          -16 callgsubr
          117 37 168 35 120 45 hintmask 1111101111100000
          -91 callgsubr
          hintmask 1111011111100000
          -77 callsubr
          -3 -2 -2 -3 -82 callgsubr
          rrcurveto
          30 callsubr
          -87 callgsubr
          268 256 rmoveto
          7 6 0 18 -13 -53 callsubr
          121 57 22 18 rrcurveto
          endchar
        </CharString>
        <CharString name="Abreve">
          12 -77 callgsubr
          72 28 19 callsubr
          97 258 hintmask 1111101111100000
          -91 callgsubr
          hintmask 1111011111100000
          -77 callsubr
          -3 -2 -2 -3 -82 callgsubr
          rrcurveto
          30 callsubr
          -87 callgsubr
          279 296 -42 callsubr
          -167 246 28 36 148 rrcurveto
          2 -1 7 -5 2 vhcurveto
          endchar
        </CharString>
        <CharString name="Acircumflex">
          12 -77 callgsubr
          35 112 -16 callgsubr
          224 205 48 -89 callsubr
          219 172 -25 callsubr
          -1 -74 -73 -17 -14 -10 -8 -11 -25 30 18 31 22 26 26 20 callgsubr
          16 -13 0 20 -6 8 rrcurveto
          endchar
        </CharString>
        <CharString name="Adieresis">
          12 -77 callgsubr
          80 66 19 callsubr
          67 66 92 67 hintmask 1111101111110000
          -105 callsubr
          rrcurveto
          1 1 0 2 vvcurveto
          1 hlineto
          5 3 rlineto
          8 14 29 6 9 hhcurveto
          6 4 -4 -6 hvcurveto
          hintmask 1111011111110000
          -86 callgsubr
          57 209 rmoveto
          -41 callgsubr
          20 0 13 9 18 29 10 vhcurveto
          158 hmoveto
          29 callsubr
          23 callgsubr
          8 18 29 10 vhcurveto
          endchar
        </CharString>
        <CharString name="Agrave">
          12 -77 callgsubr
          25 111 -16 callgsubr
          192 178 107 -89 callsubr
          177 180 57 callsubr
          -34 26 -21 15 -19 14 -17 -6 -36 -13 43 -30 14 -7 18 callsubr
          12 -3 8 3 -5 hvcurveto
          endchar
        </CharString>
        <CharString name="Amacron">
          12 -77 callgsubr
          86 38 19 callsubr
          67 235 hintmask 1111101111100000
          -91 callgsubr
          hintmask 1111011111100000
          -77 callsubr
          -1 0 -2 -2 rrcurveto
          -1 hlineto
          -2 -1 -1 0 vhcurveto
          -82 callgsubr
          30 callsubr
          rrcurveto
          -87 callgsubr
          178 185 -60 callgsubr
        </CharString>
        <CharString name="Aogonek">
          391 -77 callgsubr
          19 callsubr
          hintmask 1111101110000000
          11 12 rmoveto
          -37 14 -26 27 -19 vhcurveto
          -16 23 30 -9 37 hhcurveto
          57 55 20 39 52 hvcurveto
          70 51 81 89 80 99 40 -5 39 -5 40 -4 -9 -36 -6 -34 -2 -32 -7 -55 17 -44 32 -10 -35 -24 -70 -42 -57 -40 -35 callsubr
          50 47 55 22 38 38 23 2 30 8 30 23 71 -63 callsubr
          rrcurveto
          -26 -35 -39 -44 -46 -35 -69 -52 -47 -14 9 101 2 39 8 39 8 37 rrcurveto
          9 9 -1 9 hhcurveto
          28 -1 29 2 21 9 18 6 14 10 7 13 6 10 -11 11 -6 -10 -5 -9 -11 -8 -14 -5 -20 -9 -26 -3 -27 2 rrcurveto
          -8 -8 1 -9 hhcurveto
          3 7 rlineto
          hintmask 1111011110000000
          -77 callsubr
          -3 -2 -2 -3 -82 callgsubr
          rrcurveto
          30 callsubr
          -87 callgsubr
          endchar
        </CharString>
        <CharString name="Aring">
          12 -77 callgsubr
          230 14 38 15 19 callsubr
          179 26 64 20 hintmask 1111101111111000
          -105 callsubr
          rrcurveto
          1 1 0 2 vvcurveto
          1 hlineto
          5 3 rlineto
          8 14 29 6 9 hhcurveto
          6 4 -4 -6 hvcurveto
          hintmask 1111011111111000
          -2 -3 -4 -2 -5 vhcurveto
          -68 -113 -47 -118 -34 -127 -3 -7 rcurveline
          9 8 -1 8 hhcurveto
          27 -2 26 3 20 9 14 5 11 8 5 9 6 10 11 -11 -6 -10 rrcurveto
          104 450 rmoveto
          31 -29 11 -27 -23 54 callsubr
          -12 -22 -3 -14 -4 -26 14 -18 21 -8 -1 callgsubr
          -198 -195 rmoveto
          2 4 1 3 2 4 -58 -79 -70 -95 -73 -90 105 -17 rcurveline
          24 94 36 97 31 79 rrcurveto
          170 174 59 callsubr
          13 -2 hvcurveto
          27 50 callsubr
          endchar
        </CharString>
        <CharString name="Atilde">
          12 -77 callgsubr
          65 45 -16 callgsubr
          195 269 13 -85 callgsubr
          rrcurveto
          1 1 0 2 vvcurveto
          1 hlineto
          5 3 rlineto
          -72 callsubr
          245 231 rmoveto
          3 49 callgsubr
          -28 8 -33 22 -20 7 -47 16 -33 -46 28 callgsubr
          17 17 13 22 5 37 7 36 -22 38 -14 rrcurveto
          37 -12 38 32 17 40 rrcurveto
          endchar
        </CharString>
        <CharString name="B">
          196 -117 45 395 35 361 54 hstem
          -64 51 5 58 517 60 147 70 vstem
          571 8 rmoveto
          119 141 -140 95 -115 70 94 4 201 41 1 123 rrcurveto
          45 -39 41 -65 15 vhcurveto
          -117 26 -241 -42 -107 -58 -57 -31 -84 -60 -6 -63 rrcurveto
          -3 2 -10 -3 vvcurveto
          -8 -61 72 -34 34 -2 15 -2 6 8 -15 7 -22 12 -59 8 6 50 18 164 433 80 133 -25 85 -15 -1 -50 -32 -40 rrcurveto
          -52 -41 -145 -55 -62 hhcurveto
          -15 -30 -15 -19 2 hvcurveto
          4 -28 69 -45 43 -48 114 -125 -97 -110 -143 1 rrcurveto
          -60 -32 31 40 -9 hvcurveto
          16 -4 4 28 -28 hhcurveto
          3 callgsubr
          -15 -18 -23 -27 -33 -4 23 57 rrcurveto
          93 39 154 301 91 hhcurveto
          5 11 -10 16 -5 hvcurveto
          24 -6 -40 10 -10 hhcurveto
          -52 -72 -86 -33 -5 hvcurveto
          2 -6 3 -10 -12 -25 -29 -59 -135 -227 9 -64 rrcurveto
          -7 1 33 -5 5 hhcurveto
          23 25 37 24 15 hvcurveto
          -3 0 -1 2 -2 vhcurveto
          -62 8 55 -28 77 hhcurveto
          81 76 32 49 40 hvcurveto
          endchar
        </CharString>
        <CharString name="C">
          77 -123 36 hstem
          -116 56 637 55 vstem
          -92 callsubr
          endchar
        </CharString>
        <CharString name="Cacute">
          22 -123 36 360 27 320 -20 hstemhm
          -116 56 357 37 168 35 40 55 hintmask 10010010
          -92 callsubr
          hintmask 01101100
          109 132 -71 callsubr
        </CharString>
        <CharString name="Ccaron">
          22 -123 36 724 112 hstemhm
          -116 56 482 207 -52 55 hintmask 10101000
          -92 callsubr
          hintmask 01010000
          -89 146 rmoveto
          19 -27 42 -58 20 -7 19 1 74 72 17 14 12 -17 callsubr
          -33 -21 -25 -25 -32 -65 callgsubr
        </CharString>
        <CharString name="Ccedilla">
          22 -327 24 161 24 -5 36 hstem
          -116 56 16 30 241 35 315 55 vstem
          1 -273 rmoveto
          54 -90 219 73 102 vvcurveto
          46 -45 36 -82 -16 vhcurveto
          5 9 27 33 15 22 rrcurveto
          13 hlineto
          129 -2 166 62 104 143 5 8 -12 11 -7 -10 -93 -131 -173 -60 -119 4 -106 1 -65 60 43 131 73 229 257 187 105 -16 55 -9 -4 -56 -24 -46 -49 -94 -97 -56 -104 -9 rrcurveto
          -27 -2 -10 -32 32 3 100 9 205 117 4 116 1 40 -26 35 -55 8 -196 30 -238 -228 -51 -208 -34 -143 68 -72 101 -17 -11 -23 -24 -40 -10 -14 -19 -25 25 6 36 8 rrcurveto
          40 8 25 -22 -31 vvcurveto
          -83 -165 -67 -47 72 vhcurveto
          -11 16 -15 -1 12 -22 rrcurveto
          endchar
        </CharString>
        <CharString name="Ccircumflex">
          22 -123 36 704 112 hstemhm
          -116 56 472 205 -40 55 hintmask 10101000
          -92 callsubr
          hintmask 01010000
          99 54 rmoveto
          -18 27 -44 58 -18 7 -20 -1 -74 -73 -18 -13 -38 callgsubr
          26 32 32 callgsubr
          12 -61 callsubr
        </CharString>
        <CharString name="Cdotaccent">
          22 -123 36 736 85 hstemhm
          -116 56 551 84 2 55 hintmask 10101000
          -92 callsubr
          hintmask 01010000
          60 119 rmoveto
          22 6 29 -45 -36 vhcurveto
          -7 -5 -38 -34 -5 vvcurveto
          -24 28 0 18 13 25 41 12 vhcurveto
          endchar
        </CharString>
        <CharString name="D">
          411 -115 33 754 43 hstem
          159 53 vstem
          115 295 rmoveto
          -55 callgsubr
          rrcurveto
          90 42 149 308 93 -46 callsubr
          -27 -56 -58 -123 -17 -42 rrcurveto
          -4 1 -65 52 23 vvcurveto
          19 0 -4 8 17 vhcurveto
          6 14 0 5 -4 3 -7 5 -25 -8 -10 -7 -5 -5 -4 -7 2 -8 4 -10 5 -9 -1 -9 rrcurveto
          -5 -34 -4 -30 -43 vvcurveto
          -15 8 -78 51 27 39 83 7 5 vhcurveto
          -35 46 67 -16 68 hhcurveto
          203 212 160 214 63 -23 60 -55 45 hvcurveto
          -167 134 -583 -70 -244 -5 2 -8 -3 vvcurveto
          -9 -61 85 -31 35 -3 14 -1 6 9 -13 6 rrcurveto
          -23 11 -61 6 50 vvcurveto
          162 -266 -35 callgsubr
          endchar
        </CharString>
        <CharString name="DEL">
          1042 endchar
        </CharString>
        <CharString name="Dcaron">
          109 -115 33 705 112 -63 43 hstemhm
          159 53 348 206 hintmask 10110000
          115 295 rmoveto
          -55 callgsubr
          rrcurveto
          90 42 149 308 93 -46 callsubr
          -27 -56 -58 -123 -17 -42 rrcurveto
          -4 1 -65 52 23 vvcurveto
          19 0 -4 8 17 vhcurveto
          6 14 0 5 -4 3 -7 5 -25 -8 -10 -7 -5 -5 -4 -7 2 -8 4 -10 5 -9 -1 -9 rrcurveto
          -5 -34 -4 -30 -43 vvcurveto
          -15 8 -78 51 27 39 83 7 5 vhcurveto
          -35 46 67 -16 68 hhcurveto
          203 212 160 214 63 -23 60 -55 45 hvcurveto
          -167 134 -583 -70 -244 -5 2 -8 -3 vvcurveto
          -9 -61 85 -31 35 -3 14 -1 6 9 -13 6 rrcurveto
          -23 11 -61 6 50 vvcurveto
          162 -266 -35 callgsubr
          hintmask 01001000
          287 686 rmoveto
          18 56 callgsubr
          19 1 73 73 18 13 0 callgsubr
          13 -60 47 -12 11 -15 15 -2 -20 7 -10 rrcurveto
          endchar
        </CharString>
        <CharString name="Dcroat">
          109 -115 33 254 37 463 43 hstem
          159 53 59 235 vstem
          452 180 rmoveto
          8 2 5 callgsubr
          hhcurveto
          -41 hlineto
          109 61 76 112 57 -46 callsubr
          -8 -18 -12 -22 -11 -25 rrcurveto
          -59 hlineto
          -20 -35 -39 3 47 hvcurveto
          12 18 0 1 21 hvcurveto
          -23 -49 -22 -49 -10 -23 rrcurveto
          -4 1 -65 52 23 vvcurveto
          19 0 -4 8 17 vhcurveto
          6 14 0 5 -4 3 -7 5 -25 -8 -10 -7 -5 -5 -4 -7 2 -8 4 -10 5 -9 -1 -9 rrcurveto
          -5 -34 -4 -30 -43 vvcurveto
          -15 8 -78 51 27 39 83 7 5 vhcurveto
          -35 46 67 -16 68 hhcurveto
          203 212 160 214 63 -23 60 -55 45 hvcurveto
          -167 134 -583 -70 -244 -5 2 -8 -3 vvcurveto
          -9 -61 85 -31 35 -3 14 -1 6 9 -13 6 rrcurveto
          -23 11 -61 6 50 vvcurveto
          -55 callgsubr
          14 30 26 55 32 58 rrcurveto
          -115 -146 -35 callgsubr
          endchar
        </CharString>
        <CharString name="Delta">
          147 -17 47 hstem
          37 492 vstem
          529 59 rmoveto
          -2 1 0 2 1 vvcurveto
          -137 475 -1 1 rlineto
          -2 hlineto
          1 -1 0 0 -1 hhcurveto
          -5 -6 -3 -9 -9 hvcurveto
          -9 -8 -6 -8 -5 -9 -303 -478 rcurveline
          -3 -3 -2 -3 -4 vvcurveto
          -1 -6 0 -7 4 -8 rrcurveto
          -7 4 3 -4 5 hhcurveto
          418 hlineto
          12 6 13 10 12 13 12 12 7 15 1 16 2 2 1 1 -1 1 rrcurveto
          -449 -29 rmoveto
          267 425 120 -425 rlineto
          endchar
        </CharString>
        <CharString name="E">
          259 -32 40 466 -21 256 40 hstem
          9 57 724 31 vstem
          -102 callgsubr
          endchar
        </CharString>
        <CharString name="Eacute">
          67 -32 40 269 27 170 -21 171 -20 105 40 hstemhm
          9 57 225 2 callsubr
          259 31 hintmask 0000000000000000
          hintmask 1010110010000000
          -96 callsubr
          hintmask 0101001100000000
          165 130 -70 callgsubr
        </CharString>
        <CharString name="Ebreve">
          -21 callgsubr
          180 27 49 40 hstemhm
          9 57 311 259 154 31 hintmask 11011010
          -102 callgsubr
          hintmask 00100100
          178 178 rmoveto
          -1 1 -5 2 -2 -5 -46 -27 callgsubr
        </CharString>
        <CharString name="Ecaron">
          -21 callgsubr
          180 112 -36 40 hstemhm
          9 57 348 206 170 31 hintmask 11011010
          -102 callgsubr
          hintmask 00100100
          -35 136 -36 callsubr
        </CharString>
        <CharString name="Ecircumflex">
          -21 callgsubr
          151 113 -8 40 hstemhm
          9 57 246 205 273 31 hintmask 00000000
          hintmask 11011010
          -96 callsubr
          hintmask 00100100
          138 53 rmoveto
          -18 27 -43 58 -19 7 38 callsubr
          -13 -10 -9 -12 -25 30 19 32 21 26 26 32 20 12 -12 60 -48 11 -61 callsubr
        </CharString>
        <CharString name="Edieresis">
          -21 callgsubr
          142 67 47 40 hstem
          9 57 218 66 -66 225 -67 67 281 31 vstem
          -96 callsubr
          2 85 rmoveto
          15 20 29 -33 -26 vhcurveto
          -5 -4 -42 -31 -5 vvcurveto
          -17 20 0 13 9 18 29 10 vhcurveto
          158 hmoveto
          43 callsubr
          -17 19 0 15 8 18 29 10 vhcurveto
          endchar
        </CharString>
        <CharString name="Edotaccent">
          -21 callgsubr
          202 92 -38 40 hstemhm
          9 57 366 92 266 31 hintmask 11011010
          -102 callgsubr
          hintmask 00100100
          72 123 rmoveto
          23 6 33 -49 -39 vhcurveto
          -7 -6 -42 -36 -7 vvcurveto
          -25 30 0 20 14 28 44 13 vhcurveto
          endchar
        </CharString>
        <CharString name="Egrave">
          -21 callgsubr
          142 112 2 40 hstemhm
          9 57 231 178 315 31 hintmask 00000000
          hintmask 11011010
          -96 callsubr
          hintmask 00100100
          109 50 -15 callgsubr
          1 callsubr
        </CharString>
        <CharString name="Emacron">
          -21 callgsubr
          186 38 32 40 hstemhm
          9 57 303 235 186 31 hintmask 11011010
          -102 callgsubr
          hintmask 00100100
          98 59 -60 callgsubr
        </CharString>
        <CharString name="Eng">
          188 -30 37 -32 19 504 47 -12 26 hstemhm
          121 34 65 36 56 28 220 52 hintmask 01101111
          546 509 rmoveto
          26 -60 -17 -164 -13 -55 rrcurveto
          hintmask 10101111
          -26 -111 -51 -111 -71 -1 rrcurveto
          -79 -43 125 126 -5 hvcurveto
          -3 85 -4 86 6 81 rrcurveto
          19 -42 26 -12 -12 vhcurveto
          -32 -41 -176 -442 3 -63 4 -15 18 7 6 8 22 136 87 151 80 154 -3 -39 -4 -40 2 -39 2 -143 29 -207 126 2 rrcurveto
          39 36 25 38 33 hvcurveto
          -20 -48 -27 -54 -33 -55 rrcurveto
          -60 -38 -82 -134 -80 hhcurveto
          -113 48 159 49 56 hvcurveto
          9 7 -8 13 -10 -5 -41 -24 -35 -45 -9 -45 rrcurveto
          -64 -12 32 -65 81 hhcurveto
          97 87 118 72 48 hvcurveto
          83 131 40 112 32 116 rrcurveto
          165 45 -3 182 -106 hhcurveto
          -18 -41 -12 -18 5 hvcurveto
          hintmask 01011111
          3 -8 13 8 13 3 21 5 16 -9 9 -20 rrcurveto
          endchar
        </CharString>
        <CharString name="Eogonek">
          -21 callgsubr
          256 40 hstem
          9 57 724 31 vstem
          255 -228 rmoveto
          -23 -18 -136 -131 -24 35 -31 44 83 95 28 26 50 45 54 22 39 38 94 7 130 30 71 40 62 35 110 90 -53 77 -3 3 -10 0 1 -5 15 -62 -121 -90 -54 -28 rrcurveto
          -33 -65 -148 -42 -108 hhcurveto
          -112 -38 44 54 1 hvcurveto
          3 120 201 75 100 2 24 -5 46 -17 20 11 19 11 0 25 -36 4 -12 1 -35 2 -6 7 -45 59 -44 176 104 43 36 13 34 -21 15 -14 26 -22 18 -30 16 -34 rrcurveto
          13 -26 2 -35 16 -20 30 -36 9 90 -14 33 -6 15 -7 22 -12 10 -5 3 -8 -1 -5 3 -12 3 -10 10 -7 8 -23 21 -25 26 -35 9 -43 10 -84 -21 -25 -43 rrcurveto
          -44 -75 50 -120 55 -63 rrcurveto
          -109 -5 -228 -27 -167 vvcurveto
          -121 116 -32 111 vhcurveto
          6 hlineto
          -36 -23 -65 -40 -54 -38 -63 -44 -40 -66 37 -46 rrcurveto
          -67 callgsubr
          80 72 108 17 15 hvcurveto
          14 15 -5 18 -21 -20 rrcurveto
          endchar
        </CharString>
        <CharString name="Eth">
          109 -23 21 517 30 hstem
          547 49 vstem
          266 452 rmoveto
          8 15 -50 17 -12 -11 -15 -19 -48 -109 -43 -110 rrcurveto
          -51 hlineto
          -21 -34 -40 3 46 hvcurveto
          11 17 1 1 18 hvcurveto
          -20 -55 -18 -52 -13 -39 -11 14 rcurveline
          -11 14 -9 -19 7 -19 3 -9 5 -7 7 -8 -2 -11 -1 -10 1 -5 2 -14 30 8 7 6 rrcurveto
          4 vlineto
          32 -13 41 -7 40 -1 rrcurveto
          189 -3 225 134 210 vvcurveto
          84 -45 78 -106 40 vhcurveto
          -63 23 -73 7 -70 -5 -59 -3 -34 -3 -36 -15 -36 -15 35 -30 20 5 103 30 117 15 85 -30 rrcurveto
          85 -30 30 -64 -71 vvcurveto
          -237 -314 -168 -160 98 vhcurveto
          15 65 21 56 25 55 69 5 rcurveline
          7 47 2 13 -2 hvcurveto
          7 -21 5 -32 vhcurveto
          -52 hlineto
          35 70 40 69 39 78 rrcurveto
          endchar
        </CharString>
        <CharString name="Euro">
          81 -37 19 177 35 109 34 195 20 hstem
          27 64 406 38 vstem
          554 145 rmoveto
          7 10 -1 28 -19 -24 -41 -54 -59 -45 -56 -30 -190 -102 -138 67 25 164 80 3 124 2 34 3 9 1 22 1 -1 13 rrcurveto
          7 1 5 -32 vhcurveto
          -228 hlineto
          6 25 10 26 14 28 16 30 rcurveline
          78 1 102 3 30 2 rrcurveto
          8 1 22 3 12 vvcurveto
          7 2 6 -33 -25 -89 0 -1 -73 vhcurveto
          70 106 105 90 87 -1 rrcurveto
          35 -2 41 -18 -40 -22 38 3 21 vvcurveto
          66 -65 12 -43 -121 -127 -98 -117 -79 vhcurveto
          -45 hlineto
          -21 -34 -39 2 46 hvcurveto
          6 12 0 2 13 hvcurveto
          -2 -7 -4 -6 -4 -6 -16 -31 -11 -30 -6 -28 rrcurveto
          -5 hlineto
          -22 -35 -39 2 47 hvcurveto
          8 1 -6 -55 15 -46 29 -33 rlinecurve
          -44 39 52 -17 56 hhcurveto
          130 134 81 101 78 hvcurveto
          endchar
        </CharString>
        <CharString name="F">
          72 352 197 179 60 hstem
          -113 77 85 56 vstem
          236 24 rmoveto
          -22 -27 -34 -4 24 57 13 33 28 59 35 63 85 9 117 18 33 11 rrcurveto
          15 41 -26 6 -14 hhcurveto
          -47 -52 -9 -6 -48 hvcurveto
          -24 -4 -23 -3 -22 -2 rrcurveto
          103 60 74 101 53 hhcurveto
          4 5 -2 -3 4 hvcurveto
          31 4 -50 14 -13 hhcurveto
          -52 -70 -86 -33 -7 hvcurveto
          3 -6 4 -10 -13 -25 -9 -17 -17 -32 -20 -36 rrcurveto
          -3 hlineto
          -7 -4 19 -16 hhcurveto
          -14 -42 -13 -20 -16 15 -10 11 7 17 1 2 16 hvcurveto
          -45 -87 -50 -102 6 -39 rrcurveto
          -7 1 32 -5 6 hhcurveto
          27 27 48 22 16 hvcurveto
          1 1 18 20 -7 38 callgsubr
          -14 -18 rrcurveto
          411 363 rmoveto
          -22 33 30 44 32 31 18 18 20 11 10 10 20 20 -25 16 -23 -5 -8 -1 -19 -10 -18 -20 -135 4 -87 41 -154 -10 -129 -9 -121 -47 -21 -100 rrcurveto
          -1 -5 0 -10 -1 vvcurveto
          -22 -59 64 -46 34 -10 12 -4 9 7 -12 9 -20 15 -52 19 12 49 18 83 107 53 120 16 126 19 116 -34 124 5 -5 -6 -4 -8 -5 -7 -21 -40 2 -63 12 -12 rrcurveto
          12 -15 11 11 -5 8 rrcurveto
          endchar
        </CharString>
        <CharString name="G">
          341 98 61 hstem
          171 64 517 52 vstem
          -104 callgsubr
          endchar
        </CharString>
        <CharString name="Gbreve">
          163 98 61 479 27 hstemhm
          171 64 264 258 -5 52 hintmask 10101000
          -104 callgsubr
          hintmask 01010000
          159 759 rmoveto
          -1 1 -5 2 -1 -5 -47 -27 callgsubr
        </CharString>
        <CharString name="Gcircumflex">
          163 98 61 470 113 hstemhm
          171 64 275 205 37 52 hintmask 10101000
          -104 callgsubr
          hintmask 01010000
          119 636 -25 callsubr
          -2 -74 -72 -17 -51 callgsubr
          16 -14 0 20 -6 9 rrcurveto
          endchar
        </CharString>
        <CharString name="Gcommaaccent">
          163 -231 175 154 61 hstemhm
          116 118 -63 64 517 52 hintmask 01011000
          -104 callgsubr
          hintmask 10100000
          -358 -101 rmoveto
          11 -10 21 -17 -5 -18 3 -13 -4 vhcurveto
          -8 -24 23 5 -11 -33 -9 -30 -18 -24 -18 -23 rrcurveto
          -13 -13 40 callsubr
          29 28 26 34 rrcurveto
          22 28 22 -23 callsubr
        </CharString>
        <CharString name="Gdotaccent">
          163 98 61 483 80 hstemhm
          171 64 349 78 90 52 hintmask 10101000
          -104 callgsubr
          hintmask 01010000
          70 679 rmoveto
          20 7 28 -44 -35 vhcurveto
          -6 -5 -35 -31 -5 vvcurveto
          -22 26 0 17 12 23 38 12 vhcurveto
          endchar
        </CharString>
        <CharString name="H">
          293 182 38 522 -20 hstem
          -103 55 632 50 1 45 vstem
          14 callsubr
          41 4 50 16 39 35 -16 -51 -19 -60 -23 -61 -43 callsubr
          rrcurveto
          -89 callgsubr
          65 29 108 234 73 -1 callsubr
          -52 -65 -87 -32 -3 hvcurveto
          3 -6 3 -9 -11 -26 9 callsubr
          48 110 37 107 26 63 4 19 -64 -4 -3 -15 -32 -71 -68 -61 -58 -6 rrcurveto
          endchar
        </CharString>
        <CharString name="Hbar">
          71 182 38 212 42 268 -20 hstemhm
          -103 55 339 511 -218 50 1 45 hintmask 11110110
          14 callsubr
          24 3 28 6 27 13 rrcurveto
          17 hlineto
          23 hlineto
          -14 -44 -15 -48 -18 -47 -43 callsubr
          -89 callgsubr
          17 39 45 100 50 74 rrcurveto
          hintmask 11111000
          27 2 23 4 7 vvcurveto
          -1 3 -12 4 -20 2 rrcurveto
          38 28 28 26 25 -1 callsubr
          -44 -52 -59 -39 -18 hvcurveto
          -5 hlineto
          -63 -112 -1 -76 hhcurveto
          36 92 4 19 -64 -4 -3 -15 rlinecurve
          -17 -37 -26 -34 -30 -26 -22 -6 -20 -12 2 -8 -15 -9 -15 -5 -15 -1 rrcurveto
          430 -15 rmoveto
          9 callsubr
          23 52 20 51 17 45 268 9 rcurveline
          -7 -2 -8 -6 -15 vhcurveto
          endchar
        </CharString>
        <CharString name="Hcircumflex">
          71 182 38 387 112 23 -20 hstem
          -103 55 580 205 -153 50 1 45 vstem
          14 callsubr
          41 4 50 16 39 35 -16 -51 -19 -60 -23 -61 -43 callsubr
          rrcurveto
          -89 callgsubr
          65 29 108 234 73 -1 callsubr
          -52 -65 -87 -32 -3 hvcurveto
          3 -6 3 -9 -11 -26 9 callsubr
          48 110 37 107 26 63 4 19 -64 -4 -3 -15 -32 -71 -68 -61 -58 -6 rrcurveto
          488 200 rmoveto
          -18 27 -44 58 -18 7 -20 -1 -74 -73 -18 -13 -38 callgsubr
          26 32 32 callgsubr
          12 -61 callsubr
        </CharString>
        <CharString name="I">
          -28 253 41 hstem
          -65 74 488 49 vstem
          -99 callgsubr
          endchar
        </CharString>
        <CharString name="IJ">
          238 -107 65 295 41 hstem
          -65 74 276 56 156 -4 callgsubr
          35 -1 185 4 92 6 -35 -163 295 -22 173 476 9 25 78 14 15 -8 7 -3 4 12 -8 5 rrcurveto
          -11 6 -39 -5 -46 -11 19 63 20 87 24 58 23 -3 20 -4 15 -5 60 -20 -38 42 -15 7 -13 6 -16 5 -18 5 10 9 12 6 7 3 rrcurveto
          2 13 3 14 -16 hhcurveto
          -19 -17 -11 -18 -16 hvcurveto
          -80 14 -112 -4 -72 -33 -4 2 rcurveline
          -92 callgsubr
          312 447 rmoveto
          -27 -21 -18 -29 3 -36 rrcurveto
          -4 2 -7 -1 vvcurveto
          2 -47 53 -32 24 -5 10 -3 4 5 -11 8 -17 10 -41 12 -2 38 -5 94 172 32 123 -5 -40 -70 -28 -107 -16 -48 -130 -41 -113 -63 -90 -103 -23 -28 -17 -26 -10 -24 rrcurveto
          -37 -1 -48 -1 -51 1 -8 callsubr
          88 112 73 238 40 122 rrcurveto
          35 32 -4 -5 25 hvcurveto
          182 -235 rmoveto
          -38 -102 -52 -104 -69 -84 -100 -120 -95 30 21 94 8 5 16 15 -16 3 8 23 15 27 24 28 73 -24 callgsubr
          endchar
        </CharString>
        <CharString name="Iacute">
          -146 233 27 -7 41 286 -20 hstem
          -65 74 177 2 callsubr
          71 -93 callsubr
          27 204 -70 callgsubr
        </CharString>
        <CharString name="Ibreve">
          6 callsubr
          315 28 hstemhm
          -65 74 256 259 -27 49 hintmask 11101000
          -99 callgsubr
          277 675 rmoveto
          -1 1 -5 3 -45 callgsubr
          11 -5 -31 vhcurveto
          hintmask 11110000
          45 callsubr
          37 148 rrcurveto
          2 -2 47 callsubr
        </CharString>
        <CharString name="Icircumflex">
          6 callsubr
          309 112 hstem
          -65 74 253 205 30 -93 callsubr
          -19 135 -25 callsubr
          -1 -74 -73 -17 -14 -10 -8 -11 -25 30 18 31 22 26 26 20 callgsubr
          16 -13 0 20 -6 8 rrcurveto
          endchar
        </CharString>
        <CharString name="Idieresis">
          6 callsubr
          301 67 hstem
          -65 74 241 30 callgsubr
          22 -93 callsubr
          -154 173 rmoveto
          15 20 29 -32 -27 vhcurveto
          -5 -3 -43 -32 -58 callsubr
          29 -33 -27 vhcurveto
          -5 -3 -42 -32 4 callgsubr
        </CharString>
        <CharString name="Idotaccent">
          6 callsubr
          366 88 hstemhm
          -65 74 443 88 -43 49 hintmask 11101000
          -99 callgsubr
          hintmask 11110000
          300 647 rmoveto
          23 6 30 -47 -38 vhcurveto
          -7 -5 -40 -35 -5 vvcurveto
          -25 29 0 20 13 26 43 12 vhcurveto
          endchar
        </CharString>
        <CharString name="Igrave">
          6 callsubr
          301 112 hstem
          -65 74 251 177 60 -93 callsubr
          -35 138 -70 callsubr
          8 3 -5 hvcurveto
          endchar
        </CharString>
        <CharString name="Imacron">
          6 callsubr
          355 38 hstemhm
          -65 74 348 235 -95 49 hintmask 11101000
          -99 callgsubr
          299 590 rmoveto
          hintmask 11110000
          7 1 46 3 12 vvcurveto
          6 -1 -21 7 -33 -41 -85 -2 -22 hhcurveto
          -20 -35 -38 2 46 hvcurveto
          34 1 77 4 48 4 rrcurveto
          endchar
        </CharString>
        <CharString name="Iogonek">
          6 callsubr
          hstem
          -65 74 488 -4 callgsubr
          rrcurveto
          17 46 0 1 55 hvcurveto
          -38 -23 -53 -33 -45 -32 -35 callsubr
          43 40 47 22 37 30 94 2 100 4 10 5 6 4 26 22 -33 -2 -42 -3 -63 -2 -73 1 rrcurveto
          -8 callsubr
          -91 callsubr
          endchar
        </CharString>
        <CharString name="Itilde">
          6 callsubr
          374 45 hstemhm
          -65 74 327 269 -108 49 hintmask 11101000
          -99 callgsubr
          hintmask 11110000
          365 631 rmoveto
          2 49 callgsubr
          -27 8 -34 22 -20 7 -46 16 -34 -46 -30 -42 -2 -4 13 4 callsubr
          38 7 36 -22 44 callgsubr
        </CharString>
        <CharString name="J">
          116 -107 65 hstem
          -28 57 -84 callsubr
          endchar
        </CharString>
        <CharString name="Jcircumflex">
          -74 -107 65 659 112 hstem
          -28 57 428 205 -84 callsubr
          238 357 rmoveto
          -18 27 -44 58 -18 7 -20 -1 -74 -73 -18 -13 -38 callgsubr
          26 32 32 callgsubr
          12 -61 callsubr
        </CharString>
        <CharString name="K">
          101 -80 74 500 58 192 -20 hstem
          -148 42 437 44 vstem
          -86 callsubr
          endchar
        </CharString>
        <CharString name="Kcommaaccent">
          71 -251 175 -4 74 500 58 192 -20 hstemhm
          -148 42 190 117 130 44 hintmask 01111110
          -86 callsubr
          -40 -573 rmoveto
          hintmask 10111110
          -44 callsubr
          -4 vhcurveto
          -7 -24 22 5 -11 -33 -9 -30 -17 24 callgsubr
          7 5 29 28 26 34 rrcurveto
          23 28 -27 callsubr
        </CharString>
        <CharString name="L">
          56 24 51 83 54 hstem
          329 68 299 41 vstem
          -106 callsubr
          endchar
        </CharString>
        <CharString name="Lacute">
          13 24 51 83 54 61 27 320 -20 hstem
          329 68 -13 2 callsubr
          72 41 vstem
          -106 callsubr
          375 475 rmoveto
          7 7 0 17 -13 -81 callsubr
          121 58 22 17 rrcurveto
          endchar
        </CharString>
        <CharString name="Lcaron">
          13 24 51 83 54 333 57 callgsubr
          329 68 299 41 vstem
          -106 callsubr
          435 290 rmoveto
          12 15 callsubr
          18 5 -11 -34 -9 -28 -17 -25 -20 -23 rrcurveto
          -11 -12 -12 -14 -17 callgsubr
          12 7 vhcurveto
          7 5 29 30 27 33 rrcurveto
          23 27 20 32 13 vvcurveto
          endchar
        </CharString>
        <CharString name="Lcommaaccent">
          13 -340 175 189 51 83 54 hstem
          165 117 47 68 299 41 vstem
          -106 callsubr
          -53 -437 -48 callsubr
        </CharString>
        <CharString name="Ldot">
          13 24 51 25 62 -4 54 hstemhm
          329 68 70 60 169 41 hintmask 10111100
          -106 callsubr
          192 -101 -2 callgsubr
          hintmask 11011100
          -17 39 callgsubr
          29 10 vhcurveto
          endchar
        </CharString>
        <CharString name="Lslash">
          13 -22 20 hstem
          36 60 116 83 vstem
          412 62 rmoveto
          -34 -52 -53 -30 -95 hhcurveto
          -156 26 137 134 63 hvcurveto
          20 6 21 7 16 6 9 4 44 12 -4 13 -2 6 -23 0 -31 -8 -31 -7 rcurveline
          47 91 58 83 18 27 15 21 -2 0 -29 4 -54 -4 -15 -17 19 -34 -26 -32 -58 -88 -38 -69 -22 -6 -17 -5 -9 -1 -20 -5 -24 -46 45 13 25 8 rcurveline
          -8 -20 rlineto
          -115 -48 -17 -135 171 hhcurveto
          79 82 6 11 41 hvcurveto
          59 17 16 75 -40 -25 rrcurveto
          endchar
        </CharString>
        <CharString name="M">
          638 -161 41 28 44 80 93 hstem
          29 60 747 53 266 62 vstem
          927 492 rmoveto
          -63 -68 -67 -89 -53 -82 -37 -56 -28 -53 -34 -52 -21 -34 15 40 3 10 23 69 22 86 7 60 11 94 -26 106 -132 -8 -43 -2 -74 -50 -78 -66 69 171 rcurveline
          4 19 -64 -4 -5 -15 -30 -71 -70 -62 -57 -6 -15 -1 -2 -16 15 1 42 4 51 16 37 35 -38 -129 rcurveline
          -59 -54 -154 -156 -61 -96 -73 -116 109 -59 94 119 81 102 73 186 25 59 rrcurveto
          89 97 98 75 52 hhcurveto
          115 -45 -314 -119 -46 hvcurveto
          -5 -11 26 -60 20 44 24 50 46 77 50 74 64 94 71 90 54 46 40 35 24 -21 -18 -44 -29 -75 -97 -224 29 -103 17 -67 76 10 44 33 40 29 65 67 26 41 rrcurveto
          7 8 -14 7 -5 -7 -28 -38 -43 -42 -35 -29 -67 -52 -47 1 11 114 14 137 61 76 31 128 25 100 -82 14 -63 -65 rrcurveto
          -870 -453 rmoveto
          37 50 100 115 75 71 -25 -68 -82 -168 -48 -51 -78 -80 -44 45 65 86 rrcurveto
          endchar
        </CharString>
        <CharString name="N">
          327 53 35 151 24 hstem
          -53 35 452 52 13 47 vstem
          -98 callsubr
          endchar
        </CharString>
        <CharString name="Nacute">
          62 53 35 146 28 -23 24 319 -20 hstemhm
          -53 35 354 36 62 52 13 47 -5 35 hintmask 1010101100000000
          -98 callsubr
          hintmask 0101010010000000
          396 235 rmoveto
          8 6 -9 callgsubr
          -12 8 18 callgsubr
          -23 -11 -9 -42 -27 -2 -3 rrcurveto
          -3 -3 -5 -8 -72 callgsubr
        </CharString>
        <CharString name="Ncaron">
          62 53 35 151 24 334 112 hstemhm
          -53 35 452 52 -35 206 -158 47 hintmask 11011010
          -98 callsubr
          hintmask 00100100
          189 247 rmoveto
          19 -27 42 -58 20 -7 19 1 -23 callgsubr
        </CharString>
        <CharString name="Ncommaaccent">
          62 -271 175 149 35 151 24 hstemhm
          -53 35 245 118 89 52 13 47 hintmask 01110110
          -98 callsubr
          hintmask 10001000
          79 -570 42 callgsubr
          -24 22 5 -11 -33 -9 -30 -17 -24 -19 -23 rrcurveto
          -13 -13 -10 -13 -17 callgsubr
          12 8 vhcurveto
          7 5 29 28 26 34 rrcurveto
          23 28 -27 callsubr
        </CharString>
        <CharString name="Ntilde">
          62 53 35 151 24 419 45 hstemhm
          -53 35 445 269 -262 52 13 47 hintmask 00000000
          hintmask 11010110
          266 442 rmoveto
          -39 -35 -50 -17 -41 -3 -15 -2 1 17 15 2 58 6 70 62 30 71 5 15 64 4 -4 -19 -6 -15 -3 -38 -2 -18 rrcurveto
          -94 -14 34 -411 131 hhcurveto
          129 91 397 123 -21 hvcurveto
          -7 36 -10 22 -10 29 -2 5 16 13 5 1 rrcurveto
          43 21 -90 -31 34 hvcurveto
          -10 11 6 -2 8 3 4 3 5 hhcurveto
          8 2 -4 -6 1 hvcurveto
          -11 -12 -8 -10 -1 vhcurveto
          -8 -7 2 4 -6 hvcurveto
          -17 8 -13 10 -13 11 rrcurveto
          -178 13 -130 -357 -142 hhcurveto
          -158 -38 272 178 hvcurveto
          -41 -108 -38 -92 -53 -98 -60 -106 -69 -89 -75 -23 -31 -10 -27 0 -22 6 -26 9 -18 17 -7 30 -5 16 11 24 10 -36 5 -18 11 -11 19 -5 16 -5 28 -2 20 7 rrcurveto
          75 23 62 81 53 97 58 112 37 115 37 125 rrcurveto
          hintmask 00101000
          430 271 rmoveto
          3 5 -17 4 -3 -7 -12 -31 -18 -7 -30 8 35 callgsubr
          -3 14 -5 3 5 12 17 17 13 21 5 38 7 36 -22 38 -14 60 callsubr
        </CharString>
        <CharString name="O">
          248 -131 39 670 31 hstem
          96 43 433 49 vstem
          -90 callgsubr
          endchar
        </CharString>
        <CharString name="OE">
          1042 endchar
        </CharString>
        <CharString name="Oacute">
          156 -131 39 321 28 320 -20 21 31 hstemhm
          96 43 70 2 callsubr
          123 49 hintmask 00000000
          hintmask 10011001
          -95 callsubr
          hintmask 01100110
          -127 360 -79 callsubr
        </CharString>
        <CharString name="Obreve">
          -33 callgsubr
          24 27 hstemhm
          96 43 291 259 -117 49 hintmask 11010100
          -90 callgsubr
          hintmask 00101000
          -35 430 rmoveto
          -1 1 -5 2 -1 -5 -46 -5 callgsubr
          17 2 113 rrcurveto
          17 15 callgsubr
          37 147 rrcurveto
          3 -2 47 callsubr
        </CharString>
        <CharString name="Ocircumflex">
          -33 callgsubr
          -5 113 hstemhm
          96 43 183 205 45 49 hintmask 00000000
          hintmask 11010100
          -95 callsubr
          hintmask 00101000
          -106 302 -25 callsubr
          -2 -74 -72 -17 -51 callgsubr
          16 -14 0 20 -6 9 rrcurveto
          endchar
        </CharString>
        <CharString name="Odieresis">
          -33 callgsubr
          38 66 hstemhm
          96 43 267 66 93 66 -59 49 hintmask 00000000
          hintmask 11111010
          -95 callsubr
          -251 348 rmoveto
          43 callsubr
          -16 39 callgsubr
          28 51 callgsubr
          hintmask 11111100
          -5 -4 -42 -31 -5 vvcurveto
          -16 19 0 15 7 19 28 10 vhcurveto
          endchar
        </CharString>
        <CharString name="Ograve">
          -33 callgsubr
          -14 112 hstemhm
          96 43 170 177 86 49 hintmask 00000000
          hintmask 11010100
          -95 callsubr
          hintmask 00101000
          -142 306 -70 callsubr
          8 3 -5 hvcurveto
          endchar
        </CharString>
        <CharString name="Ohungarumlaut">
          -33 callgsubr
          21 170 hstemhm
          96 43 265 213 -45 49 hintmask 11010100
          -90 callgsubr
          hintmask 00101000
          -125 400 rmoveto
          15 9 38 48 -37 hhcurveto
          -45 8 -25 -33 -11 hvcurveto
          -4 -8 -20 -62 -11 -25 -9 -18 14 -6 11 20 22 40 20 27 15 27 rrcurveto
          -112 hmoveto
          15 9 38 48 -37 hhcurveto
          -44 6 -25 -33 -11 hvcurveto
          -2 -8 -20 -62 -13 -25 -9 -18 15 -6 12 20 22 40 19 27 15 27 rrcurveto
          endchar
        </CharString>
        <CharString name="Omacron">
          -33 callgsubr
          39 37 hstemhm
          96 43 262 235 -64 49 hintmask 11010100
          -90 callgsubr
          hintmask 00101000
          -135 320 rmoveto
          8 1 5 callgsubr
          -41 -85 -1 -23 hhcurveto
          -20 -35 -39 3 47 hvcurveto
          33 1 78 4 47 4 rrcurveto
          endchar
        </CharString>
        <CharString name="Omega">
          -80 callgsubr
        </CharString>
        <CharString name="Oslash">
          156 -37 27 247 13 170 33 66 24 hstem
          61 38 -19 30 476 34 vstem
          569 527 rmoveto
          -28 -33 1 -1 80 -64 23 -117 -53 -118 rlinecurve
          -58 -134 -130 -105 -153 8 -31 1 -26 8 -23 10 -17 -28 rcurveline
          -12 -20 -33 -7 6 18 4 9 10 19 16 25 -69 51 -12 100 36 94 -18 7 -12 15 -5 22 -21 97 88 93 82 33 86 37 126 12 88 -47 6 8 6 8 4 2 rrcurveto
          14 14 40 -2 -15 -15 rrcurveto
          -39 -47 rmoveto
          -86 -105 -164 -216 -98 -157 rrcurveto
          -7 18 21 -3 25 hhcurveto
          121 135 105 126 54 hvcurveto
          48 114 -4 96 -66 45 rrcurveto
          -377 -461 rmoveto
          65 100 127 176 87 119 rrcurveto
          6 -11 -16 2 -12 hhcurveto
          -78 -89 -52 -71 -58 hvcurveto
          -11 -14 -9 -15 -8 -15 rrcurveto
          -1 2 4 0 2 hhcurveto
          13 -2 1 -6 -14 -4 rrcurveto
          -1 -5 -6 -1 -5 hhcurveto
          -35 -79 -5 -97 61 -45 rrcurveto
          294 415 rmoveto
          50 66 -142 69 -273 -95 14 -174 rlinecurve
          1 -11 3 -10 7 -8 16 35 24 34 30 29 51 48 103 45 71 -7 19 -1 17 -8 9 -12 rrcurveto
          endchar
        </CharString>
        <CharString name="Oslashacute">
          156 -131 39 37 645 -322 27 283 31 6 -20 hstemhm
          96 43 -22 530 -303 36 192 49 hintmask 1011010110000000
          642 577 rmoveto
          17 18 -45 2 -19 -17 -18 -17 rcurveline
          hintmask 1100110110000000
          17 -40 -46 10 -51 hhcurveto
          -78 -1 -93 -31 -67 -48 -92 -66 -65 -99 1 -100 rrcurveto
          -18 16 -20 2 23 vhcurveto
          7 95 71 102 90 63 53 38 76 32 76 5 49 4 43 -6 35 -16 -23 -27 -32 -37 -37 -45 -5 6 rcurveline
          -32 33 -55 -2 -39 -8 -239 -57 -55 -265 98 -141 rrcurveto
          hintmask 1011001000000000
          -15 -21 -10 -16 -3 -9 -8 -21 41 8 14 23 5 7 rcurveline
          47 -48 74 -25 95 22 rrcurveto
          156 36 176 167 210 vvcurveto
          95 -41 70 -65 42 vhcurveto
          56 -171 rmoveto
          4 -174 -161 -221 -136 -31 -97 -23 -62 24 -36 45 115 179 198 240 105 116 43 -31 25 -53 2 -71 rrcurveto
          -271 65 rmoveto
          18 4 25 -2 20 -7 7 -4 rcurveline
          -102 -127 -135 -177 -69 -98 -55 131 97 234 194 46 rrcurveto
          274 272 rmoveto
          7 7 0 17 -13 -81 callsubr
          121 58 22 17 rrcurveto
          endchar
        </CharString>
        <CharString name="Otilde">
          -33 callgsubr
          26 45 hstemhm
          96 43 165 268 0 49 hintmask 00000000
          hintmask 11010100
          -95 callsubr
          hintmask 00101000
          -43 376 -52 callsubr
        </CharString>
        <CharString name="P">
          81 -96 25 261 64 405 44 hstem
          87 47 vstem
          201 210 rmoveto
          -27 3 12 -18 11 -1 rrcurveto
          -1 5 7 0 6 hhcurveto
          -45 -85 -45 -96 5 -38 rrcurveto
          -7 1 33 -5 5 hhcurveto
          27 28 48 22 15 hvcurveto
          1 1 17 20 -5 38 callgsubr
          -15 -18 -23 -27 -33 -4 23 57 13 30 25 54 32 58 55 1 72 6 63 14 128 29 140 63 9 110 5 58 -45 57 -78 27 rrcurveto
          -141 45 -180 -22 -101 -48 -55 -28 -80 -52 -12 -63 rrcurveto
          -5 2 -10 -1 vvcurveto
          -13 -61 65 -39 31 -5 13 -3 6 8 -12 9 -20 12 -53 13 8 48 27 163 356 49 162 -45 101 -30 14 -77 -59 -61 -86 -89 -179 -50 -134 -6 rrcurveto
          113 64 82 122 59 hhcurveto
          5 11 -10 16 -3 hvcurveto
          24 -8 -40 10 -10 hhcurveto
          -52 -72 -86 -33 -5 hvcurveto
          2 -6 3 -10 -12 -25 -11 -21 -25 -44 -27 -50 rrcurveto
          -7 -8 0 1 -6 hvcurveto
          endchar
        </CharString>
        <CharString name="Q">
          212 -71 30 649 37 hstem
          141 49 434 42 vstem
          317 29 rmoveto
          88 15 92 49 68 104 121 187 -57 264 -252 -56 rrcurveto
          -155 -35 -177 -160 -204 vvcurveto
          -156 117 -90 162 1 vhcurveto
          27 26 4 7 27 hvcurveto
          112 -79 133 -121 176 15 80 6 45 47 2 47 rrcurveto
          25 -1 26 -15 29 vhcurveto
          -7 16 -22 -2 10 -18 40 -77 -92 -41 -61 -5 -143 -13 -127 84 -108 69 166 61 134 200 9 167 5 99 -36 81 -97 14 -18 3 -15 -17 28 -2 98 -9 16 -117 -30 -120 rrcurveto
          -37 -150 -110 -147 -142 -45 -53 33 rcurveline
          -5 2 -15 5 -7 4 rrcurveto
          58 -50 rmoveto
          -16 -4 -17 -2 -16 -1 -136 -10 -91 63 -4 133 -4 167 161 214 138 31 336 77 -137 -515 -282 -83 rrcurveto
          -30 -32 6 -11 hhcurveto
          -37 -2 0 -43 34 -3 16 -2 35 10 15 4 25 -9 27 -13 26 -18 rrcurveto
          endchar
        </CharString>
        <CharString name="R">
          81 -218 67 810 44 hstem
          55 44 vstem
          -105 callgsubr
          endchar
        </CharString>
        <CharString name="Racute">
          37 -218 67 410 28 320 -20 72 44 hstemhm
          55 44 195 2 callsubr
          hintmask 10011000
          -105 callgsubr
          hintmask 01100110
          340 509 -79 callsubr
        </CharString>
        <CharString name="Rcaron">
          37 -218 67 770 113 -73 44 hstemhm
          55 44 313 207 hintmask 10110000
          -105 callgsubr
          hintmask 01001000
          136 519 37 callgsubr
          1 74 73 17 14 12 8 10 25 -29 -18 -33 -22 -25 -25 -32 -20 -11 13 -60 47 -13 12 -68 callgsubr
        </CharString>
        <CharString name="Rcommaaccent">
          37 -251 175 -142 67 810 44 hstemhm
          55 44 91 117 hintmask 01110000
          -105 callgsubr
          hintmask 10001000
          27 -52 callgsubr
        </CharString>
        <CharString name="S">
          134 -96 48 671 52 hstem
          -38 35 458 75 139 58 vstem
          -96 callgsubr
          endchar
        </CharString>
        <CharString name="Sacute">
          74 -96 48 308 28 320 -20 35 52 hstemhm
          -38 35 347 36 75 75 19 35 85 58 hintmask 1001101010000000
          -96 callgsubr
          hintmask 0110010100000000
          25 175 rmoveto
          7 6 0 18 -13 8 -5 2 -13 7 -11 -5 -19 -25 -30 -16 -26 -23 -11 -8 -43 -28 -1 -2 rrcurveto
          -4 -4 -5 -8 13 hhcurveto
          17 2 121 57 22 18 rrcurveto
          endchar
        </CharString>
        <CharString name="Scaron">
          74 -96 48 668 113 -110 52 hstemhm
          -38 35 458 75 -51 206 -16 58 hintmask 10111010
          -96 callgsubr
          hintmask 01000100
          -163 185 rmoveto
          19 -28 43 -57 20 -8 18 2 74 72 18 14 11 9 10 25 -29 -19 -32 -21 -25 -25 -33 -65 callgsubr
        </CharString>
        <CharString name="Scedilla">
          74 -326 24 161 24 21 48 671 52 hstemhm
          -61 30 -7 35 213 35 210 75 139 58 hintmask 1111101110000000
          -16 -272 rmoveto
          53 41 callgsubr
          6 11 39 49 9 16 116 8 156 61 90 86 rrcurveto
          30 30 16 29 28 vvcurveto
          105 -196 43 -96 45 vhcurveto
          -61 29 12 31 80 44 rrcurveto
          40 73 93 14 37 hhcurveto
          50 35 -14 -29 hvcurveto
          -27 -44 -31 -5 vvcurveto
          -20 37 27 15 28 vhcurveto
          13 21 5 12 18 vvcurveto
          37 -36 18 -74 -88 -233 -59 -110 -129 431 9 -101 -154 vhcurveto
          -29 -45 -85 -42 -73 -24 rrcurveto
          -10 -30 -78 -19 -68 hhcurveto
          -130 -21 87 80 89 hvcurveto
          41 45 65 26 48 23 10 15 -31 hhcurveto
          -53 -64 -20 -35 -51 hvcurveto
          -56 -36 -41 -53 -61 vvcurveto
          -56 50 -31 87 -3 vhcurveto
          -10 -21 -27 -48 -12 -16 -18 -25 25 6 36 8 rrcurveto
          40 9 25 -23 -31 vvcurveto
          hintmask 1111011110000000
          48 callsubr
          13 -22 rrcurveto
          endchar
        </CharString>
        <CharString name="Scircumflex">
          74 -96 48 662 113 -104 52 hstemhm
          -38 35 440 205 -187 75 139 58 hintmask 10110110
          -96 callgsubr
          hintmask 01001000
          -6 106 rmoveto
          -78 callgsubr
        </CharString>
        <CharString name="Scommaaccent">
          74 -265 175 -6 48 671 52 hstemhm
          -38 35 99 118 241 75 139 58 hintmask 01110110
          -96 callgsubr
          hintmask 10001000
          -431 -650 -76 callsubr
        </CharString>
        <CharString name="T">
          -122 -120 25 722 56 hstem
          382 45 800 44 vstem
          -97 callsubr
          endchar
        </CharString>
        <CharString name="Tbar">
          -207 -120 25 397 37 288 56 hstemhm
          214 235 -67 45 800 44 hintmask 11101100
          664 365 rmoveto
          -24 37 32 50 35 35 20 20 22 12 10 10 22 24 -26 17 -25 -5 -10 -1 -13 -10 -18 -20 -75 1 -174 44 -154 -10 -129 -9 -121 -47 -21 -100 rrcurveto
          -1 -5 0 -10 -1 vvcurveto
          -22 -59 64 -46 34 -10 12 -4 9 7 -12 9 -20 15 -52 19 12 49 18 83 107 53 120 16 126 19 136 -26 130 -3 -6 -6 -13 -15 -5 -9 -22 -45 1 -70 13 -14 rrcurveto
          13 -16 13 13 -6 8 rrcurveto
          -269 -55 rmoveto
          hintmask 11110100
          7 2 47 -19 callgsubr
          -2 -21 6 -32 hhcurveto
          -30 hlineto
          60 43 44 45 36 hhcurveto
          4 5 -2 -3 4 hvcurveto
          31 4 -50 14 -13 hhcurveto
          -52 -70 -86 -33 -7 hvcurveto
          2 -5 3 -7 -5 -15 rrcurveto
          -67 hlineto
          -20 -35 -39 3 46 hvcurveto
          14 22 1 1 24 hvcurveto
          -42 -79 -112 -193 9 -58 rrcurveto
          -7 1 32 -5 6 hhcurveto
          27 27 48 22 16 hvcurveto
          1 1 18 20 -7 38 callgsubr
          -14 -18 -22 -27 -34 -4 24 57 21 50 55 114 61 93 rrcurveto
          endchar
        </CharString>
        <CharString name="Tcaron">
          -207 -120 25 702 112 -92 56 hstemhm
          382 45 -13 206 607 44 hintmask 10110100
          -97 callsubr
          hintmask 01001000
          -247 334 60 callgsubr
          72 18 14 11 9 10 25 -29 -19 -32 -21 -25 -25 -33 -65 callgsubr
        </CharString>
        <CharString name="Tcedila">
          -207 -270 175 -25 25 722 56 hstemhm
          56 118 208 45 800 44 hintmask 01101100
          -97 callsubr
          hintmask 10010000
          -490 -492 -76 callsubr
        </CharString>
        <CharString name="Tcommaaccent">
          -207 -272 175 -23 25 722 56 hstemhm
          56 118 208 45 800 44 hintmask 01101100
          -97 callsubr
          hintmask 10010000
          -490 -495 rmoveto
          12 -10 21 -17 -5 -18 2 -12 -4 vhcurveto
          -8 -24 23 5 -11 -34 -9 -30 -18 -23 -18 -23 rrcurveto
          -13 52 callsubr
          8 5 29 29 26 34 rrcurveto
          22 27 22 32 13 vvcurveto
          endchar
        </CharString>
        <CharString name="Thorn">
          -4 197 20 302 26 hstem
          504 38 vstem
          414 174 rmoveto
          148 70 7 168 -165 47 rrcurveto
          13 -45 -49 6 -46 hhcurveto
          46 91 7 15 -51 18 -10 -10 rlinecurve
          -9 -10 -20 -47 -26 -61 -110 -11 -86 -43 7 -43 2 -9 7 4 4 2 36 19 56 26 68 18 -69 -165 -89 -239 3 -39 2 -14 30 8 7 6 25 136 81 173 72 145 rrcurveto
          40 5 42 0 42 -8 249 -47 -199 -229 -189 -20 -30 -2 -25 1 -17 4 -11 2 -5 -15 15 -5 61 -20 134 31 60 29 rrcurveto
          endchar
        </CharString>
        <CharString name="U">
          68 14 callgsubr
          -107 callgsubr
          endchar
        </CharString>
        <CharString name="Uacute">
          16 -125 63 291 28 -8 30 298 -20 178 -30 callgsubr
          -38 2 callsubr
          188 65 hintmask 0000000000000000
          hintmask 1010111001000000
          -100 callsubr
          hintmask 0101000110000000
          59 188 -79 callsubr
        </CharString>
        <CharString name="Ubreve">
          -30 callsubr
          323 27 106 -30 callgsubr
          59 259 72 65 hintmask 11011101
          -107 callgsubr
          hintmask 00100010
          108 512 rmoveto
          -2 2 -5 2 -45 callgsubr
          12 -5 -32 vhcurveto
          -25 -167 247 5 callsubr
          2 vhcurveto
          endchar
        </CharString>
        <CharString name="Ucircumflex">
          -30 callsubr
          324 112 20 -30 callgsubr
          73 205 112 65 hintmask 00000000
          hintmask 11011101
          -100 callsubr
          hintmask 00100010
          45 139 -22 callsubr
          -74 -72 -17 -14 -69 callsubr
        </CharString>
        <CharString name="Udieresis">
          -30 callsubr
          366 67 23 -30 callgsubr
          168 66 93 66 -3 65 hintmask 0000000000000000
          hintmask 1111111010000000
          -100 callsubr
          -1 200 rmoveto
          15 20 29 -33 -26 vhcurveto
          -5 -4 -42 -31 -5 vvcurveto
          -17 20 0 14 8 18 29 51 callgsubr
          hintmask 1111111100000000
          -5 -4 -42 -31 -5 vvcurveto
          -17 25 callgsubr
        </CharString>
        <CharString name="Ugrave">
          -30 callsubr
          316 112 28 -30 callgsubr
          62 177 151 65 hintmask 00000000
          hintmask 11011101
          -100 callsubr
          hintmask 00100010
          5 123 -25 callgsubr
          -7 -36 -12 44 -30 14 -8 rrcurveto
          -23 42 78 -37 13 hhcurveto
          13 -4 9 3 -5 hvcurveto
          endchar
        </CharString>
        <CharString name="Uhungarumlaut">
          -30 callsubr
          319 170 -33 -30 callgsubr
          89 214 87 65 hintmask 11011101
          -107 callgsubr
          hintmask 00100010
          74 481 rmoveto
          15 9 37 49 -36 hhcurveto
          -45 7 -25 -34 -11 hvcurveto
          -4 -7 -20 -63 -11 -25 -9 -17 14 -7 11 20 23 40 20 28 15 26 rrcurveto
          -113 hmoveto
          15 9 39 49 -38 hhcurveto
          -43 6 -25 -34 -11 hvcurveto
          -3 -7 -20 -63 -12 -25 -9 -17 15 -7 11 20 23 40 18 28 15 26 rrcurveto
          endchar
        </CharString>
        <CharString name="Umacron">
          -30 callsubr
          358 37 61 -30 callgsubr
          123 235 32 65 hintmask 11011101
          -107 callgsubr
          hintmask 00100010
          100 422 rmoveto
          8 2 46 -7 callgsubr
          -22 6 -32 -41 -85 -1 -23 hhcurveto
          -20 -29 callgsubr
          78 4 47 3 rrcurveto
          endchar
        </CharString>
        <CharString name="Uogonek">
          16 14 callgsubr
          117 -178 26 callsubr
          47 44 53 21 37 35 83 16 82 69 67 64 -13 -87 -4 -81 8 -57 9 -54 20 -43 45 -1 20 -1 32 7 11 14 rrcurveto
          7 6 3 8 3 5 4 14 -8 3 -10 -10 -5 -5 -4 -5 -3 -5 -15 -17 -20 6 -14 15 -23 28 -11 50 1 68 2 49 6 78 10 52 72 94 125 124 35 117 rrcurveto
          14 46 -6 50 -63 4 -60 5 -43 -46 -33 -69 -32 -66 -35 -131 -20 -129 rrcurveto
          -66 -68 -104 -89 -70 -65 callsubr
          137 148 240 22 37 7 18 -65 -3 -5 -15 -18 -33 -135 -120 -57 -6 -15 -1 -3 -17 15 2 41 3 50 29 45 38 23 18 9 -1 -8 -17 -47 -117 -105 -163 16 -119 rrcurveto
          6 -45 26 -19 32 -1 -38 -24 -57 -36 -49 -34 -13 callsubr
          334 401 rmoveto
          25 129 35 111 74 82 44 48 21 -29 -14 -54 -26 -96 -89 -125 -70 -66 rrcurveto
          endchar
        </CharString>
        <CharString name="Uring">
          -30 callsubr
          456 48 10 14 38 15 hstemhm
          -3 73 119 58 155 27 63 20 125 65 hintmask 1110011001000000
          -107 callgsubr
          hintmask 0001100110000000
          13 424 rmoveto
          -18 -7 -23 -5 callsubr
          -29 11 -27 -23 54 callsubr
          -12 -22 -3 -14 -3 -26 13 -18 22 -8 22 -9 33 1 23 15 rrcurveto
          25 18 19 25 26 vvcurveto
          endchar
        </CharString>
        <CharString name="Utilde">
          -30 callsubr
          381 45 30 -30 callgsubr
          100 269 21 65 hintmask 11011101
          -107 callgsubr
          hintmask 00100010
          165 469 rmoveto
          3 5 -17 3 -3 -6 -12 -31 -18 -8 -30 9 35 callgsubr
          -4 14 -5 3 5 12 18 17 12 21 5 38 8 36 -23 38 -13 60 callsubr
        </CharString>
        <CharString name="V">
          156 235 35 459 29 hstem
          59 67 448 56 vstem
          302 579 rmoveto
          3 -4 1 -3 1 -5 -130 8 -163 -35 6 -111 rrcurveto
          -4 4 -7 -1 vvcurveto
          1 -47 54 -32 23 -5 10 -3 4 5 -11 8 -16 10 -42 12 -2 38 rrcurveto
          86 -5 146 35 119 hhcurveto
          -11 -54 -34 -80 -29 -68 -34 -82 -40 -87 -27 -79 -25 -75 1 -69 99 -1 59 -1 58 29 59 46 75 59 74 86 69 87 rrcurveto
          169 131 107 171 58 2 5 -1 4 hhcurveto
          3 6 6 5 -9 hvcurveto
          -55 30 -77 -57 -32 -39 -63 -77 -47 -88 -55 -87 -60 -95 -58 -78 -92 -69 -87 -66 -106 -50 11 113 9 85 45 106 41 96 31 71 21 87 3 57 36 -1 31 -5 22 -8 rrcurveto
          60 -20 -39 42 -16 7 -24 11 -34 9 -37 5 -5 14 rcurveline
          -14 24 -21 -9 8 -14 rrcurveto
          endchar
        </CharString>
        <CharString name="W">
          552 92 50 452 44 7 50 hstem
          -4 60 543 61 2 48 440 51 vstem
          -103 callsubr
          endchar
        </CharString>
        <CharString name="Wacute">
          352 92 50 102 28 320 -20 22 44 7 50 hstem
          -4 60 391 37 115 61 -8 35 -25 48 440 51 vstem
          -103 callsubr
          162 389 rmoveto
          7 6 -2 callsubr
          -16 -26 -23 -12 -9 -42 39 callsubr
          -3 -4 -5 -8 -72 callgsubr
        </CharString>
        <CharString name="Wcircumflex">
          54 callgsubr
          -36 112 -69 50 hstemhm
          -4 60 543 61 2 48 440 51 hintmask 11011111
          -103 callsubr
          149 324 rmoveto
          hintmask 10101111
          -10 callsubr
          -74 -73 -17 -13 -69 callsubr
        </CharString>
        <CharString name="Wdieresis">
          54 callgsubr
          -10 66 -49 50 hstemhm
          -4 60 490 66 -13 61 2 48 -5 66 379 51 hintmask 1101110101000000
          -103 callsubr
          -6 369 rmoveto
          29 callsubr
          -5 -4 -43 -31 -5 vvcurveto
          hintmask 1010101101000000
          -34 callgsubr
          28 -33 -26 vhcurveto
          hintmask 1101101011000000
          -5 -4 -42 -31 -5 vvcurveto
          hintmask 1010101101000000
          -12 callgsubr
        </CharString>
        <CharString name="Wgrave">
          54 callgsubr
          -30 111 -74 50 hstemhm
          -4 60 508 177 -142 61 2 48 440 51 hintmask 1101101110000000
          612 298 rmoveto
          28 56 4 60 -2 41 -3 88 -64 -79 -4 -25 -7 -42 0 -65 2 -40 -77 -109 -102 -101 -111 -77 -110 -73 -116 -48 42 123 30 88 74 110 68 100 48 72 47 86 20 57 rrcurveto
          17 -2 15 -4 13 -4 60 -20 -39 42 -16 7 -12 5 -13 5 -15 4 2 11 0 9 -1 6 -9 24 -24 -8 7 -13 2 -5 0 -8 -2 -10 -132 26 -218 -27 6 -129 rrcurveto
          -4 4 -7 -1 vvcurveto
          1 -47 54 -32 23 -5 10 -3 4 5 -11 8 -16 10 -42 12 -2 38 -5 97 186 32 123 -9 -28 -55 -57 -81 -48 -69 -56 -85 -64 -90 -47 -81 -47 -79 -15 -71 103 -3 rrcurveto
          72 -1 72 34 67 50 rrcurveto
          hintmask 1101110010000000
          89 62 110 106 64 80 rrcurveto
          -155 -10 90 -126 103 hhcurveto
          207 -2 125 460 -168 108 -49 33 -67 -4 -64 -46 -11 -8 15 -13 11 7 14 10 15 6 15 2 41 6 35 -14 24 -25 116 -124 -77 -356 -150 -2 -90 -3 -79 149 2 155 rrcurveto
          124 321 -25 callgsubr
          -6 rrcurveto
          hintmask 1101101110000000
          -36 -13 44 -30 14 -7 rrcurveto
          hintmask 1010101110000000
          -24 42 78 -36 13 hhcurveto
          13 -4 1 callsubr
        </CharString>
        <CharString name="X">
          222 -196 0 vstem
          420 522 rmoveto
          60 -22 -39 42 -15 8 -21 9 rcurveline
          13 -5 12 -11 -1 vhcurveto
          -8 -1 -7 -5 -7 -8 -131 26 -225 -25 6 -131 rrcurveto
          -4 4 -7 -1 vvcurveto
          -45 55 -33 24 -6 vhcurveto
          10 -1 11 6 -11 6 -16 11 -50 10 -2 38 -5 100 192 30 122 -10 -2 -8 -2 -8 -1 -7 -11 -106 6 -115 33 -102 -122 -129 -276 -244 -139 88 -18 12 -10 16 1 23 rrcurveto
          1 44 -21 -23 -20 vvcurveto
          -1 -36 12 -26 26 -19 168 -116 264 258 126 138 15 -41 20 -39 26 -35 50 -68 49 -20 81 60 46 34 62 73 11 23 5 10 -13 5 -5 -7 -13 -20 -32 -34 -33 -30 rrcurveto
          -83 -76 -36 16 -48 79 -21 35 -19 42 -15 48 99 114 94 131 75 114 10 17 -20 10 -10 -12 -69 -88 -87 -132 -102 -120 -23 91 -10 102 11 92 rrcurveto
          endchar
        </CharString>
        <CharString name="Y">
          68 217 48 3 44 393 44 hstem
          30 59 61 61 vstem
          -106 callgsubr
          endchar
        </CharString>
        <CharString name="Yacute">
          68 217 48 -15 28 -10 44 286 -20 127 44 hstemhm
          30 59 61 61 64 2 callsubr
          hintmask 1010111000000000
          -106 callgsubr
          hintmask 0101000110000000
          205 680 61 callsubr
          18 -14 8 -5 2 -13 7 -11 -5 -19 -25 -30 -16 -26 -23 -11 -8 -43 -28 -1 -2 rrcurveto
          -4 -4 -5 -8 13 hhcurveto
          17 2 122 25 callsubr
        </CharString>
        <CharString name="Ycircumflex">
          -148 217 48 3 44 296 112 -15 44 hstemhm
          30 59 61 61 159 205 hintmask 11011100
          -106 callgsubr
          hintmask 00100010
          175 615 -22 callsubr
          -74 -72 -17 -14 -69 callsubr
        </CharString>
        <CharString name="Ydieresis">
          68 217 48 3 44 321 66 6 44 hstem
          30 59 61 61 120 30 callgsubr
          vstem
          -106 callgsubr
          -5 659 rmoveto
          29 callsubr
          -5 -4 -43 -31 -5 vvcurveto
          -16 20 0 14 9 17 13 callgsubr
          19 0 15 7 19 29 10 vhcurveto
          endchar
        </CharString>
        <CharString name="Ygrave">
          -148 217 48 3 44 280 111 2 44 hstemhm
          30 59 61 61 138 177 hintmask 11011100
          -106 callgsubr
          hintmask 00100010
          125 590 -15 callgsubr
          8 3 -5 hvcurveto
          endchar
        </CharString>
        <CharString name="Z">
          66 138 65 862 102 hstem
          44 120 452 -101 callsubr
          endchar
        </CharString>
        <CharString name="Zacute">
          91 138 65 69 27 320 -20 466 102 hstem
          44 120 135 2 callsubr
          77 -101 callsubr
          -4 172 rmoveto
          7 6 0 18 -13 -53 callsubr
          121 57 22 18 rrcurveto
          endchar
        </CharString>
        <CharString name="Zcaron">
          91 138 65 437 113 312 102 hstem
          44 120 292 206 -46 -101 callsubr
          -169 191 37 callgsubr
          2 -23 callgsubr
        </CharString>
        <CharString name="Zdotaccent">
          91 138 65 444 91 327 102 hstem
          44 120 315 91 46 -101 callsubr
          -59 161 rmoveto
          24 6 32 -49 -39 vhcurveto
          -7 -6 -41 -36 -6 vvcurveto
          -25 30 0 20 13 28 43 13 vhcurveto
          endchar
        </CharString>
        <CharString name="a">
          -20 callgsubr
          hstem
          -102 callsubr
          endchar
        </CharString>
        <CharString name="aacute">
          -1 -22 25 -4 28 250 30 40 -20 hstemhm
          134 2 callsubr
          hintmask 10100000
          -102 callsubr
          hintmask 01011100
          370 453 -79 callsubr
        </CharString>
        <CharString name="abreve">
          -20 callgsubr
          53 28 hstemhm
          249 258 hintmask 11000000
          -102 callsubr
          hintmask 00110000
          411 505 -42 callsubr
          -167 246 28 36 148 rrcurveto
          2 -1 7 -5 2 vhcurveto
          endchar
        </CharString>
        <CharString name="acircumflex">
          -20 callgsubr
          45 112 hstemhm
          215 205 hintmask 11000000
          -102 callsubr
          hintmask 00110000
          326 383 -22 callsubr
          -74 -73 -17 -13 -69 callsubr
        </CharString>
        <CharString name="acute">
          -277 -77 27 320 -20 hstem
          -3 37 168 35 vstem
          324 365 -71 callsubr
        </CharString>
        <CharString name="adieresis">
          -20 callgsubr
          57 66 hstem
          205 30 callgsubr
          cntrmask 00011100
          -88 callgsubr
          175 414 rmoveto
          15 20 29 -33 -27 vhcurveto
          -5 -3 -42 -32 -5 vvcurveto
          -16 20 0 14 8 18 58 callsubr
          -27 vhcurveto
          -5 -3 -42 -32 -5 vvcurveto
          -16 25 callgsubr
        </CharString>
        <CharString name="ae">
          107 -28 21 -4 18 93 14 146 32 -28 26 hstemhm
          11 45 211 52 223 28 hintmask 00000000
          hintmask 10110111
          -78 callsubr
          hintmask 10101111
          46 52 21 callgsubr
          -2 -17 11 hvcurveto
          5 -2 1 0 7 vvcurveto
          10 -7 10 -10 7 vhcurveto
          -26 18 -44 -2 -30 -8 -75 -18 -56 callsubr
          hintmask 01110111
          -26 callgsubr
          endchar
        </CharString>
        <CharString name="aeacute">
          107 -28 21 -4 18 -14 27 80 14 146 32 -28 26 50 -20 hstemhm
          11 45 85 36 90 52 27 35 161 28 hintmask 0000000000000000
          hintmask 1001100101010000
          -78 callsubr
          hintmask 1001010101010000
          46 52 21 callgsubr
          -2 -17 11 hvcurveto
          5 -2 1 0 7 vvcurveto
          10 -7 10 -10 7 vhcurveto
          -26 18 -44 -2 -30 -8 -75 -18 -56 callsubr
          hintmask 0101100101010000
          -26 callgsubr
          hintmask 0010001010100000
          -160 297 rmoveto
          8 7 -9 callgsubr
          -12 8 -6 callgsubr
          -17 -27 -22 -11 -9 -42 -27 -2 -3 rrcurveto
          -4 -3 -49 callsubr
        </CharString>
        <CharString name="agrave">
          -20 callgsubr
          56 111 hstemhm
          187 178 hintmask 00000000
          hintmask 11000000
          -88 callgsubr
          hintmask 00110000
          270 385 -70 callsubr
          1 callsubr
        </CharString>
        <CharString name="amacron">
          -20 callgsubr
          45 37 hstemhm
          202 235 hintmask 11000000
          -102 callsubr
          hintmask 00110000
          294 371 rmoveto
          7 2 5 callgsubr
          -41 -85 -1 -22 hhcurveto
          -20 -29 callgsubr
          77 4 48 3 rrcurveto
          endchar
        </CharString>
        <CharString name="ampersand">
          239 -111 23 310 20 140 187 -4 -20 hstemhm
          91 56 145 78 22 20 147 16 85 47 hintmask 1110111110000000
          546 520 rmoveto
          16 15 -20 12 -16 -4 -14 -1 -13 -13 -12 -14 rrcurveto
          hintmask 1101111110000000
          -18 23 -38 21 -24 6 -43 12 -100 -19 -27 -38 -55 -78 83 -117 62 -52 -36 -5 -66 7 -68 -25 -180 -68 19 -245 258 20 130 10 181 63 29 155 6 40 -26 45 -17 18 rrcurveto
          63 36 46 38 -19 45 -5 8 -8 0 3 -8 24 -57 -155 -48 -104 -62 -38 -22 -28 -19 -15 -27 -21 -42 7 -66 28 -9 19 -6 -3 10 -11 10 -45 35 95 90 35 21 rrcurveto
          36 22 44 22 39 23 7 -14 3 -46 -12 -38 -41 -136 -117 -59 -120 -12 -188 -19 -50 170 155 77 34 18 64 25 61 7 21 3 4 6 -19 25 -44 56 -58 173 106 25 rrcurveto
          46 11 54 -29 25 -27 -3 -5 rcurveline
          -16 -31 1 -48 8 -9 10 -11 9 8 -4 6 -16 25 21 34 25 23 14 14 16 9 6 7 rrcurveto
          endchar
        </CharString>
        <CharString name="aogonek">
          -1 292 -142 rmoveto
          -18 -15 -112 -106 -18 28 -25 35 66 78 24 21 37 34 41 19 30 26 rrcurveto
          28 30 11 14 17 hvcurveto
          50 36 62 66 18 35 -62 callgsubr
          -7 -41 -58 -75 -63 -33 -71 callgsubr
          4 32 20 62 36 51 rrcurveto
          16 9 -39 8 -10 hhcurveto
          -9 -76 -84 -15 -14 hvcurveto
          -26 -28 -45 -38 -26 -22 -51 callsubr
          19 20 -2 -17 11 hvcurveto
          5 -2 1 0 7 vvcurveto
          10 -7 10 -10 7 vhcurveto
          -26 18 -44 -2 -30 -8 -75 -18 -56 callsubr
          36 callsubr
          -13 -35 -12 -60 9 -27 5 -17 10 -10 13 -5 -30 -20 -53 -33 -42 -30 -53 -36 -32 -54 30 -37 rrcurveto
          -16 12 23 -12 17 hhcurveto
          65 59 88 15 12 hvcurveto
          12 11 -5 15 -17 -16 rrcurveto
          endchar
        </CharString>
        <CharString name="apple">
          68 78 585 hstem
          275 116 vstem
          299 612 rmoveto
          -25 -37 -4 -41 5 -16 89 -5 48 105 -30 44 -13 5 -47 -19 -23 -36 rrcurveto
          18 -519 rmoveto
          -6 9 15 -9 29 hhcurveto
          61 51 85 69 23 hvcurveto
          -45 17 -33 44 -2 50 -3 66 37 40 31 18 -43 68 -75 -5 -15 -6 -11 -5 -29 -9 -21 -6 -16 -4 -15 -2 -19 5 -21 6 -28 10 -11 5 -17 6 -77 2 -45 -84 rrcurveto
          -51 -93 33 -143 63 -77 rrcurveto
          -33 28 24 -24 30 hhcurveto
          28 14 9 6 10 hvcurveto
          21 15 47 0 23 -15 rrcurveto
          endchar
        </CharString>
        <CharString name="approxequal">
          89 95 43 95 44 -8 -20 24 -20 hstemhm
          50 481 hintmask 00000000
          hintmask 10101000
          467 125 rmoveto
          4 5 -26 4 -4 -6 -17 -30 -30 -8 -47 9 -42 9 -53 19 -31 7 -71 16 -53 -45 -47 -42 -4 -4 21 -5 7 6 17 17 29 15 31 3 59 9 56 -25 59 -12 rrcurveto
          57 -13 59 31 26 40 rrcurveto
          64 139 rmoveto
          4 5 -26 4 -4 -8 -18 -30 -30 -7 -46 9 rrcurveto
          hintmask 10011000
          -42 8 -53 20 -31 8 -71 16 -54 -45 -46 -42 -4 -4 21 -5 6 5 rrcurveto
          hintmask 11001000
          18 17 29 14 31 4 59 7 56 -21 59 -14 57 -12 59 31 26 40 rrcurveto
          endchar
        </CharString>
        <CharString name="aring">
          -20 callgsubr
          266 14 38 15 hstemhm
          360 26 64 20 hintmask 00000000
          hintmask 11000000
          -88 callgsubr
          hintmask 00111100
          331 438 rmoveto
          -18 -6 -24 -30 -34 hhcurveto
          -23 -12 13 13 -1 hvcurveto
          27 -2 35 46 37 hhcurveto
          40 -4 -36 -15 -6 hvcurveto
          28 21 rmoveto
          31 -29 11 -28 -22 54 callsubr
          -13 -22 -2 -14 -4 -26 14 -18 21 -8 -1 callgsubr
          endchar
        </CharString>
        <CharString name="asciicircum">
          127 509 134 hstem
          169 292 vstem
          456 543 rmoveto
          -25 22 -39 69 -32 9 -30 -1 -110 -73 -28 -16 -18 -11 -27 -43 48 24 51 26 44 20 51 24 20 -15 45 -45 20 -16 31 -25 10 41 -11 10 rrcurveto
          endchar
        </CharString>
        <CharString name="asciitilde">
          -64 callgsubr
        </CharString>
        <CharString name="asterisk">
          186 322 38 hstem
          107 418 vstem
          167 209 rmoveto
          -2 -10 4 -11 11 -4 10 -2 12 6 14 17 10 13 21 31 43 54 7 -13 10 -20 10 -18 12 -23 10 -21 3 -5 14 -24 13 -6 5 2 7 2 4 12 -6 18 rrcurveto
          -4 8 -29 49 -20 59 76 1 70 3 9 1 35 2 44 28 -81 2 rrcurveto
          -14 -69 -1 1 -61 hvcurveto
          51 64 14 21 24 33 8 11 5 15 -3 8 -3 6 -6 0 -5 -3 -6 -2 -7 -5 -7 -10 -9 -11 -47 -55 -44 -52 -18 48 -22 44 -4 11 -19 40 -36 -21 13 -37 rrcurveto
          7 -20 28 -53 20 -32 rrcurveto
          -69 -66 -1 -5 -10 hvcurveto
          -9 -5 -9 -9 1 -8 2 -7 8 -7 23 1 14 1 50 0 56 2 -25 -32 -21 -25 -17 -17 -17 -21 -11 -13 -2 -5 rrcurveto
          endchar
        </CharString>
        <CharString name="at">
          294 -50 18 147 28 -15 19 272 29 119 32 hstemhm
          12 52 100 46 465 37 -2 26 hintmask 0000000000000000
          hintmask 1011111010000000
          492 148 rmoveto
          -11 7 -6 20 4 25 3 34 22 65 38 55 rrcurveto
          18 9 -41 7 -10 hhcurveto
          -9 -79 -89 -16 -15 hvcurveto
          -27 -29 -46 -41 -28 -22 -15 -13 -50 -37 -15 21 -31 45 85 102 30 28 rrcurveto
          49 54 72 42 55 hhcurveto
          19 21 -2 -18 11 hvcurveto
          5 -4 3 2 7 vvcurveto
          11 -9 10 -10 8 vhcurveto
          -27 19 -47 -2 -30 -8 -78 -22 -237 -157 77 -100 rrcurveto
          -21 16 29 -14 21 hhcurveto
          84 98 147 9 19 hvcurveto
          -14 -37 -12 -64 9 -28 rrcurveto
          hintmask 1101111010000000
          -30 10 21 -10 24 hhcurveto
          62 -1 46 43 35 50 rrcurveto
          hintmask 1101111100000000
          40 55 45 82 69 vvcurveto
          111 -91 76 -150 -1 vhcurveto
          -231 -1 -228 -199 -219 vvcurveto
          -121 93 -107 196 -2 vhcurveto
          115 -1 170 56 80 83 86 87 -2 90 -41 39 -9 9 -11 -9 8 -7 27 -25 -13 -74 -82 -88 -70 -75 -153 -68 -102 1 rrcurveto
          -173 2 -67 92 110 vvcurveto
          208 203 185 198 2 vhcurveto
          127 1 83 -64 -95 vvcurveto
          -71 -31 -75 -45 -55 vhcurveto
          -17 -20 -61 -63 -29 23 rrcurveto
          endchar
        </CharString>
        <CharString name="atilde">
          -20 callgsubr
          92 45 hstemhm
          185 269 hintmask 11000000
          -102 callsubr
          hintmask 00110000
          364 441 rmoveto
          2 -19 callsubr
          -27 9 -34 21 -20 7 -46 17 -34 51 callsubr
          18 12 21 5 37 8 37 -23 44 callgsubr
        </CharString>
        <CharString name="b">
          -68 -116 19 hstem
          272 55 vstem
          419 477 rmoveto
          21 41 5 37 -39 23 -20 7 rcurveline
          -69 19 -55 -65 -33 -52 -45 -70 -58 -133 -20 -56 -9 -20 -33 -45 -49 -61 -9 -53 callgsubr
          31 34 5 16 13 15 -9 -35 -12 -74 13 -19 27 -37 17 40 -4 9 rrcurveto
          -7 45 72 80 30 25 rrcurveto
          25 29 48 38 41 hhcurveto
          30 -13 -52 -16 -6 hvcurveto
          -17 -55 -50 -50 -40 -28 rrcurveto
          -29 -39 -69 -43 -50 -89 72 -17 31 hhcurveto
          61 58 24 34 50 hvcurveto
          55 36 97 85 -10 76 rrcurveto
          25 -4 -45 30 -22 hhcurveto
          -43 -35 -20 -37 -43 hvcurveto
          -27 -23 -38 -40 -25 -37 6 32 11 37 14 25 95 66 146 127 38 77 rrcurveto
          -27 12 rmoveto
          -48 -79 -102 -103 -91 -60 51 115 64 117 85 65 60 48 9 -58 -28 -45 rrcurveto
          endchar
        </CharString>
        <CharString name="backslash">
          -138 -25 564 hstem
          267 37 vstem
          42 527 rmoveto
          44 -74 134 -274 47 -184 5 -20 33 -7 -1 19 -3 56 -186 445 -31 42 -10 15 -40 -3 8 -15 rrcurveto
          endchar
        </CharString>
        <CharString name="bar">
          -201 572 -20 hstem
          129 33 vstem
          162 -61 rmoveto
          633 -33 -633 vlineto
          endchar
        </CharString>
        <CharString name="braceleft">
          -44 -58 17 314 -20 20 14 241 19 hstem
          46 41 45 30 vstem
          401 528 rmoveto
          13 0 19 -13 hhcurveto
          -27 -27 1 -5 -27 hvcurveto
          -36 -6 -29 -17 -20 -22 -45 -50 10 -43 -5 -47 rrcurveto
          -68 -8 -63 -3 -57 hhcurveto
          -12 -1 -18 -2 12 hvcurveto
          76 -12 7 -28 -43 -62 -30 -42 -36 -53 6 -55 8 -73 95 -8 37 8 13 2 2 18 -12 -3 -32 -7 -63 15 -7 56 -6 49 38 48 26 39 26 38 3 47 -55 29 rrcurveto
          57 10 25 7 21 63 15 46 5 34 27 41 rrcurveto
          56 37 36 -2 59 hhcurveto
          endchar
        </CharString>
        <CharString name="braceright">
          8 273 -20 20 14 241 19 hstem
          330 30 42 53 vstem
          315 528 rmoveto
          59 38 2 -56 -10 hvcurveto
          -7 -41 -25 -34 -24 -46 -32 -63 18 -7 50 -10 -80 -29 -36 -47 -5 -38 -6 -39 -5 -48 -46 -49 -54 -56 -76 -15 -27 7 -10 3 -11 -18 10 -2 31 -8 102 8 70 73 rrcurveto
          52 55 8 53 6 42 9 62 31 28 85 12 rrcurveto
          2 15 12 18 -12 hhcurveto
          -56 -60 3 68 48 hvcurveto
          35 47 47 43 -4 50 -1 22 -15 17 -30 6 rrcurveto
          5 -23 -27 -1 -28 -12 -17 -19 13 hhcurveto
          endchar
        </CharString>
        <CharString name="bracketleft">
          -11 -26 29 506 29 hstem
          71 459 vstem
          506 514 rmoveto
          1 14 24 23 -24 hhcurveto
          -115 hlineto
          -18 -3 -3 -13 -10 hvcurveto
          -52 -73 -212 -360 -36 -89 rrcurveto
          -13 -5 -3 -13 25 hhcurveto
          34 29 0 5 46 hvcurveto
          1 15 22 23 -23 hhcurveto
          -104 hlineto
          75 172 159 244 65 90 rrcurveto
          28 28 1 4 41 hvcurveto
          endchar
        </CharString>
        <CharString name="bracketright">
          -11 -26 29 506 29 hstem
          64 458 vstem
          87 -1 rmoveto
          -1 -15 -22 -24 24 hhcurveto
          115 hlineto
          17 4 3 13 10 hvcurveto
          52 73 212 360 36 89 rrcurveto
          13 5 2 13 -25 hhcurveto
          -33 -29 0 -4 -46 hvcurveto
          -1 -15 -23 -24 24 hhcurveto
          104 hlineto
          -75 -171 -159 -245 -65 -90 rrcurveto
          -29 -27 -1 -3 -42 hvcurveto
          endchar
        </CharString>
        <CharString name="breve">
          -143 352 27 hstem
          82 259 vstem
          335 485 rmoveto
          -1 2 -5 2 -2 -5 -46 58 callgsubr
          3 -16 callsubr
          12 -5 -32 vhcurveto
          -25 -167 246 5 callsubr
          2 vhcurveto
          endchar
        </CharString>
        <CharString name="bullet">
          -41 524 28 77 31 hstem
          209 52 130 43 vstem
          200 100 rmoveto
          114 76 87 72 61 -44 34 -82 -125 -70 -84 -71 -57 37 -42 94 hvcurveto
          endchar
        </CharString>
        <CharString name="c">
          29 callgsubr
          hstem
          -90 callsubr
          endchar
        </CharString>
        <CharString name="cacute">
          -143 -26 21 -1 28 211 34 75 -20 hstemhm
          107 37 168 35 hintmask 10100000
          -90 callsubr
          hintmask 01011100
          55 302 rmoveto
          7 6 -2 callsubr
          -16 -26 -23 -12 -9 -42 39 callsubr
          -3 -4 -5 -8 -72 callgsubr
        </CharString>
        <CharString name="caron">
          -1 334 113 hstem
          209 206 vstem
          212 427 rmoveto
          19 -28 43 -57 20 -8 18 1 74 12 callsubr
          -13 12 -68 callgsubr
        </CharString>
        <CharString name="ccaron">
          29 callgsubr
          85 112 hstemhm
          202 207 hintmask 11000000
          -90 callsubr
          hintmask 00110000
          -173 309 rmoveto
          19 -27 42 -58 20 -7 19 1 74 72 17 14 12 -17 callsubr
          -33 -21 -25 -25 -32 -65 callgsubr
        </CharString>
        <CharString name="ccedilla">
          -143 -313 23 162 23 79 21 238 34 hstem
          -69 30 241 35 vstem
          -24 -260 rmoveto
          54 -90 219 74 101 vvcurveto
          47 -45 36 -82 -16 vhcurveto
          8 11 44 56 5 11 rrcurveto
          5 2 -5 4 -6 hhcurveto
          91 20 64 61 54 75 2 4 3 9 -5 2 rrcurveto
          -2 -5 4 -6 -5 hvcurveto
          -57 -73 -49 -46 -90 -26 -57 -16 -58 6 23 74 rrcurveto
          91 27 124 102 51 hhcurveto
          10 5 -11 -9 -6 -4 -7 -1 -7 hvcurveto
          -1 -3 1 -5 4 -3 7 -9 17 37 1 6 7 26 -15 13 -18 6 -75 25 -155 -131 -30 -68 -44 -101 67 -49 92 11 rrcurveto
          -3 -1 -1 -1 -3 vvcurveto
          -8 -18 -30 -54 -12 -16 -19 -25 25 6 36 7 rrcurveto
          40 9 25 -22 -32 vvcurveto
          -82 -165 -68 -47 73 vhcurveto
          -11 16 -15 -1 12 -23 rrcurveto
          endchar
        </CharString>
        <CharString name="ccircumflex">
          29 callgsubr
          62 113 hstemhm
          177 205 hintmask 11000000
          -90 callsubr
          hintmask 00110000
          214 vmoveto
          -78 callgsubr
        </CharString>
        <CharString name="cdotaccent">
          29 callgsubr
          98 63 hstemhm
          275 61 hintmask 11000000
          -90 callsubr
          hintmask 00110000
          -43 269 rmoveto
          16 5 22 -34 -27 vhcurveto
          -5 -3 -27 -25 -4 vvcurveto
          -18 20 0 14 8 61 callgsubr
          endchar
        </CharString>
        <CharString name="cedilla">
          9 -296 24 161 24 hstem
          7 30 242 35 vstem
          52 -242 rmoveto
          54 41 callgsubr
          7 11 44 57 5 11 6 12 -35 -1 -5 -11 -7 -19 -30 -54 -13 -16 -19 -25 25 6 37 8 rrcurveto
          40 9 25 -23 -31 vvcurveto
          48 callsubr
          12 -22 rrcurveto
          endchar
        </CharString>
        <CharString name="cent">
          3 63 25 364 30 hstem
          60 46 326 27 vstem
          431 512 rmoveto
          13 16 -22 16 -12 -14 -6 -6 -12 -16 -13 -23 rrcurveto
          -124 -10 -195 -162 -126 vvcurveto
          -60 30 -39 47 -16 vhcurveto
          -21 -42 -15 -31 -2 -12 -4 -19 41 7 9 20 9 22 11 22 10 24 21 -1 23 1 23 4 75 12 62 34 52 45 18 16 5 26 -28 -22 -42 -36 -49 -27 -66 -18 rrcurveto
          -25 -8 -30 -4 -27 3 62 130 85 145 56 87 rrcurveto
          6 6 2 7 hhcurveto
          30 -3 -25 -29 -14 hvcurveto
          -5 -9 8 -26 16 22 9 13 7 19 2 3 11 35 -21 18 -25 9 -12 2 rcurveline
          -261 -387 rmoveto
          -35 12 -21 29 16 51 46 144 112 79 81 28 -59 -95 -86 -147 -54 -101 rrcurveto
          endchar
        </CharString>
        <CharString name="circumflex">
          -1 329 113 hstem
          202 205 vstem
          404 349 rmoveto
          -78 callgsubr
        </CharString>
        <CharString name="colon">
          -297 -12 61 98 61 hstemhm
          94 61 -61 112 hintmask 00000000
          hintmask 11100000
          155 27 -62 callsubr
          hintmask 11010000
          51 157 -3 callsubr
        </CharString>
        <CharString name="comma">
          -279 -133 175 hstem
          34 117 vstem
          -49 callgsubr
          endchar
        </CharString>
        <CharString name="copyright">
          278 35 27 398 28 -28 128 hstemhm
          145 54 300 40 hintmask 00000000
          hintmask 11011000
          291 35 rmoveto
          100 101 62 77 59 hvcurveto
          5 5 1 10 -2 5 -4 14 -14 -9 -5 -7 -30 -39 -43 -34 -42 -22 -167 -90 -108 90 87 173 48 98 97 94 73 -2 rrcurveto
          25 27 -13 -25 -14 -7 -15 -11 -10 hvcurveto
          -30 -26 8 -12 26 9 rrcurveto
          17 5 37 23 42 vvcurveto
          56 -55 8 -32 -107 -113 -100 -105 -55 vhcurveto
          -43 -84 2 -72 40 -44 rrcurveto
          -34 30 43 -14 42 hhcurveto
          383 188 rmoveto
          11 callsubr
          11 callgsubr
          rrcurveto
          45 37 rmoveto
          hintmask 10111000
          12 callgsubr
          10 callgsubr
          endchar
        </CharString>
        <CharString name="currency">
          1042 endchar
        </CharString>
        <CharString name="d">
          -83 -17 16 595 -21 hstem
          779 47 vstem
          90 -11 rmoveto
          60 106 115 71 61 hvcurveto
          -26 -65 -82 -216 100 -16 18 -3 34 3 14 10 6 6 5 6 4 5 6 12 -5 3 -12 -7 -7 -4 -3 -4 -5 -3 -19 -15 -18 7 -8 16 -17 28 2 47 16 63 rrcurveto
          12 45 23 70 20 47 90 78 145 100 59 104 23 41 5 46 -57 11 -115 23 -99 -184 -67 -155 -4 3 rcurveline
          -25 18 -45 -2 -30 -8 -75 -18 -56 callsubr
          -67 callgsubr
          261 269 rmoveto
          -14 -34 -60 -64 -71 -65 -67 -55 rlinecurve
          -51 callsubr
          13 12 -1 -5 10 hvcurveto
          54 10 rmoveto
          52 115 57 97 90 69 50 38 15 -29 -25 -48 -45 -85 -114 -105 -80 -52 rrcurveto
          endchar
        </CharString>
        <CharString name="dagger">
          -207 510 25 hstem
          9 543 vstem
          316 478 rmoveto
          8 15 -45 22 -10 -11 -24 callsubr
          -64 -157 -73 -191 3 -34 4 -13 16 7 6 5 36 120 63 143 62 128 rrcurveto
          -3 callgsubr
          rrcurveto
          endchar
        </CharString>
        <CharString name="daggerdbl">
          -207 -66 -21 230 59 -23 24 71 59 -23 24 hstemhm
          34 316 hintmask 10101100
          290 194 rmoveto
          5 -21 -44 4 -46 hhcurveto
          48 102 rlineto
          -3 callgsubr
          8 15 -45 22 -10 -11 rrcurveto
          hintmask 11010100
          -24 callsubr
          -38 -95 rcurveline
          -35 -2 -31 -5 -20 -8 -13 -7 -5 -12 2 -11 2 -24 20 14 10 3 18 7 18 5 20 5 -46 -118 -37 -109 1 -25 4 -13 16 7 6 5 24 80 36 90 40 90 rrcurveto
          hintmask 10110100
          5 40 40 0 39 hhcurveto
          15 -1 13 2 -9 hvcurveto
          endchar
        </CharString>
        <CharString name="dcaron">
          246 -17 16 538 25 32 -21 124 -20 hstem
          779 47 vstem
          90 -11 rmoveto
          60 106 115 71 61 hvcurveto
          -26 -65 -82 -216 100 -16 18 -3 34 3 14 10 6 6 5 6 4 5 6 12 -5 3 -12 -7 -7 -4 -3 -4 -5 -3 -19 -15 -18 7 -8 16 -17 28 2 47 16 63 rrcurveto
          12 45 23 70 20 47 90 78 145 100 59 104 23 41 5 46 -57 11 -115 23 -99 -184 -67 -155 -4 3 rcurveline
          -25 18 -45 -2 -30 -8 -75 -18 -56 callsubr
          -67 callgsubr
          261 269 rmoveto
          -14 -34 -60 -64 -71 -65 -67 -55 rlinecurve
          -51 callsubr
          13 12 -1 -5 10 hvcurveto
          54 10 rmoveto
          52 115 57 97 90 69 50 38 15 -29 -25 -48 -45 -85 -114 -105 -80 -52 rrcurveto
          371 254 rmoveto
          11 15 callsubr
          19 5 -12 -33 -8 -29 -36 callgsubr
          8 vhcurveto
          7 5 29 59 callgsubr
          endchar
        </CharString>
        <CharString name="dcroat">
          11 -17 16 408 40 147 -21 hstem
          372 317 90 47 vstem
          616 417 rmoveto
          13 1 60 2 14 vvcurveto
          5 -20 5 -32 1 vhcurveto
          12 15 11 17 9 15 23 41 5 46 -57 11 -73 14 -67 -67 -55 -92 rrcurveto
          -29 hlineto
          -27 -48 -41 3 63 hvcurveto
          5 7 0 1 8 hvcurveto
          -24 -44 -23 -46 -18 -44 -4 3 rcurveline
          -25 18 -45 -2 -30 -8 -75 -18 -56 callsubr
          -67 callgsubr
          60 106 115 71 61 hvcurveto
          -26 -65 -82 -216 100 -16 18 -3 34 3 14 10 6 6 5 6 4 5 6 12 -5 3 -12 -7 -7 -4 -3 -4 -5 -3 -19 -15 -18 7 -8 16 -17 28 2 47 16 63 rrcurveto
          12 45 23 70 20 47 67 59 99 71 70 77 rrcurveto
          -260 -159 rmoveto
          -14 -34 -60 -64 -71 -65 -67 -55 rlinecurve
          -51 callsubr
          13 12 -1 -5 10 hvcurveto
          253 291 rmoveto
          50 38 15 -29 -25 -48 -12 -21 -15 -21 -17 -21 rrcurveto
          -28 -33 -2 -34 hhcurveto
          27 39 33 35 39 30 rrcurveto
          -199 -281 rmoveto
          22 51 25 48 28 43 92 4 rcurveline
          -51 -57 -65 -55 -51 -34 rrcurveto
          endchar
        </CharString>
        <CharString name="degree">
          -104 525 95 hstem
          165 102 vstem
          265 548 rmoveto
          -9 -41 -92 20 53 vvcurveto
          15 12 25 18 2 vhcurveto
          47 1 35 -25 -11 -50 rrcurveto
          36 9 rmoveto
          6 83 -63 28 -62 -11 rrcurveto
          -33 -7 -28 -35 -32 vvcurveto
          -93 173 -41 7 108 vhcurveto
          endchar
        </CharString>
        <CharString name="dieresis">
          -66 335 67 hstem
          180 30 callgsubr
          cntrmask 01110000
          240 374 rmoveto
          15 20 29 -33 -26 vhcurveto
          -5 -4 -42 -31 -5 vvcurveto
          -17 20 0 14 8 18 29 51 callgsubr
          -5 -4 -42 -31 -5 vvcurveto
          -17 25 callgsubr
        </CharString>
        <CharString name="divide">
          11 43 61 54 37 55 62 hstem
          94 376 vstem
          417 167 rmoveto
          8 1 46 2 -1 13 rrcurveto
          6 -21 6 -33 vhcurveto
          -41 -228 -1 -22 hhcurveto
          -20 -29 callgsubr
          220 4 47 4 rrcurveto
          -143 -85 rmoveto
          15 5 21 -33 -25 vhcurveto
          -5 -5 -27 -25 -4 vvcurveto
          -16 20 0 13 8 19 29 10 vhcurveto
          72 207 -2 callgsubr
          -17 20 0 14 7 -20 callsubr
        </CharString>
        <CharString name="dollar">
          -22 278 25 hstem
          149 53 vstem
          407 527 rmoveto
          12 15 -40 2 -13 -14 -4 -3 -7 -12 -9 -13 rrcurveto
          -4 hlineto
          -98 13 -147 -52 -3 -116 -2 -59 42 -51 38 -39 -22 -40 -20 -39 -16 -32 -20 3 -17 5 -10 4 rrcurveto
          -2 1 -4 -2 -4 vvcurveto
          -1 -14 19 -11 21 -10 -18 -35 -11 -26 -2 -11 -4 -19 32 7 9 20 6 17 9 18 9 19 10 -4 9 -1 5 -1 33 -4 82 5 1 44 1 30 -34 37 -35 39 rrcurveto
          58 105 65 104 44 67 58 -10 -2 -35 -33 -45 -20 -27 -27 -25 -15 -14 -8 -7 -6 -13 19 8 46 18 60 49 1 56 2 35 -29 22 -31 11 8 14 9 11 6 9 rrcurveto
          -215 -350 rmoveto
          24 -24 18 -18 -12 vvcurveto
          -2 -35 -43 -8 -44 3 15 31 16 31 16 32 rrcurveto
          -10 40 rmoveto
          -32 35 -29 35 1 31 2 86 118 63 87 6 -39 -63 -56 -100 -52 -93 rrcurveto
          endchar
        </CharString>
        <CharString name="dotaccent">
          -229 418 62 hstem
          155 61 vstem
          216 457 rmoveto
          16 5 21 -34 -26 vhcurveto
          -5 -4 -27 -25 -4 vvcurveto
          -17 20 0 14 8 61 callgsubr
          endchar
        </CharString>
        <CharString name="dotlessi">
          -28 23 hstem
          22 43 vstem
          -101 callgsubr
          endchar
        </CharString>
        <CharString name="e">
          -44 callgsubr
          hstem
          9 41 vstem
          -99 callsubr
          endchar
        </CharString>
        <CharString name="eacute">
          -139 -18 148 -132 27 267 -20 73 -20 hstemhm
          9 41 16 2 callsubr
          hintmask 10101000
          -99 callsubr
          hintmask 01010110
          82 245 rmoveto
          8 7 -9 callgsubr
          -12 8 -6 callgsubr
          -17 -27 -22 -11 -9 -42 -27 -2 -3 rrcurveto
          -4 -3 -49 callsubr
        </CharString>
        <CharString name="ebreve">
          -44 callgsubr
          80 27 hstemhm
          9 41 146 259 hintmask 11010000
          -99 callsubr
          hintmask 00101000
          139 290 rmoveto
          -2 2 -5 2 -45 callgsubr
          12 -5 -32 vhcurveto
          -25 -167 247 5 callsubr
          2 vhcurveto
          endchar
        </CharString>
        <CharString name="ecaron">
          -44 callgsubr
          92 113 hstemhm
          9 41 170 206 hintmask 11010000
          -99 callsubr
          hintmask 00101000
          -86 262 rmoveto
          18 -28 43 -57 20 -8 19 1 73 12 callsubr
          -12 12 -15 15 -2 -20 7 -10 rrcurveto
          endchar
        </CharString>
        <CharString name="ecircumflex">
          -44 callgsubr
          100 112 hstemhm
          9 41 139 205 hintmask 11010000
          -99 callsubr
          hintmask 00101000
          80 197 rmoveto
          -18 27 -43 58 -19 7 38 callsubr
          -13 -10 -9 -12 -25 30 19 32 21 26 26 32 20 12 -12 60 -48 11 -61 callsubr
        </CharString>
        <CharString name="edieresis">
          -44 callgsubr
          91 66 hstem
          9 41 137 67 -67 225 -66 66 vstem
          -74 callgsubr
          -63 207 rmoveto
          29 callsubr
          -5 -4 -43 -31 -58 callsubr
          28 -32 -26 vhcurveto
          -5 -4 -43 -31 4 callgsubr
        </CharString>
        <CharString name="edotaccent">
          -44 callgsubr
          96 62 hstemhm
          9 41 222 62 hintmask 11010000
          -99 callsubr
          hintmask 00101000
          24 212 rmoveto
          16 5 21 -34 -26 vhcurveto
          -5 -4 -28 -25 -4 vvcurveto
          -17 20 0 14 9 61 callgsubr
          endchar
        </CharString>
        <CharString name="egrave">
          -44 callgsubr
          92 111 hstemhm
          9 41 120 177 hintmask 00000000
          hintmask 11010000
          -74 callgsubr
          hintmask 00101000
          32 180 -28 callsubr
        </CharString>
        <CharString name="eight">
          33 -41 28 662 40 hstem
          504 60 vstem
          332 315 rmoveto
          57 28 108 56 -30 74 -32 81 -206 -24 -12 -116 -6 -57 64 -20 47 -18 rrcurveto
          -43 -47 rmoveto
          -55 -27 -29 -20 -46 -35 -38 -27 -35 -41 -4 -37 -8 -83 141 5 56 18 128 43 76 130 -139 57 -14 7 -16 3 -17 7 rrcurveto
          75 35 rmoveto
          52 -24 45 -35 -6 -64 -13 -119 -167 -83 -103 -5 -60 -3 -76 11 9 78 6 50 44 57 42 30 42 30 35 27 51 22 -49 18 -44 27 8 71 5 45 32 40 42 28 rrcurveto
          40 27 52 10 46 2 82 3 48 -31 -5 -52 -8 -78 -84 -50 -66 -32 rrcurveto
          endchar
        </CharString>
        <CharString name="ellipsis">
          -7 -12 61 hstemhm
          65 60 -60 371 hintmask 00000000
          hintmask 11000000
          125 27 rmoveto
          16 5 20 -33 -18 callsubr
          14 8 18 30 9 -6 callsubr
          16 5 20 -34 43 callgsubr
          9 61 callgsubr
          hintmask 10100000
          152 hmoveto
          16 5 20 -32 43 callgsubr
          7 61 callgsubr
          endchar
        </CharString>
        <CharString name="emacron">
          -44 callgsubr
          80 37 hstemhm
          9 41 130 235 hintmask 11010000
          -99 callsubr
          hintmask 00101000
          51 165 rmoveto
          8 2 46 -7 callgsubr
          -22 6 -32 -41 -85 -1 -23 hhcurveto
          -20 -29 callgsubr
          78 4 47 3 rrcurveto
          endchar
        </CharString>
        <CharString name="emdash">
          267 132 23 hstem
          669 167 rmoveto
          8 1 45 -11 callsubr
          -41 -429 -1 -21 hhcurveto
          -21 -29 callgsubr
          422 4 47 4 rrcurveto
          endchar
        </CharString>
        <CharString name="endash">
          -82 132 23 hstem
          467 167 rmoveto
          9 1 45 -11 callsubr
          -41 -228 -1 -21 hhcurveto
          -21 -29 callgsubr
          221 4 46 4 rrcurveto
          endchar
        </CharString>
        <CharString name="eng">
          53 callsubr
          474 140 rmoveto
          -56 callgsubr
          -41 -58 -76 -63 -32 -71 callgsubr
          3 19 7 27 13 30 13 34 23 31 11 34 20 60 -42 7 -58 -43 -55 -43 -87 -94 -42 -52 rrcurveto
          12 32 32 89 25 55 8 16 1 9 -16 4 -52 14 4 -47 -5 -12 -20 -55 -59 -171 -8 -20 -10 -19 53 24 10 5 19 11 84 132 57 52 73 63 4 -25 -18 -32 rrcurveto
          -17 -33 -47 -87 10 -54 -17 -49 -26 -57 -37 -60 rrcurveto
          -50 -32 -69 -113 -66 hhcurveto
          -94 39 133 41 47 hvcurveto
          8 6 -6 10 -9 -3 -34 -20 -30 -38 -7 -37 rrcurveto
          -54 -10 27 -54 68 hhcurveto
          80 73 98 61 40 hvcurveto
          34 54 25 50 19 50 7 -5 10 -3 12 -1 -66 callgsubr
          rrcurveto
          endchar
        </CharString>
        <CharString name="eogonek">
          -44 callgsubr
          hstem
          9 41 vstem
          76 -156 34 callgsubr
          43 39 45 18 31 31 rrcurveto
          1 vlineto
          31 -4 34 5 33 13 70 29 63 55 40 66 4 5 0 5 -5 2 -2 2 -5 0 -4 -5 -36 -55 -64 -54 -74 -30 -65 -26 -77 -66 callsubr
          rrcurveto
          14 7 36 15 1 -28 2 -22 -30 -30 -17 -13 -37 -30 -56 -32 -32 -3 -15 -1 7 -14 15 1 45 4 95 38 36 53 19 28 6 51 -41 14 -75 25 -155 -131 -30 -68 rrcurveto
          -34 -79 36 -46 58 -12 rrcurveto
          -4 -3 -2 -2 -2 hvcurveto
          -29 -19 -57 -35 -47 -32 -51 -35 -32 -54 30 -38 rrcurveto
          -16 12 23 -11 16 hhcurveto
          65 59 87 14 12 hvcurveto
          11 13 -3 13 -18 -16 rrcurveto
          endchar
        </CharString>
        <CharString name="equal">
          81 84 38 106 37 hstem
          135 404 vstem
          485 237 rmoveto
          17 callsubr
          -22 6 -32 vhcurveto
          -41 -229 -1 -21 hhcurveto
          -22 -33 -33 callsubr
          220 4 46 4 rrcurveto
          -26 -143 rmoveto
          41 callsubr
          -291 hlineto
          -20 -35 -40 2 46 hvcurveto
          34 3 220 3 48 4 rrcurveto
          endchar
        </CharString>
        <CharString name="eth">
          -26 26 callgsubr
          71 82 43 128 2 102 42 15 rcurveline
          7 3 44 13 -4 12 -2 6 -22 0 -32 -8 -34 -8 rcurveline
          -1 21 -3 19 -5 17 -32 110 -101 24 -50 -31 -47 -29 29 -61 44 52 41 49 75 -23 11 -102 2 -18 1 -18 -1 -19 -73 -20 rcurveline
          -20 -5 -24 -46 45 13 70 22 rcurveline
          -5 -55 -12 -57 -18 -45 -59 callsubr
        </CharString>
        <CharString name="exclam">
          -296 -12 61 hstem
          94 276 vstem
          150 150 -67 callsubr
        </CharString>
        <CharString name="exclamdbl">
          24 -12 61 hstemhm
          94 276 -75 276 hintmask 10100000
          351 150 rmoveto
          -11 -31 41 14 4 11 34 104 56 101 50 96 6 13 9 1 7 13 rrcurveto
          17 28 7 24 14 vvcurveto
          19 -36 26 -11 -13 vhcurveto
          -10 -11 -19 -47 -24 -57 -39 -90 -48 -122 -33 -93 rrcurveto
          5 -123 -40 callgsubr
          14 8 61 callgsubr
          hintmask 11000000
          -206 123 -67 callsubr
        </CharString>
        <CharString name="exclamdown">
          -172 264 -20 103 62 hstem
          -15 275 vstem
          204 247 rmoveto
          11 30 -41 -14 -4 -10 -34 -104 -55 -101 -50 -96 -6 -13 -9 -1 -7 -13 rrcurveto
          -17 -28 -7 -24 -14 vvcurveto
          -19 36 -26 11 13 vhcurveto
          9 11 20 47 24 57 39 90 47 122 33 93 rrcurveto
          -4 123 rmoveto
          -16 -5 -21 32 26 vhcurveto
          5 4 28 25 4 vvcurveto
          17 -20 0 -14 -7 -19 -30 -9 vhcurveto
          endchar
        </CharString>
        <CharString name="f">
          -172 -360 27 hstem
          16 58 12 314 vstem
          149 228 rmoveto
          -29 -74 rlineto
          -3 hlineto
          -8 -61 callgsubr
          8 20 1 3 23 hvcurveto
          -62 -159 -111 -280 -12 27 callsubr
          3 -55 callsubr
          46 124 28 71 62 9 71 10 17 5 rrcurveto
          12 42 -26 5 -16 hhcurveto
          -35 -37 -4 -3 -35 hvcurveto
          100 80 133 147 37 79 22 46 5 41 -40 23 -20 7 rcurveline
          -68 19 -56 -65 -34 -52 -44 -70 -58 -133 -20 -56 rrcurveto
          20 -53 rmoveto
          3 9 35 83 44 -83 callgsubr
          endchar
        </CharString>
        <CharString name="ff">
          114 -360 27 52 callgsubr
          -94 callgsubr
          20 -53 rmoveto
          4 9 35 83 43 -83 callgsubr
          -286 hmoveto
          3 9 35 83 44 -83 callgsubr
          endchar
        </CharString>
        <CharString name="ffi">
          341 -360 27 305 23 52 callgsubr
          -91 42 -94 callgsubr
          20 -53 rmoveto
          4 9 35 83 43 -83 callgsubr
          -286 hmoveto
          3 9 35 83 44 -83 callgsubr
          496 30 rmoveto
          -15 -23 -28 -37 -35 -43 -8 -53 callgsubr
          21 24 9 15 8 11 -21 -46 -16 -54 7 -23 20 -60 74 -40 callsubr
          -56 callgsubr
          rrcurveto
          -41 -58 -75 -63 -33 -71 callgsubr
          4 32 26 -76 callgsubr
          -16 3 -14 -1 -14 -3 -10 -25 -11 -31 -2 -6 0 -4 1 -3 rrcurveto
          115 173 7 callgsubr
          endchar
        </CharString>
        <CharString name="ffl">
          349 -360 27 301 19 572 -20 52 callgsubr
          -157 38 324 36 -94 callgsubr
          226 -100 rmoveto
          125 104 119 117 81 143 rrcurveto
          65 36 -32 35 -45 hhcurveto
          -69 -45 -60 -49 -37 hvcurveto
          -65 -86 -122 -239 -6 -100 rrcurveto
          -46 -1 17 -34 60 hhcurveto
          19 24 7 15 20 hvcurveto
          50 37 62 66 20 35 7 11 -13 31 callsubr
          -73 -67 -39 -21 -59 -33 -14 54 7 49 1 10 5 16 6 20 rrcurveto
          -206 47 rmoveto
          4 9 35 83 43 -83 callgsubr
          -286 hmoveto
          3 9 35 83 44 -83 callgsubr
          536 62 rmoveto
          22 45 27 51 11 20 42 77 52 72 61 47 44 33 22 -23 -26 -49 -54 -102 -131 -173 -99 -67 9 22 9 24 11 23 rrcurveto
          endchar
        </CharString>
        <CharString name="fi">
          1 -22 25 116 51 389 26 hstem
          267 49 141 34 vstem
          491 505 rmoveto
          1 30 -21 34 -26 callsubr
          9 20 1 4 24 hvcurveto
          -32 -89 -15 callsubr
          29 80 47 126 28 71 49 8 51 9 15 5 rrcurveto
          12 44 -28 5 -15 hhcurveto
          -45 -26 -6 -5 -34 hvcurveto
          3 7 2 5 33 callsubr
          45 68 43 25 26 -1 63 -5 -63 -89 -16 -23 -14 -22 -37 -30 20 -12 55 -35 50 114 2 48 rrcurveto
          33 -365 rmoveto
          -56 callgsubr
          -41 -58 -75 -63 -33 -71 callgsubr
          4 32 26 -76 callgsubr
          -16 3 -14 -1 -14 -3 -10 -25 -11 -31 rrcurveto
          -7 -21 -18 -43 -15 -41 -15 -44 -31 -87 77 -4 28 -1 31 12 18 14 -85 callsubr
          rrcurveto
          endchar
        </CharString>
        <CharString name="five">
          89 -21 40 435 36 114 35 76 -20 hstem
          -83 59 608 90 147 34 vstem
          217 325 rmoveto
          8 15 20 32 9 13 23 43 24 35 10 6 rrcurveto
          21 36 147 2 78 hhcurveto
          33 0 23 3 -20 hvcurveto
          -73 9 -131 -2 -62 -5 -17 -1 -16 -1 -15 -4 -30 -6 19 -26 9 -17 -25 -31 -52 -80 -38 -66 -18 -31 6 -10 14 3 21 5 38 45 50 17 rrcurveto
          71 23 113 -8 -98 vvcurveto
          -140 -154 -111 -126 -1 vhcurveto
          -48 -2 -74 24 -3 68 rrcurveto
          11 1 12 4 12 vhcurveto
          7 21 -37 14 -13 -30 rrcurveto
          -6 -13 -3 -14 -13 vvcurveto
          -99 102 -14 68 150 199 105 166 97 -96 23 -75 -41 -57 -5 -20 -30 vhcurveto
          endchar
        </CharString>
        <CharString name="fl">
          64 -360 27 301 19 572 -20 hstemhm
          9 38 39 314 -158 39 90 36 198 36 hintmask 11110111
          492 519 rmoveto
          2 30 -23 20 -26 callsubr
          hvcurveto
          51 hlineto
          -30 -84 -15 callsubr
          28 76 43 118 29 72 58 3 66 6 67 22 -12 -36 -9 -32 -1 -24 rrcurveto
          -46 -1 17 -34 60 hhcurveto
          19 24 7 15 20 hvcurveto
          50 37 62 66 20 35 6 11 -12 31 callsubr
          -74 -67 -38 -21 -59 -33 -14 54 6 49 2 8 8 42 20 41 18 9 19 10 17 11 30 19 35 27 34 35 rrcurveto
          59 63 53 70 43 75 rrcurveto
          65 36 -32 35 -45 hhcurveto
          -69 -45 -60 -49 -38 hvcurveto
          -46 -61 -75 -139 -41 -111 rrcurveto
          -18 -66 -65 -1 -55 hhcurveto
          3 10 4 7 33 callsubr
          93 142 79 -46 -45 -78 -17 -27 0 -13 18 7 30 10 16 32 1 25 rrcurveto
          -73 -282 rmoveto
          22 45 26 51 12 20 42 77 51 72 62 47 43 33 23 -23 -26 -49 -30 -57 -54 -79 -60 -71 -44 -51 -40 -34 -39 -23 rrcurveto
          hintmask 11111001
          -7 -3 9 22 -2 0 12 23 rlinecurve
          endchar
        </CharString>
        <CharString name="florin">
          -172 -385 28 476 51 389 26 hstem
          -214 35 635 36 vstem
          299 168 rmoveto
          -49 -50 -8 -5 -50 hvcurveto
          89 208 105 190 83 5 rrcurveto
          18 12 -13 -20 hvcurveto
          -6 -2 -9 -5 vvcurveto
          -11 5 -4 6 13 13 14 16 42 -48 22 -38 -92 -69 -130 -72 -33 vhcurveto
          -32 -72 -33 -83 -27 -74 rrcurveto
          23 callsubr
          -18 -13 15 -9 12 14 19 1 1 20 hvcurveto
          -38 -97 -70 -158 -34 -92 rrcurveto
          -59 -22 -53 -136 -75 -47 17 67 -21 hhcurveto
          -11 -10 -13 -14 hvcurveto
          -44 4 50 -24 40 hhcurveto
          93 49 132 72 23 hvcurveto
          30 98 47 137 56 135 rrcurveto
          84 10 101 21 7 vvcurveto
          3 -13 3 -10 vhcurveto
          endchar
        </CharString>
        <CharString name="four">
          11 252 33 22 50 hstem
          796 51 vstem
          255 -37 rmoveto
          11 65 23 69 28 70 rrcurveto
          53 51 10 40 45 hvcurveto
          15 13 23 20 5 19 6 21 -19 -3 -5 -17 -10 -35 -86 -21 -59 -4 48 107 57 103 44 90 5 9 -11 14 -14 7 -26 15 -2 -15 -13 -17 -37 -43 -78 -80 -84 -61 -176 -127 rcurveline
          -27 -15 -12 -23 -22 vvcurveto
          -13 22 16 22 17 vhcurveto
          17 12 26 4 32 -4 151 -15 rcurveline
          -35 -95 -28 -89 4 -27 6 -11 22 7 6 6 rrcurveto
          -145 267 rmoveto
          40 26 35 20 52 40 57 42 76 64 15 15 -14 -30 -39 -95 -36 -97 -50 5 -74 15 -62 -5 rrcurveto
          endchar
        </CharString>
        <CharString name="fraction">
          -11 -25 564 hstem
          69 353 vstem
          420 527 rmoveto
          11 15 -39 3 -12 -15 -39 -42 -260 -445 -12 -56 -4 -19 34 7 8 20 78 184 179 274 56 74 rrcurveto
          endchar
        </CharString>
        <CharString name="franc">
          -8 158 37 13 36 228 42 3 21 hstem
          120 235 76 16 vstem
          140 69 rmoveto
          -18 callgsubr
          -43 hlineto
          13 39 15 37 16 36 54 2 71 3 52 5 42 3 21 0 2 9 rrcurveto
          10 4 -16 1 -8 hhcurveto
          -71 -60 1 1 -74 hvcurveto
          33 67 39 66 37 74 8 15 -50 17 -12 -11 -15 -19 -45 -102 -42 -107 rrcurveto
          -13 hlineto
          -40 -1 0 -36 29 1 rrcurveto
          10 hlineto
          -15 -40 -14 -39 -11 -33 rrcurveto
          -65 hlineto
          -21 -35 -39 2 46 hvcurveto
          15 23 2 1 26 hvcurveto
          -10 -33 -6 -25 1 -11 2 -14 32 8 6 6 4 24 6 25 6 22 rrcurveto
          443 444 rmoveto
          17 18 -21 12 -19 -4 -5 -1 -4 -1 -5 -3 -8 3 rcurveline
          -87 10 -165 -3 -87 -25 -20 -6 -6 -12 1 -10 4 -25 31 13 15 4 50 11 59 10 43 7 rrcurveto
          6 55 48 4 49 hhcurveto
          -13 -13 -10 -15 -5 -10 -19 -35 2 -52 10 -10 11 -13 9 9 -4 7 -19 28 25 37 28 27 15 15 17 10 8 7 rrcurveto
          endchar
        </CharString>
        <CharString name="g">
          17 callgsubr
          hstem
          275 -50 -103 callgsubr
          endchar
        </CharString>
        <CharString name="gbreve">
          17 callgsubr
          363 27 hstemhm
          242 259 hintmask 11000000
          275 -50 -103 callgsubr
          hintmask 00110000
          298 578 rmoveto
          -1 2 -5 2 -2 -5 -46 58 callgsubr
          3 -16 callsubr
          12 -5 -32 vhcurveto
          -25 -167 246 5 callsubr
          2 vhcurveto
          endchar
        </CharString>
        <CharString name="gcircumflex">
          17 callgsubr
          343 112 hstemhm
          214 205 hintmask 11000000
          275 -50 -103 callgsubr
          hintmask 00110000
          218 445 rmoveto
          -18 27 -43 58 -19 7 38 callsubr
          -13 -10 -9 -12 -25 30 19 32 21 26 26 32 20 12 -12 60 -48 11 -61 callsubr
        </CharString>
        <CharString name="gcommaaccent">
          17 callgsubr
          369 175 hstemhm
          307 118 hintmask 00110000
          307 393 rmoveto
          -11 10 -22 17 5 18 -2 12 4 vhcurveto
          8 24 -23 -5 11 34 9 30 18 24 18 22 rrcurveto
          13 14 10 12 2 vvcurveto
          3 0 10 -11 -7 vhcurveto
          -8 -5 -29 -29 -26 -34 rrcurveto
          -22 -27 -22 -31 -14 vvcurveto
          hintmask 11000000
          -32 -443 -103 callgsubr
          endchar
        </CharString>
        <CharString name="gdotaccent">
          17 callgsubr
          368 62 hstemhm
          325 61 hintmask 11000000
          275 -50 -103 callgsubr
          hintmask 00110000
          189 488 rmoveto
          17 5 21 -34 -26 vhcurveto
          -5 -4 -27 -25 -4 vvcurveto
          -17 20 0 14 8 19 30 8 vhcurveto
          endchar
        </CharString>
        <CharString name="germandbls">
          66 -205 28 115 17 293 21 -6 -20 32 -20 260 27 hstemhm
          -151 35 392 45 94 64 2 24 hintmask 1110011111000000
          340 223 rmoveto
          -51 40 66 35 30 17 35 20 34 20 28 42 29 40 0 46 -22 27 -18 23 -31 10 -38 -1 -103 -2 -75 -137 -28 -76 -21 -58 rcurveline
          -9 hlineto
          hintmask 1101011111000000
          -19 -2 -20 -3 -18 -1 rrcurveto
          hintmask 1100111111000000
          -7 -3 12 -13 hhcurveto
          -11 -35 -8 -14 -10 11 -8 10 hvcurveto
          hintmask 1110011111000000
          14 46 5 8 44 hvcurveto
          2 hlineto
          -48 -141 -52 -144 -68 -90 rrcurveto
          -29 -22 -26 -21 -29 hhcurveto
          -23 -17 17 27 2 hvcurveto
          2 41 -40 -21 3 -24 3 -31 24 -20 29 -10 52 -18 42 21 31 35 121 138 23 360 152 137 rrcurveto
          29 33 35 11 17 hhcurveto
          66 2 24 -55 -35 -55 -32 -53 -59 -26 -54 -25 rrcurveto
          -24 -11 -21 -13 -15 -70 139 -41 -74 vvcurveto
          -104 -165 -43 -44 35 vhcurveto
          -10 7 -9 -2 4 -9 21 -41 134 20 26 11 59 25 81 61 -47 70 -23 35 -65 50 -37 29 rrcurveto
          endchar
        </CharString>
        <CharString name="grave">
          -116 330 112 hstem
          62 178 vstem
          235 342 57 callsubr
          -33 26 -22 15 -18 14 -18 -7 -36 -12 44 -30 13 -8 rrcurveto
          -23 43 77 -37 14 hhcurveto
          13 -4 9 3 -5 hvcurveto
          endchar
        </CharString>
        <CharString name="greater">
          -61 270 -20 hstem
          82 299 vstem
          356 263 rmoveto
          26 24 10 2 -28 29 -44 44 -36 43 -33 52 -20 32 -19 -19 15 -36 12 -29 28 -57 42 -78 -105 -100 -73 -73 -31 -38 -31 -36 16 -11 12 10 90 75 84 85 85 81 rrcurveto
          endchar
        </CharString>
        <CharString name="greaterequal">
          157 -41 29 hstem
          56 409 vstem
          436 -41 -68 callsubr
          endchar
        </CharString>
        <CharString name="guillemotleft">
          -79 70 278 hstem
          84 50 80 50 vstem
          231 217 rmoveto
          -17 -18 -8 -1 20 -20 30 -29 25 -31 23 -36 13 -23 14 14 -10 25 -9 20 -20 40 -28 54 72 68 10 14 21 25 23 26 -13 8 -8 -8 -63 -52 -15 -21 -60 -55 rrcurveto
          -131 hmoveto
          -41 callsubr
        </CharString>
        <CharString name="guillemotright">
          -79 79 278 hstem
          200 50 81 -46 callgsubr
          130 hmoveto
          18 18 7 2 -20 19 -30 30 -27 30 -22 36 -14 23 -12 -13 10 -26 7 -19 21 -40 29 -53 -74 -70 -7 -13 -23 -26 -21 -25 11 -8 9 7 61 52 18 21 59 55 rrcurveto
          endchar
        </CharString>
        <CharString name="guilsinglleft">
          -163 70 278 hstem
          84 50 vstem
          100 217 rmoveto
          -41 callsubr
        </CharString>
        <CharString name="guilsinglright">
          -173 79 278 hstem
          200 -46 callgsubr
          endchar
        </CharString>
        <CharString name="h">
          -2 -43 13 244 15 428 -20 hstem
          15 26 168 57 150 45 vstem
          -84 callgsubr
          endchar
        </CharString>
        <CharString name="hbar">
          -2 -43 13 244 15 129 37 262 -20 hstemhm
          15 26 56 235 -123 57 150 45 hintmask 11111011
          134 259 rmoveto
          -20 11 -12 -27 19 -10 -22 -30 -29 -33 -29 -37 -9 -13 0 -23 10 11 27 29 41 48 14 18 -29 -74 -45 -132 -6 -15 rrcurveto
          hintmask 11111101
          -10 -19 53 24 10 5 19 11 84 132 57 52 -22 callgsubr
          rrcurveto
          5 9 -11 6 -6 -7 47 callgsubr
          -33 -17 -20 23 7 43 2 22 11 38 19 39 15 28 33 45 -3 33 -2 31 -37 -2 -46 -35 -55 -43 -87 -94 -42 -52 rrcurveto
          10 31 17 55 31 69 94 76 137 100 53 93 23 41 5 46 -57 11 -84 17 -85 -117 -55 -95 rrcurveto
          -1 -35 -35 0 -12 hhcurveto
          -20 -35 -39 3 46 hvcurveto
          16 28 1 1 28 hvcurveto
          -20 -37 -13 -31 -5 -10 -4 -8 -5 -9 -6 -8 rrcurveto
          140 110 rmoveto
          7 1 5 callgsubr
          hhcurveto
          -12 hlineto
          36 60 43 53 55 41 50 38 15 -29 -25 -48 -45 -85 -114 -105 -80 -52 15 34 15 31 17 31 rrcurveto
          12 10 1 2 10 hvcurveto
          endchar
        </CharString>
        <CharString name="hcircumflex">
          -2 -43 13 244 15 370 113 -55 -20 hstemhm
          15 26 168 57 150 45 hintmask 11011110
          -84 callgsubr
          299 351 rmoveto
          hintmask 11101110
          -78 callgsubr
        </CharString>
        <CharString name="hungarumlaut">
          -147 367 170 hstem
          122 214 vstem
          311 473 rmoveto
          15 9 37 49 -36 hhcurveto
          -45 8 -25 -34 -12 hvcurveto
          -3 -8 -20 -62 -12 -25 -8 -18 13 -6 12 20 22 40 20 28 15 26 rrcurveto
          -112 hmoveto
          15 8 39 49 -37 hhcurveto
          -44 6 -25 -34 -11 hvcurveto
          -3 -8 -20 -62 -12 -25 -9 -18 15 -6 11 20 23 40 19 28 15 26 rrcurveto
          endchar
        </CharString>
        <CharString name="hyphen">
          -42 callgsubr
        </CharString>
        <CharString name="i">
          -28 23 hstem
          22 43 vstem
          92 205 rmoveto
          -15 -23 -27 -37 -35 -43 -9 -53 callgsubr
          -83 callsubr
          -50 callsubr
          24 -85 callsubr
          -62 callgsubr
          -7 rrcurveto
          -42 -58 -75 -63 -32 -18 -88 callsubr
          -37 callgsubr
          rrcurveto
          115 173 rmoveto
          -39 callsubr
        </CharString>
        <CharString name="iacute">
          -28 23 3 27 320 -20 hstemhm
          -26 36 12 43 114 35 hintmask 10001000
          -101 callgsubr
          hintmask 01110100
          9 300 rmoveto
          7 7 0 17 -13 -81 callsubr
          121 58 22 17 rrcurveto
          endchar
        </CharString>
        <CharString name="ibreve">
          -28 23 365 28 hstemhm
          22 43 1 259 hintmask 10100000
          -101 callgsubr
          hintmask 01010000
          28 354 rmoveto
          -2 1 -5 3 -45 callgsubr
          11 -5 -31 vhcurveto
          -25 -167 247 28 36 148 rrcurveto
          2 -1 7 -5 2 vhcurveto
          endchar
        </CharString>
        <CharString name="icircumflex">
          -28 23 378 112 hstemhm
          22 43 11 205 hintmask 10100000
          -101 callgsubr
          hintmask 01010000
          -14 253 -22 callsubr
          -73 -72 -18 -14 -47 callgsubr
        </CharString>
        <CharString name="idieresis">
          -28 23 368 66 hstem
          22 43 10 30 callgsubr
          vstem
          -101 callgsubr
          -156 -39 callgsubr
          8 19 29 10 vhcurveto
          endchar
        </CharString>
        <CharString name="igrave">
          -28 23 369 111 hstemhm
          22 43 5 177 hintmask 00000000
          hintmask 10100000
          -101 callgsubr
          hintmask 01010000
          -49 235 -28 callsubr
        </CharString>
        <CharString name="ij">
          -17 -346 25 293 23 hstem
          22 43 400 69 vstem
          186 -270 rmoveto
          31 49 40 83 43 88 39 22 118 106 44 50 26 30 -5 24 -26 -30 -62 -72 -88 -73 -26 -14 37 80 37 82 35 82 5 11 -54 31 -18 -22 -17 -23 -33 -45 -31 -39 rrcurveto
          -1 -1 -1 0 -1 vvcurveto
          -42 -58 -75 -63 -32 -18 -88 callsubr
          -37 callgsubr
          rrcurveto
          -15 -23 -27 -37 -35 -43 -9 -53 callgsubr
          -83 callsubr
          -50 callsubr
          24 44 31 52 55 25 36 rrcurveto
          2 0 0 2 1 vhcurveto
          17 22 33 37 13 18 -28 -90 -37 -80 -41 -85 -65 -43 -104 -69 -50 -58 -53 -62 -30 -60 63 -31 5 -3 8 -2 7 -2 68 -12 59 67 37 55 rrcurveto
          36 182 -12 callsubr
          268 466 7 callgsubr
          -283 hmoveto
          -39 callsubr
        </CharString>
        <CharString name="imacron">
          -28 23 374 38 hstemhm
          22 43 4 235 hintmask 10100000
          -101 callgsubr
          hintmask 01010000
          -41 238 -60 callgsubr
        </CharString>
        <CharString name="infinity">
          183 107 311 -29 24 hstemhm
          19 36 216 56 254 60 hintmask 00000000
          hintmask 10111000
          270 237 rmoveto
          -44 -45 -86 -87 -61 52 -68 56 85 190 115 -26 58 -13 -7 -66 7 -51 rrcurveto
          58 22 rmoveto
          37 39 25 16 42 30 rrcurveto
          hintmask 01111000
          33 23 46 18 31 -6 73 -15 -43 -114 -31 -41 -71 -94 -132 -27 -10 127 rrcurveto
          -1 14 1 15 15 vvcurveto
          -56 -55 rmoveto
          6 -57 20 -35 60 -13 110 -21 125 116 34 81 20 49 11 65 -72 14 -46 9 -64 -22 -40 -26 -39 -26 -34 -21 -35 -37 -2 45 -11 65 -70 15 -45 9 -48 -17 -39 -30 rrcurveto
          -38 -30 -25 -48 -17 -42 -28 -77 15 -57 51 -11 76 -17 74 67 51 52 rrcurveto
          endchar
        </CharString>
        <CharString name="integral">
          -172 -385 28 916 26 hstem
          -214 35 635 36 vstem
          115 138 rmoveto
          -36 -96 -34 -107 -36 -97 -23 -60 -52 -134 -75 -1 rrcurveto
          -23 -16 17 27 1 hvcurveto
          1 41 -38 -21 2 -24 3 -31 25 -20 28 -10 119 -40 59 156 25 81 69 221 75 227 121 200 41 67 50 24 26 1 rrcurveto
          22 12 -17 -27 -5 hvcurveto
          -7 -41 42 20 1 25 2 30 -23 20 -27 10 -113 41 -81 -156 -38 -81 -35 -76 -33 -92 -29 -77 rrcurveto
          endchar
        </CharString>
        <CharString name="iogonek">
          -28 23 hstem
          22 43 vstem
          55 -146 34 callgsubr
          40 38 43 17 30 28 27 -1 31 12 19 35 callsubr
          47 callgsubr
          rrcurveto
          -88 callsubr
          -37 callgsubr
          -15 -23 -27 -37 -35 -43 rrcurveto
          -9 -53 callgsubr
          -83 callsubr
          5 -17 10 -10 12 -5 -28 -19 -57 -35 -46 -32 -51 -35 -33 -54 30 -38 rrcurveto
          -16 13 22 -11 17 hhcurveto
          65 58 87 14 13 hvcurveto
          11 13 -4 13 -17 -16 rrcurveto
          152 524 rmoveto
          -39 callsubr
        </CharString>
        <CharString name="itilde">
          -28 23 410 45 hstemhm
          22 43 -19 269 hintmask 10100000
          -101 callgsubr
          hintmask 01010000
          24 297 rmoveto
          2 5 -16 3 -4 -6 -11 -31 -19 -8 -30 9 9 callgsubr
          22 callsubr
          -13 0 callsubr
        </CharString>
        <CharString name="j">
          -243 -346 25 hstem
          239 68 vstem
          -40 -270 rmoveto
          31 49 40 83 43 88 38 22 119 106 44 50 26 30 -5 24 -26 -30 -63 -72 -87 -73 -26 -14 37 80 36 82 33 callgsubr
          rrcurveto
          42 callsubr
          -29 -90 -36 -80 -41 -85 -65 -43 -104 -69 -50 -58 -54 -62 -30 -60 64 -31 5 -3 8 -2 7 -2 68 -12 58 67 38 55 rrcurveto
          36 182 -12 callsubr
          268 466 rmoveto
          20 25 35 -42 -33 vhcurveto
          -6 -5 -54 -40 -5 vvcurveto
          -21 25 0 18 10 24 38 11 vhcurveto
          endchar
        </CharString>
        <CharString name="jcircumflex">
          -243 -346 25 650 113 hstem
          10 205 24 68 vstem
          12 -58 rmoveto
          -41 -85 -59 -128 -78 -65 -133 -106 -89 149 159 115 74 53 85 30 82 37 rrcurveto
          263 186 rmoveto
          26 30 -5 24 -26 -30 -63 -72 -76 -47 -26 -14 37 80 25 56 33 callgsubr
          42 callsubr
          rrcurveto
          -29 -90 -27 -62 -41 -84 -102 -46 -108 -34 -92 -66 -50 -36 -31 -48 -1 -40 -4 -105 141 3 68 35 131 71 48 145 61 127 39 22 107 81 44 50 rrcurveto
          12 226 -25 callsubr
          -2 -73 -72 -18 -51 callgsubr
          17 -14 0 20 -7 3 callsubr
        </CharString>
        <CharString name="k">
          -114 -310 25 hstem
          271 -87 callsubr
          endchar
        </CharString>
        <CharString name="kcommaaccent">
          -61 -310 25 39 175 hstem
          17 118 136 -87 callsubr
          -57 -385 42 callgsubr
          -24 22 5 -11 -33 -9 -30 -17 -24 -19 -23 rrcurveto
          -13 -13 -10 -13 -17 callgsubr
          12 8 vhcurveto
          7 5 29 28 26 34 rrcurveto
          23 28 -27 callsubr
        </CharString>
        <CharString name="kgreenlandic">
          -61 -310 25 hstem
          271 30 100 14 vstem
          361 250 rmoveto
          48 24 -40 38 -47 -23 -33 -16 -37 -35 -35 -40 8 30 -24 -16 -2 -13 -4 -10 -4 -14 -4 -13 -28 -38 -27 -39 -18 -27 20 77 56 134 16 31 9 18 12 0 8 16 rrcurveto
          5 14 14 27 1 18 rrcurveto
          10 -29 36 -19 -11 vhcurveto
          -11 -8 -34 -112 -15 -35 -2 -9 -71 -89 -33 -42 -9 -13 0 -23 10 11 27 29 41 48 14 18 -33 -83 -44 -127 -6 -11 -9 -19 54 24 10 5 5 2 5 9 6 11 rrcurveto
          23 40 20 36 25 33 -9 -65 6 -76 72 -4 27 -1 24 21 19 14 48 36 50 61 27 35 8 10 -20 4 -7 -10 -41 -58 -65 -56 -33 -16 -32 -18 -28 28 -10 39 rrcurveto
          -9 30 -1 35 3 26 12 14 14 12 16 13 41 33 42 8 27 12 rrcurveto
          endchar
        </CharString>
        <CharString name="l">
          -223 -32 19 572 -20 hstem
          -44 39 324 36 vstem
          -95 callgsubr
          endchar
        </CharString>
        <CharString name="lacute">
          -247 -32 19 290 27 255 -20 85 -20 hstemhm
          -44 39 230 36 58 36 75 35 hintmask 10101010
          -95 callgsubr
          hintmask 01010101
          462 591 61 callsubr
          18 -14 -53 callsubr
          122 25 callsubr
        </CharString>
        <CharString name="lcaron">
          -12 -32 19 553 25 -6 -20 161 -20 hstemhm
          -44 39 324 36 hintmask 10101100
          -95 callgsubr
          hintmask 01010000
          442 397 rmoveto
          12 15 callsubr
          19 5 -12 -34 -8 -28 -36 callgsubr
          7 vhcurveto
          7 5 29 30 28 33 rrcurveto
          22 27 20 32 13 vvcurveto
          endchar
        </CharString>
        <CharString name="lcommaaccent">
          -247 -240 175 33 19 572 -20 hstemhm
          -44 39 -31 117 238 36 hintmask 01110100
          -95 callgsubr
          hintmask 10001000
          -8 -225 42 callgsubr
          -23 22 5 -11 -34 -9 -30 -17 24 callsubr
          7 5 29 29 26 33 rrcurveto
          23 28 -27 callsubr
        </CharString>
        <CharString name="ldot">
          -123 -32 19 280 61 231 -20 hstemhm
          -44 39 320 60 -56 36 hintmask 10110100
          -95 callgsubr
          hintmask 01001000
          286 177 rmoveto
          15 5 22 -33 -25 vhcurveto
          -5 -5 -27 -24 -5 vvcurveto
          -16 20 0 14 8 18 28 10 vhcurveto
          endchar
        </CharString>
        <CharString name="less">
          -79 17 455 hstem
          79 158 -158 297 vstem
          102 228 rmoveto
          -26 -25 -9 -4 28 -27 44 -43 37 -45 33 -51 20 -33 17 19 -14 38 -11 27 -30 58 -41 77 105 100 72 74 32 37 31 37 -16 12 -13 -11 -90 -75 -84 -85 -85 -80 rrcurveto
          endchar
        </CharString>
        <CharString name="lessequal">
          51 -41 29 hstem
          56 439 vstem
          179 228 rmoveto
          -27 -24 -8 -5 28 -27 43 -43 57 -36 59 -50 34 -30 34 22 -33 30 -29 28 -70 49 -40 77 105 100 97 38 42 37 41 36 -21 12 -17 -10 -72 -45 -138 -78 -85 -81 rrcurveto
          257 -269 -68 callsubr
          endchar
        </CharString>
        <CharString name="lira">
          91 -27 42 143 37 29 36 callgsubr
          119 235 108 27 hintmask 1110001111000000
          175 369 rmoveto
          -9 -57 callgsubr
          -10 13 8 35 2 4 33 hvcurveto
          -11 -25 -13 -26 -10 -25 rrcurveto
          -1 -10 -11 -2 -10 hhcurveto
          -1 -9 -4 18 -16 hhcurveto
          -15 -45 -12 -17 -14 15 -10 13 hvcurveto
          hintmask 1101001111000000
          11 31 4 5 38 hvcurveto
          -24 -59 -21 -55 -17 -44 rrcurveto
          -2 -1 -1 -2 hhcurveto
          -32 -11 -28 -34 -1 -37 rrcurveto
          -13 11 3 14 8 vhcurveto
          3 3 2 2 3 hvcurveto
          2 -2 13 7 12 18 24 22 rcurveline
          21 -9 174 -45 26 -5 57 -11 56 -2 49 36 -85 callsubr
          -56 callgsubr
          -24 -33 -33 -37 -33 -26 -49 -38 -57 -2 -58 7 -63 9 -84 21 -53 18 rrcurveto
          -12 3 -11 4 -13 3 24 51 29 59 25 51 rrcurveto
          hintmask 1100101111000000
          52 7 51 8 14 5 rrcurveto
          12 44 -28 5 -16 hhcurveto
          hintmask 1100011111000000
          -34 -35 -3 -4 -35 hvcurveto
          13 25 14 27 15 27 47 7 54 8 11 5 rrcurveto
          12 44 -28 5 -16 hhcurveto
          -30 -34 -4 -3 -31 hvcurveto
          40 70 44 61 35 24 50 33 80 12 2 -83 2 -14 -4 -15 -8 -13 10 callsubr
          -67 -26 -43 -49 rrcurveto
          -37 -41 -34 -54 -30 -59 rrcurveto
          -1 -12 -10 0 -9 hhcurveto
          endchar
        </CharString>
        <CharString name="logicalnot">
          287 208 31 31 -20 hstem
          715 259 rmoveto
          14 -16 2 -18 vhcurveto
          -205 -5 -206 -25 -205 -8 -46 -3 18 -27 20 1 204 11 203 15 203 15 -17 -67 -3 -73 -2 -70 1 -7 4 -4 5 -1 5 -2 5 3 4 6 7 58 18 58 11 58 rrcurveto
          2 16 8 19 16 vvcurveto
          endchar
        </CharString>
        <CharString name="longs">
          -172 -79 callgsubr
          endchar
        </CharString>
        <CharString name="longs_t">
          29 322 32 vstem
          -79 callgsubr
          394 39 -100 callgsubr
          endchar
        </CharString>
        <CharString name="lozenge">
          1042 endchar
        </CharString>
        <CharString name="lslash">
          -223 -32 19 572 -20 hstem
          -303 39 220 39 65 36 223 36 vstem
          89 128 rmoveto
          45 37 45 40 42 43 31 6 27 8 13 5 8 2 44 14 -3 11 -2 6 -23 2 -31 -9 -25 -6 rcurveline
          59 62 52 68 43 75 rrcurveto
          65 36 -33 35 -45 hhcurveto
          -68 -45 -60 -49 -38 hvcurveto
          -35 -46 -52 -92 -40 -90 -58 -11 rcurveline
          -20 -5 -24 -46 44 14 6 2 15 3 19 5 -26 -63 -19 -59 -2 -37 rrcurveto
          -46 -2 18 -34 60 hhcurveto
          19 23 7 15 20 hvcurveto
          50 37 63 66 20 35 6 11 -12 31 callsubr
          -74 -67 -39 -21 -58 -33 -14 54 6 49 1 10 5 16 7 20 rrcurveto
          57 137 rmoveto
          46 88 43 77 51 72 61 47 rlinecurve
          44 33 23 -23 -27 -49 -33 -63 -64 -92 -66 -76 rrcurveto
          -38 -40 rmoveto
          -29 -29 -27 -25 -26 -17 7 19 6 21 10 19 19 5 20 3 20 4 rrcurveto
          endchar
        </CharString>
        <CharString name="m">
          126 250 72 47 47 vstem
          82 160 rmoveto
          -25 -72 -32 -93 -6 -13 -10 -19 53 24 10 5 19 11 84 132 57 52 73 63 9 -21 -18 -32 -9 -17 -31 -60 -20 -48 -15 -38 53 9 12 29 30 31 60 70 61 24 rrcurveto
          -10 -15 -11 -27 -7 -18 -14 -35 -11 -60 8 -27 20 -60 74 -40 callsubr
          -56 callgsubr
          -41 -58 -75 -63 -33 -71 callgsubr
          rrcurveto
          4 32 24 69 35 53 27 41 -70 -24 -11 -4 -45 -17 -58 -48 -35 -32 9 16 19 44 10 19 42 83 -46 17 -65 -50 -55 -43 -87 -94 -42 -52 12 32 32 89 25 55 rrcurveto
          8 16 1 9 -16 4 -45 12 -4 -35 -3 -17 -17 -33 -8 -13 -41 -54 -9 -13 0 -23 10 11 12 12 15 20 13 20 rrcurveto
          endchar
        </CharString>
        <CharString name="macron">
          -81 352 37 hstem
          132 235 vstem
          314 360 rmoveto
          7 2 5 callgsubr
          -41 -85 -1 -22 hhcurveto
          -20 -29 callgsubr
          77 4 48 3 rrcurveto
          endchar
        </CharString>
        <CharString name="minus">
          81 135 38 hstem
          142 378 vstem
          466 144 rmoveto
          -18 callgsubr
          -41 -228 -1 -21 hhcurveto
          -21 -34 -39 2 46 hvcurveto
          34 2 220 3 46 4 rrcurveto
          endchar
        </CharString>
        <CharString name="mu">
          50 callgsubr
          46 18 rmoveto
          -19 15 33 -10 18 hhcurveto
          82 62 145 10 15 hvcurveto
          -14 -35 -12 -67 9 -27 20 -60 73 -40 callsubr
          -34 callsubr
          -20 23 6 43 5 36 12 34 15 29 rrcurveto
          13 26 37 62 12 20 rrcurveto
          18 10 -49 9 -13 hhcurveto
          -13 -20 -34 -64 -18 -26 -37 -54 -43 -58 -37 -30 -70 -56 -45 23 32 85 25 67 41 53 21 20 5 5 6 10 -12 5 -14 5 -22 0 -18 -5 -9 -3 -13 -31 -12 -21 rrcurveto
          -12 -22 -10 -26 -10 -25 -4 -9 rcurveline
          -54 -126 -65 -206 -61 -121 -54 callgsubr
          3 16 23 62 12 27 -20 -11 31 85 16 46 24 61 21 58 rrcurveto
          endchar
        </CharString>
        <CharString name="multiply">
          9 -15 385 hstem
          21 453 vstem
          370 -1 rmoveto
          11 -19 43 7 -8 18 -14 30 -63 84 -68 81 78 63 65 44 52 33 20 14 -27 21 -20 -10 -28 -15 -76 -61 -81 -69 -58 70 -57 62 -27 15 -20 11 -25 -15 18 -15 rrcurveto
          60 -54 47 -49 38 -45 -93 -78 -91 -84 -21 -33 -14 -21 26 -6 19 20 69 74 64 60 58 48 58 -71 35 -60 30 -50 rrcurveto
          endchar
        </CharString>
        <CharString name="n">
          53 callsubr
          -98 callgsubr
          endchar
        </CharString>
        <CharString name="nacute">
          -49 -7 27 320 -20 hstemhm
          1 31 43 36 86 49 34 35 hintmask 00101000
          -98 callgsubr
          hintmask 11010100
          135 242 rmoveto
          8 7 0 17 -14 -81 callsubr
          122 58 21 17 rrcurveto
          endchar
        </CharString>
        <CharString name="napostrophe">
          -49 293 175 hstemhm
          1 31 -23 117 71 49 hintmask 01010000
          -98 callgsubr
          hintmask 10100000
          -140 242 rmoveto
          12 40 callgsubr
          -19 2 -12 -4 vhcurveto
          -7 -24 22 5 -11 -34 -9 -30 -17 -23 -19 -23 rrcurveto
          -12 52 callsubr
          7 5 29 29 26 34 rrcurveto
          23 27 21 32 13 vvcurveto
          endchar
        </CharString>
        <CharString name="ncaron">
          -49 362 112 hstemhm
          1 31 147 206 -188 49 hintmask 01010000
          -98 callgsubr
          hintmask 10100000
          -84 261 60 callgsubr
          72 18 14 11 9 10 25 -29 -19 -32 -21 -25 -25 -33 -65 callgsubr
        </CharString>
        <CharString name="ncommaaccent">
          -49 -251 175 hstemhm
          1 31 23 117 25 49 hintmask 01010000
          -98 callgsubr
          hintmask 10100000
          -94 -52 callgsubr
        </CharString>
        <CharString name="nine">
          39 638 55 hstem
          132 55 vstem
          157 334 rmoveto
          80 10 58 95 91 hhcurveto
          151 -32 -180 -104 -46 hvcurveto
          -50 -112 -88 -93 -72 -16 -40 -9 -90 7 16 107 1 8 -20 2 -2 -12 -20 -127 97 -16 58 13 86 17 124 100 61 124 rrcurveto
          136 69 -3 181 -180 hhcurveto
          -110 -107 -96 -109 -14 hvcurveto
          -11 -92 70 -35 66 1 rrcurveto
          41 46 21 23 20 hvcurveto
          17 19 -18 3 -9 -7 rrcurveto
          -19 -23 -25 -20 -32 hhcurveto
          -46 -1 -55 29 11 82 rrcurveto
          endchar
        </CharString>
        <CharString name="notequal">
          81 88 34 110 32 hstem
          135 404 vstem
          207 -22 rmoveto
          19 34 24 37 27 39 73 1 82 3 27 2 41 callsubr
          -156 hlineto
          28 38 28 39 27 34 45 1 40 1 16 2 rrcurveto
          17 callsubr
          -22 6 -32 vhcurveto
          -76 hlineto
          77 93 20 21 -41 6 -15 -15 rlinecurve
          -11 -10 -33 -42 -40 -53 -172 -1 rcurveline
          -22 -33 -39 3 46 hvcurveto
          17 1 70 1 69 2 -26 -35 -28 -39 -25 -36 rrcurveto
          -96 hlineto
          -20 -35 -40 2 46 hvcurveto
          12 1 31 0 37 2 -36 -53 -29 -42 -5 -14 -7 -23 35 2 12 21 rrcurveto
          endchar
        </CharString>
        <CharString name="nsuperior">
          53 callsubr
          266 617 rmoveto
          -25 -47 -82 -158 105 -10 -66 callgsubr
          -56 callgsubr
          -41 -58 -76 -64 -32 -17 -32 -18 -20 24 6 43 3 18 7 28 13 30 rrcurveto
          13 34 23 31 11 34 20 60 -42 7 -58 -44 -55 -42 -87 -94 -42 -52 12 32 32 89 25 55 8 16 1 9 -16 4 -52 13 4 -46 -5 -12 -20 -55 -59 -172 -8 -20 rrcurveto
          -10 -18 53 23 10 5 19 12 84 132 57 51 73 64 4 -25 -18 -32 rrcurveto
          endchar
        </CharString>
        <CharString name="ntilde">
          -49 397 45 hstemhm
          1 31 114 269 -218 49 hintmask 01010000
          -98 callgsubr
          hintmask 10100000
          149 235 rmoveto
          2 5 -16 4 -4 -7 -11 -31 -19 -7 -30 8 9 callgsubr
          -2 -3 13 4 callsubr
          38 7 36 -22 37 -14 0 callsubr
        </CharString>
        <CharString name="numbersign">
          317 125 34 198 33 hstemhm
          15 734 -602 39 201 39 hintmask 11100000
          730 363 rmoveto
          39 10 -24 14 -50 1 rrcurveto
          -13 -58 1 1 -75 hvcurveto
          35 108 30 92 1 8 rrcurveto
          -1 hlineto
          2 40 -19 -18 -18 -47 -5 -14 -29 -76 -33 -93 rrcurveto
          -65 -72 2 -2 -68 hvcurveto
          37 110 30 94 1 8 -1 1 rcurveline
          2 40 -20 -19 -17 -46 -68 -188 rcurveline
          -95 -76 -2 -5 -6 hvcurveto
          -19 -11 1 -23 46 3 14 1 53 0 70 1 -24 -65 -24 -70 -20 -60 rrcurveto
          -89 -70 -2 -5 -6 hvcurveto
          -19 -12 2 -22 46 2 12 2 48 0 65 1 rrcurveto
          hintmask 11011000
          -21 -64 -14 -45 2 -6 5 -21 22 -7 12 44 33 99 rcurveline
          202 2 -21 -66 -15 -49 2 -7 rlinecurve
          5 -21 22 -7 12 45 34 105 rcurveline
          107 2 88 1 7 2 rrcurveto
          2 vlineto
          39 10 -24 13 -50 2 rrcurveto
          -12 -64 1 1 -80 hvcurveto
          66 198 103 1 82 1 8 3 rlinecurve
          -229 -5 rmoveto
          -24 -67 -25 -70 -20 -61 rrcurveto
          -65 -71 1 -1 -66 hvcurveto
          65 195 rlineto
          endchar
        </CharString>
        <CharString name="o">
          -43 callgsubr
          hstem
          15 40 vstem
          -107 callsubr
          endchar
        </CharString>
        <CharString name="oacute">
          -107 -41 25 15 28 160 22 76 19 43 -20 hstemhm
          15 40 22 37 168 35 hintmask 10110100
          -107 callsubr
          hintmask 01001011
          179 370 rmoveto
          7 6 -2 callsubr
          -16 -26 -23 -12 -9 -42 39 callsubr
          -3 -4 -5 -8 -72 callgsubr
        </CharString>
        <CharString name="obreve">
          -43 callgsubr
          61 28 hstemhm
          15 40 101 259 hintmask 11101000
          -107 callsubr
          hintmask 00010100
          184 427 rmoveto
          -2 1 -5 3 -45 callgsubr
          11 -5 -31 vhcurveto
          -25 -167 247 28 36 148 rrcurveto
          2 -1 7 -5 2 vhcurveto
          endchar
        </CharString>
        <CharString name="ocircumflex">
          -43 callgsubr
          69 112 hstemhm
          15 40 96 205 hintmask 11101000
          -107 callsubr
          hintmask 00010100
          127 321 -22 callsubr
          -73 -72 -18 -14 -47 callgsubr
        </CharString>
        <CharString name="odieresis">
          -43 callgsubr
          60 66 hstemhm
          15 40 102 67 -67 225 -66 66 hintmask 00000000
          hintmask 11111010
          -81 callgsubr
          -8 331 rmoveto
          15 20 29 -32 -27 vhcurveto
          -5 -3 -43 -32 -58 callsubr
          29 -32 -27 vhcurveto
          hintmask 11111101
          -5 -3 -43 -32 4 callgsubr
        </CharString>
        <CharString name="oe">
          66 -41 25 -2 148 57 22 76 19 -12 -20 hstem
          9 41 -35 40 vstem
          205 47 rmoveto
          -32 -28 -31 -21 -25 hhcurveto
          -37 -12 34 39 7 hvcurveto
          91 16 96 102 44 hhcurveto
          41 -14 -46 -19 -2 hvcurveto
          -1 -10 12 4 3 1 12 9 4 39 -14 24 -11 18 -15 5 -8 3 -30 11 -45 -16 -37 -33 -45 -40 -33 -53 -10 -38 -18 -62 12 -47 33 -20 33 -21 54 3 45 38 rrcurveto
          8 8 10 9 8 10 17 -64 92 -16 78 31 40 16 37 25 33 31 25 23 21 26 17 29 4 5 0 5 -5 2 -2 2 -5 0 -4 -5 -36 -55 -64 -54 -74 -30 rrcurveto
          -65 -26 -77 8 callgsubr
          -37 -30 -56 -32 -32 -3 -15 -1 7 -14 15 1 45 4 95 38 36 53 rrcurveto
          19 28 6 51 -41 14 -75 25 -155 -131 -30 -68 -7 -14 -3 -12 -3 -13 -7 -12 -8 -11 -6 -5 rrcurveto
          endchar
        </CharString>
        <CharString name="ogonek">
          1042 352 -173 26 callsubr
          51 46 56 23 39 38 6 7 -28 1 -12 -8 -35 -23 -70 -43 -57 -40 -13 callsubr
          endchar
        </CharString>
        <CharString name="ograve">
          -43 callgsubr
          60 111 hstemhm
          15 40 91 178 hintmask 00000000
          hintmask 11101000
          -81 callgsubr
          hintmask 00010100
          94 303 57 callsubr
          -34 27 -21 15 -19 13 -17 -6 -36 -12 43 -30 14 -8 18 callsubr
          12 -3 1 callsubr
        </CharString>
        <CharString name="ohungarumlaut">
          -43 callgsubr
          55 133 hstemhm
          15 40 152 167 hintmask 11101000
          -107 callsubr
          hintmask 00010100
          130 370 rmoveto
          12 6 30 38 -29 hhcurveto
          -35 7 -19 -28 -9 hvcurveto
          -4 -5 -15 -48 -9 -20 -7 -14 11 -5 9 16 17 31 15 22 32 callsubr
          -28 -9 hvcurveto
          -1 -5 -16 -48 -10 -20 -7 -14 12 -5 8 16 18 31 15 22 11 20 rrcurveto
          endchar
        </CharString>
        <CharString name="omacron">
          -43 callgsubr
          59 37 hstemhm
          15 40 96 235 hintmask 11101000
          -107 callsubr
          hintmask 00010100
          107 300 rmoveto
          8 1 5 callgsubr
          -41 -85 -1 -23 hhcurveto
          -20 -35 -39 3 47 hvcurveto
          33 1 78 4 47 4 rrcurveto
          endchar
        </CharString>
        <CharString name="one">
          -146 48 35 hstem
          275 13 rmoveto
          -35 5 -44 0 -41 -1 30 111 104 220 82 162 6 12 -51 25 -15 -20 -21 -30 -25 -30 -25 -28 -29 -32 -34 -33 -28 -24 -20 -17 8 -8 14 9 38 25 46 40 36 35 rrcurveto
          -56 -130 -81 -211 -17 -78 rrcurveto
          -1 -12 -11 -1 -10 hhcurveto
          -22 -3 -18 0 -15 -5 -27 -7 -12 -35 19 4 35 6 36 9 36 6 6 -10 22 7 6 7 rrcurveto
          1 vlineto
          4 40 41 -3 35 hhcurveto
          25 -1 16 3 -15 hvcurveto
          endchar
        </CharString>
        <CharString name="ordfeminine">
          192 455 25 274 30 hstem
          225 467 rmoveto
          80 95 140 7 17 hvcurveto
          -13 -35 -12 -60 9 -26 -50 callsubr
          23 50 37 62 66 18 35 -62 callgsubr
          -8 -41 -57 -75 -64 -33 -17 -32 -18 -20 24 6 42 4 33 20 61 36 51 rrcurveto
          17 9 -39 7 -10 hhcurveto
          -9 -76 -84 -15 -14 hvcurveto
          -26 -27 -45 -39 -26 -21 -14 -11 -49 -37 -14 20 -31 44 83 95 28 26 rrcurveto
          47 52 21 callgsubr
          -3 -16 11 hvcurveto
          5 -3 1 0 8 vvcurveto
          10 -7 10 -10 6 vhcurveto
          -26 19 -44 -3 -30 -7 -75 -19 -56 callsubr
          -20 15 28 -13 21 hhcurveto
          endchar
        </CharString>
        <CharString name="ordmasculine">
          119 455 25 203 22 77 18 hstem
          177 40 vstem
          387 568 rmoveto
          -45 -30 -42 -33 -31 hhcurveto
          -38 -11 34 39 6 hvcurveto
          91 16 97 103 43 hhcurveto
          19 3 -17 -11 -3 hvcurveto
          -7 15 -2 3 17 vhcurveto
          3 25 -15 16 -17 6 -30 11 -45 -16 -38 -32 -45 -40 -32 -54 -10 -38 -19 -62 13 -46 32 -20 34 -22 54 3 45 39 12 11 14 14 12 13 rrcurveto
          -15 8 16 -10 18 hhcurveto
          38 40 43 27 23 hvcurveto
          15 18 12 16 7 13 5 8 -13 7 -5 -8 -10 -14 -12 -15 -13 -13 rrcurveto
          -22 -20 -32 -37 -33 hhcurveto
          -12 -12 9 18 -1 hvcurveto
          23 32 35 61 -14 41 -9 28 -44 -10 12 -29 5 -11 7 -22 -26 -53 -18 5 -13 -17 6 -21 rrcurveto
          -2 1 -2 1 -2 vhcurveto
          endchar
        </CharString>
        <CharString name="oslash">
          -43 callgsubr
          hstem
          15 40 vstem
          346 335 rmoveto
          10 12 -29 1 -10 -10 -8 -6 -19 -25 -26 -34 -5 7 -8 5 -9 3 -30 11 -45 -16 -37 -33 -45 -40 -31 -53 -12 -38 -16 -59 9 -45 29 -21 -17 -25 -11 -17 -2 -8 rrcurveto
          -5 -14 25 5 7 14 21 35 rcurveline
          33 -14 47 7 39 33 -74 callsubr
          -11 -9 4 5 -7 hvcurveto
          47 74 64 85 52 66 4 -3 8 4 2 11 rrcurveto
          7 vlineto
          33 40 26 31 16 17 rrcurveto
          -265 -315 rmoveto
          -5 13 0 16 3 18 rrcurveto
          91 16 96 102 44 hhcurveto
          7 5 -2 -4 3 hvcurveto
          -53 -69 -70 -96 -46 -69 rrcurveto
          endchar
        </CharString>
        <CharString name="oslashacute">
          -107 -77 27 9 25 203 22 61 -20 35 19 hstemhm
          -68 37 46 40 -33 339 -224 35 hintmask 1111111010000000
          357 338 rmoveto
          12 12 -30 2 -12 -12 -8 -8 -23 -29 -29 -38 -5 12 -10 7 -10 4 -30 11 -45 -16 -37 -33 -45 -40 -33 -53 -10 -38 -18 -62 12 -47 33 -20 rrcurveto
          hintmask 1111110100000000
          -25 -36 -18 -27 -4 -12 -3 -13 26 5 9 16 10 19 12 20 13 20 32 -10 43 7 37 31 -74 callsubr
          -9 -6 1 3 -6 hvcurveto
          87 134 127 157 43 49 rrcurveto
          -278 -271 rmoveto
          91 16 96 102 44 hhcurveto
          11 5 -6 -6 3 hvcurveto
          -53 -70 -69 -93 -48 -71 -8 13 -1 18 4 22 rrcurveto
          180 298 -71 callsubr
        </CharString>
        <CharString name="otilde">
          -43 callgsubr
          90 45 hstemhm
          15 40 61 269 hintmask 11101000
          -107 callsubr
          hintmask 00010100
          160 353 rmoveto
          2 -19 callsubr
          -27 9 -34 21 -20 7 -46 17 -34 -47 -30 -42 22 callsubr
          -14 rrcurveto
          38 -12 37 32 18 40 rrcurveto
          endchar
        </CharString>
        <CharString name="p">
          -88 21 callsubr
          352 223 7 callsubr
          15 40 25 39 rrcurveto
          41 26 4 29 -44 hhcurveto
          -14 -17 -2 -10 hvcurveto
          -2 -53 -51 -124 -47 -124 -29 callsubr
          44 47 30 rrcurveto
          50 34 80 74 -10 76 rrcurveto
          -311 -224 rmoveto
          34 callsubr
          -77 -45 -113 -91 -85 hhcurveto
          endchar
        </CharString>
        <CharString name="paragraph">
          71 224 25 -25 33 291 24 hstemhm
          51 39 hintmask 00000000
          hintmask 01110000
          422 538 rmoveto
          3 4 -1 3 -3 3 rrcurveto
          19 19 -3 -2 20 hvcurveto
          -22 -39 -50 -122 -46 -125 -25 -5 -26 -3 -26 -1 45 102 50 100 43 88 rrcurveto
          -150 -314 rmoveto
          27 -2 25 0 25 1 -47 -129 -41 -124 3 -30 3 -15 15 0 7 7 36 200 119 228 88 178 rrcurveto
          11 7 -22 9 -16 hhcurveto
          -97 29 -150 -19 -89 -41 -150 -72 -5 -166 164 -47 22 -7 21 -5 23 -2 -48 -131 -41 -127 3 -30 3 -15 15 0 7 7 17 93 35 100 41 99 rrcurveto
          hintmask 10110000
          -23 25 rmoveto
          -14 1 -14 2 -14 2 -235 45 148 226 251 22 -20 -35 -54 -130 -48 -133 rrcurveto
          endchar
        </CharString>
        <CharString name="parenleft">
          -78 -147 -21 730 -20 hstem
          31 56 vstem
          455 562 rmoveto
          -148 -32 -153 -118 -77 -167 -58 -128 -7 -159 64 -123 11 -21 45 24 -11 21 -47 95 5 149 37 110 56 161 138 119 142 46 22 8 3 20 -22 -5 rrcurveto
          endchar
        </CharString>
        <CharString name="parenright">
          59 -138 -21 729 -20 hstem
          347 57 vstem
          -21 -165 rmoveto
          147 32 154 117 76 168 59 128 6 158 -64 124 -11 21 -45 -24 11 -21 48 -95 -4 -149 -39 -110 -56 -161 -137 -120 -143 -46 -21 -7 -3 -20 22 5 rrcurveto
          endchar
        </CharString>
        <CharString name="partialdiff">
          -143 26 callgsubr
          95 110 44 186 -33 106 -20 68 -93 97 -70 -62 -28 -25 -11 -48 9 -56 6 -36 34 -38 -7 41 -27 175 161 27 16 -154 8 -74 -14 -101 -29 -73 rrcurveto
          -59 callsubr
        </CharString>
        <CharString name="percent">
          6 -4 callsubr
          hintmask 0000000000000000
          hintmask 1111110110000000
          369 84 -69 callgsubr
          hintmask 1111111010000000
          -73 callgsubr
        </CharString>
        <CharString name="period">
          -277 -12 61 hstem
          94 61 vstem
          155 27 -62 callsubr
          endchar
        </CharString>
        <CharString name="periodcentered">
          -251 145 62 hstem
          117 60 vstem
          177 184 -2 callgsubr
          -17 39 callgsubr
          29 10 vhcurveto
          endchar
        </CharString>
        <CharString name="perthousand">
          192 -4 callsubr
          35 34 116 35 hintmask 0000000000000000
          hintmask 1111110111100000
          589 84 rmoveto
          -29 -10 -30 -47 -37 hhcurveto
          -43 -1 12 56 9 25 10 29 30 46 36 1 44 1 -13 -57 -8 -24 rrcurveto
          43 31 rmoveto
          50 7 -33 17 -34 hhcurveto
          -56 -2 -60 -46 -9 -75 -5 -40 18 -34 50 2 54 1 61 61 7 66 rrcurveto
          -263 -31 -69 callgsubr
          hintmask 1111111011100000
          -73 callgsubr
        </CharString>
        <CharString name="pi">
          -46 -31 14 246 33 hstemhm
          201 24 -24 149 hintmask 11010000
          354 234 rmoveto
          4 3 13 19 -10 hhcurveto
          -19 -29 -24 -10 -18 hhcurveto
          -19 -28 6 11 -35 hvcurveto
          10 -35 -27 7 -19 hhcurveto
          -36 -35 -17 -31 -33 hvcurveto
          -2 -2 -13 -19 10 hhcurveto
          2 2 1 1 3 hvcurveto
          24 27 31 10 37 hhcurveto
          -16 -2 -15 -15 vvcurveto
          -2 -66 -15 -68 -21 -61 -2 -3 10 -3 5 6 29 56 23 78 3 62 rrcurveto
          2 14 0 14 15 vvcurveto
          35 -8 26 -6 17 -5 rrcurveto
          -6 -20 -22 -88 -70 vvcurveto
          -38 16 -23 26 34 22 29 25 19 vhcurveto
          18 22 11 19 4 13 3 16 -6 -4 -6 -10 -21 -36 -18 -21 -10 -12 rrcurveto
          -22 -19 -15 -5 -8 hhcurveto
          hintmask 11100000
          -17 -7 16 31 25 4 29 8 34 hvcurveto
          24 85 36 -3 32 10 25 24 rlinecurve
          endchar
        </CharString>
        <CharString name="plus">
          157 132 23 hstem
          380 338 rmoveto
          -10 -18 -28 -60 -30 -66 rrcurveto
          -188 hlineto
          -20 -35 -37 1 46 hvcurveto
          16 1 80 0 86 3 -76 -165 rcurveline
          -20 -43 50 16 8 19 75 173 rcurveline
          85 1 81 1 22 3 rrcurveto
          2 34 6 26 -41 hhcurveto
          -174 hlineto
          58 130 17 39 -26 4 -16 -30 rlinecurve
          endchar
        </CharString>
        <CharString name="plusminus">
          157 182 23 hstem
          436 -41 -68 callsubr
          -40 429 rmoveto
          -10 -18 -27 -60 -30 -65 rrcurveto
          -163 hlineto
          -21 -34 -40 3 46 hvcurveto
          15 1 57 1 85 2 -34 -77 -34 -73 -7 -15 -22 -42 50 15 9 20 74 173 rcurveline
          85 1 57 1 22 3 rrcurveto
          2 35 5 25 -42 hhcurveto
          -147 hlineto
          56 132 16 37 -25 5 -16 -31 rlinecurve
          endchar
        </CharString>
        <CharString name="product">
          32 -41 21 493 49 hstemhm
          301 36 -36 224 hintmask 00000000
          hintmask 11010000
          565 507 rmoveto
          5 -1 2 -4 vhcurveto
          -29 -44 -36 -15 -28 hhcurveto
          -28 -40 9 16 -53 hvcurveto
          18 -52 -42 9 -28 hhcurveto
          -55 -52 -25 -47 -48 hvcurveto
          -15 -15 -7 -28 23 15 rrcurveto
          36 41 46 15 55 hhcurveto
          -114 -33 -242 -42 -110 vhcurveto
          -8 -25 28 7 3 9 40 102 55 243 2 126 53 -11 40 -10 26 -8 rrcurveto
          -26 -75 -36 -198 -105 vvcurveto
          -70 27 -29 36 vhcurveto
          85 -1 52 98 43 60 7 9 0 28 -23 -29 -32 -43 -62 -96 -57 1 rrcurveto
          hintmask 11100000
          -21 -17 17 45 106 48 174 26 101 hvcurveto
          55 -4 46 16 38 35 rrcurveto
          10 9 5 9 9 vvcurveto
          endchar
        </CharString>
        <CharString name="q">
          -1 -345 17 307 16 289 -20 hstem
          4 43 20 49 205 16 vstem
          305 19 rmoveto
          36 111 45 128 38 30 87 70 -105 -1 -21 -24 -26 -59 rcurveline
          -4 3 -25 18 -59 -1 -29 -7 rlinecurve
          -75 -20 -215 -28 callgsubr
          -67 callgsubr
          60 106 115 71 61 hvcurveto
          -7 -20 -66 -162 -25 -71 -24 -69 -59 -134 44 -66 44 -66 101 8 14 143 3 46 -11 121 -16 73 27 -1 32 12 17 35 callsubr
          rrcurveto
          47 callgsubr
          -23 -12 -22 3 -10 19 rrcurveto
          46 239 rmoveto
          -14 -34 -60 -64 -71 -65 -67 -55 rlinecurve
          -51 callsubr
          13 12 -1 -5 10 hvcurveto
          -62 -286 rmoveto
          3 10 4 -8 -5 vvcurveto
          6 -36 9 -66 3 -43 rrcurveto
          -51 3 3 -134 -78 hhcurveto
          -16 -14 13 30 -2 hvcurveto
          -9 92 54 110 34 88 rrcurveto
          endchar
        </CharString>
        <CharString name="question">
          14 608 61 hstem
          114 40 45 68 322 52 vstem
          225 545 rmoveto
          -10 -5 -14 -7 -11 -1 -36 -5 -15 -23 -7 -16 rrcurveto
          -5 -14 -5 -21 -18 vvcurveto
          -2 -67 47 92 32 30 rrcurveto
          30 32 45 34 46 hhcurveto
          44 26 -37 -47 -102 -46 -43 -71 -61 hvcurveto
          -46 -40 -48 -41 -5 -40 -2 -16 21 1 2 12 8 37 44 33 45 32 77 53 108 82 -25 111 -24 107 -134 -13 -71 -37 rrcurveto
          -70 -518 rmoveto
          -9 -19 -30 -9 -13 -20 0 16 5 27 25 5 4 vhcurveto
          34 25 -5 -20 -16 vvcurveto
          endchar
        </CharString>
        <CharString name="questiondown">
          -49 140 25 644 61 hstem
          144 68 322 52 vstem
          326 370 rmoveto
          -16 -5 -21 33 26 vhcurveto
          5 4 27 25 4 vvcurveto
          17 -20 0 -14 -8 -18 -30 -9 vhcurveto
          -71 -518 rmoveto
          -71 -37 -134 -13 -24 107 -24 111 107 82 78 53 44 32 44 32 7 38 3 12 21 1 -2 -16 -5 -40 -48 -41 -46 -40 rrcurveto
          -71 -61 -47 -43 -102 vvcurveto
          -47 27 -37 45 45 46 34 30 31 vhcurveto
          31 30 47 92 -2 -67 rrcurveto
          -18 -3 -21 -5 -14 vhcurveto
          -7 -16 -16 -23 -36 -5 -11 -1 -14 -7 -10 -5 rrcurveto
          endchar
        </CharString>
        <CharString name="quotedbl">
          -202 292 168 hstemhm
          77 18 -14 51 63 50 hintmask 00000000
          hintmask 10110000
          22 callgsubr
          hintmask 11010000
          13 callsubr
          113 hmoveto
          16 4 22 47 -36 hhcurveto
          -45 15 -25 -32 hvcurveto
          -1 -9 0 -62 -4 -25 -3 -18 17 -5 5 19 8 40 12 27 6 27 rrcurveto
          endchar
        </CharString>
        <CharString name="quotedblbase">
          -147 -90 169 -142 -21 hstemhm
          91 19 -15 51 56 19 -14 50 hintmask 00000000
          hintmask 01101000
          247 15 rmoveto
          hintmask 10100100
          17 4 23 47 -37 hhcurveto
          -43 15 -25 -32 -2 hvcurveto
          hintmask 01101000
          -9 -1 -63 -4 -25 vhcurveto
          -2 -17 16 -5 5 19 10 40 10 27 6 26 rrcurveto
          -111 hmoveto
          hintmask 10011000
          17 4 22 47 -37 hhcurveto
          -44 15 -25 -32 -1 hvcurveto
          hintmask 01101000
          8 callsubr
        </CharString>
        <CharString name="quotedblleft">
          -292 -60 callsubr
          104 hmoveto
          4 0 10 -11 -8 vhcurveto
          -8 -5 -28 -30 -27 -32 rrcurveto
          -23 -28 -20 -31 -14 vvcurveto
          -11 10 -21 16 5 15 0 10 7 vhcurveto
          3 23 -18 -5 12 34 8 29 17 25 20 22 rrcurveto
          11 13 11 12 3 vvcurveto
          endchar
        </CharString>
        <CharString name="quotedblright">
          -154 -59 callgsubr
          105 hmoveto
          -7 callsubr
          -15 0 -10 -7 vhcurveto
          -3 -24 18 5 -12 -33 -8 -29 -18 -25 -19 -23 rrcurveto
          -12 -12 -11 -14 -1 vvcurveto
          -4 1 -10 10 8 vhcurveto
          9 5 28 30 27 32 rrcurveto
          22 28 -27 callsubr
        </CharString>
        <CharString name="quoteleft">
          -314 -60 callsubr
          endchar
        </CharString>
        <CharString name="quoteright">
          -223 -59 callgsubr
          endchar
        </CharString>
        <CharString name="quotesinglbase">
          -266 -63 -21 hstemhm
          91 19 -15 51 hintmask 00000000
          hintmask 10100000
          136 15 rmoveto
          17 4 22 47 -37 hhcurveto
          -44 15 -25 -32 -1 hvcurveto
          hintmask 11000000
          8 callsubr
        </CharString>
        <CharString name="quotesingle">
          -313 243 25 hstem
          22 callgsubr
          13 callsubr
          endchar
        </CharString>
        <CharString name="r">
          -143 -36 25 279 32 hstem
          1249 53 vstem
          46 113 rmoveto
          40 49 34 52 36 51 rrcurveto
          15 14 -2 -3 16 hvcurveto
          69 -11 -46 -44 -15 -17 -37 -38 -66 -73 18 -65 rrcurveto
          -28 7 19 -9 22 hhcurveto
          28 32 14 14 18 hvcurveto
          -85 callsubr
          -34 callsubr
          -15 28 16 45 12 32 33 65 45 52 35 40 24 34 -60 -3 -36 -2 -35 2 -34 2 39 62 rcurveline
          27 49 -21 -11 -29 -13 -30 -14 -42 -41 -9 -30 -4 -12 10 -10 15 -2 -26 -50 -31 -47 -36 -44 -15 -19 17 -5 10 13 rrcurveto
          endchar
        </CharString>
        <CharString name="racute">
          -151 -36 25 44 27 208 32 80 -20 hstem
          115 2 callsubr
          894 53 vstem
          46 113 rmoveto
          40 49 34 52 36 51 rrcurveto
          15 14 -2 -3 16 hvcurveto
          69 -11 -46 -44 -15 -17 -37 -38 -66 -73 18 -65 rrcurveto
          -28 7 19 -9 22 hhcurveto
          28 32 14 14 18 hvcurveto
          -85 callsubr
          -34 callsubr
          -15 28 16 45 12 32 33 65 45 52 35 40 24 34 -60 -3 -36 -2 -35 2 -34 2 39 62 rcurveline
          27 49 -21 -11 -29 -13 -30 -14 -42 -41 -9 -30 -4 -12 10 -10 15 -2 -26 -50 -31 -47 -36 -44 -15 -19 17 -5 10 13 rrcurveto
          395 362 rmoveto
          8 7 0 17 -14 -81 callsubr
          122 58 21 17 rrcurveto
          endchar
        </CharString>
        <CharString name="radical">
          118 174 113 hstem
          51 13 131 45 vstem
          232 -20 rmoveto
          93 167 86 165 104 161 30 46 27 40 3 21 2 14 -6 8 -21 -9 -11 -5 -9 -6 -6 -9 -8 -8 -25 -48 -29 -55 -71 -139 -70 -139 -81 -136 -33 41 -16 104 -10 50 rrcurveto
          -10 51 6 14 -37 -65 -33 -56 -46 -92 -6 -17 -4 -11 -6 -27 19 25 2 4 31 48 25 31 28 35 1 -1 13 -30 6 -17 7 -20 5 -22 12 -45 6 -50 -10 -33 rrcurveto
          -5 -8 -23 -32 32 15 20 9 8 13 10 18 rrcurveto
          endchar
        </CharString>
        <CharString name="rcaron">
          -151 -36 25 279 32 85 113 hstem
          192 207 850 53 vstem
          46 113 rmoveto
          40 49 34 52 36 51 rrcurveto
          15 14 -2 -3 16 hvcurveto
          69 -11 -46 -44 -15 -17 -37 -38 -66 -73 18 -65 rrcurveto
          -28 7 19 -9 22 hhcurveto
          28 32 14 14 18 hvcurveto
          -85 callsubr
          -34 callsubr
          -15 28 16 45 12 32 33 65 45 52 35 40 24 34 -60 -3 -36 -2 -35 2 -34 2 39 62 rcurveline
          27 49 -21 -11 -29 -13 -30 -14 -42 -41 -9 -30 -4 -12 10 -10 15 -2 -26 -50 -31 -47 -36 -44 -15 -19 17 -5 10 13 rrcurveto
          150 365 37 callgsubr
          2 74 72 17 14 12 -17 callsubr
          -33 -21 -25 -25 -32 -65 callgsubr
        </CharString>
        <CharString name="rcommaaccent">
          -151 -230 175 19 25 279 32 hstem
          -15 117 1147 53 vstem
          46 113 rmoveto
          40 49 34 52 36 51 rrcurveto
          15 14 -2 -3 16 hvcurveto
          69 -11 -46 -44 -15 -17 -37 -38 -66 -73 18 -65 rrcurveto
          -28 7 19 -9 22 hhcurveto
          28 32 14 14 18 hvcurveto
          -85 callsubr
          -34 callsubr
          -15 28 16 45 12 32 33 65 45 52 35 40 24 34 -60 -3 -36 -2 -35 2 -34 2 39 62 rcurveline
          27 49 -21 -11 -29 -13 -30 -14 -42 -41 -9 -30 -4 -12 10 -10 15 -2 -26 -50 -31 -47 -36 -44 -15 -19 17 -5 10 13 rrcurveto
          56 -200 -48 callsubr
        </CharString>
        <CharString name="registered">
          278 223 21 230 19 -19 114 hstem
          185 30 320 30 vstem
          16 260 rmoveto
          10 callgsubr
          12 callgsubr
          46 38 rmoveto
          11 callgsubr
          11 callsubr
          rrcurveto
          304 117 rmoveto
          5 12 -39 13 -7 -7 -23 -29 -120 -295 3 -42 2 -12 23 7 5 3 10 60 20 53 22 49 8 -4 rcurveline
          7 -3 18 4 6 1 21 -31 123 -147 39 5 11 1 9 7 -10 9 -55 49 -58 46 -34 68 82 17 123 45 8 101 4 48 -38 31 -64 14 -71 16 -92 -22 -30 -8 rrcurveto
          -43 -11 30 -31 8 2 22 6 111 47 68 -17 100 -23 -25 -90 -84 -57 -61 -41 -76 -14 -49 -1 27 56 33 54 31 61 rrcurveto
          endchar
        </CharString>
        <CharString name="ring">
          -104 668 14 38 15 hstem
          164 26 64 20 vstem
          225 522 rmoveto
          -18 -6 -24 -5 callsubr
          -28 11 -28 -22 -25 -6 -9 -12 vhcurveto
          -23 -15 -13 -22 -2 -14 -4 -26 14 -18 21 -8 22 -9 33 1 24 15 rrcurveto
          25 18 18 25 26 vvcurveto
          endchar
        </CharString>
        <CharString name="s">
          -162 349 31 hstem
          72 29 101 43 104 21 vstem
          -104 callsubr
          endchar
        </CharString>
        <CharString name="s_t">
          53 349 31 hstem
          72 29 101 43 97 32 -25 21 vstem
          579 287 rmoveto
          -38 1 -25 -5 -31 -3 -13 -1 rcurveline
          48 84 6 12 10 -1 5 10 rlinecurve
          6 9 12 20 -9 12 rrcurveto
          8 -6 -18 2 -14 hhcurveto
          -7 37 -29 13 -45 -16 -72 -26 -28 -86 -12 -53 rrcurveto
          8 -12 -17 5 -18 hhcurveto
          -65 -133 -54 -74 -24 23 -25 22 -12 hvcurveto
          17 -11 49 -19 -25 vvcurveto
          -68 -110 -30 -38 29 vhcurveto
          -7 6 -6 -13 3 -9 18 -33 111 29 24 9 49 20 36 35 -39 37 -20 20 -35 14 -31 18 -68 41 88 61 40 20 21 10 49 20 27 -2 24 -3 -10 -30 -15 -15 rrcurveto
          -11 -10 11 -6 5 4 11 7 10 10 5 11 7 13 1 11 -4 9 10 45 25 84 69 30 35 17 22 -9 5 -27 -6 -8 -7 -13 -15 -27 -50 -93 rcurveline
          -2 -1 0 -2 -1 hvcurveto
          -19 -1 -26 0 -8 -17 rrcurveto
          -13 -6 10 -9 10 hhcurveto
          5 8 0 2 10 hvcurveto
          -9 -18 -30 -66 -10 -25 -20 -46 -18 -54 8 -23 -50 callsubr
          24 -85 callsubr
          19 callgsubr
          rrcurveto
          20 callsubr
          3 9 12 17 13 24 -9 callsubr
          rrcurveto
          -8 callgsubr
          endchar
        </CharString>
        <CharString name="sacute">
          -173 32 27 290 31 -1 -20 hstem
          72 29 0 36 65 43 61 35 8 21 vstem
          -104 callsubr
          350 462 -70 callgsubr
        </CharString>
        <CharString name="scaron">
          -173 349 31 13 112 hstem
          72 29 101 43 -18 207 -85 21 vstem
          -104 callsubr
          154 473 rmoveto
          19 -27 42 -58 20 -7 19 1 74 73 17 13 12 -17 callsubr
          -33 -21 -25 -25 -32 -20 -11 13 -60 47 -58 callgsubr
        </CharString>
        <CharString name="scedilla">
          -173 -232 144 437 31 hstemhm
          -6 96 -18 29 101 43 104 21 hintmask 11011100
          -104 callsubr
          hintmask 11101100
          13 -127 rmoveto
          9 -8 18 -13 -4 -16 2 -10 -3 vhcurveto
          -6 -20 19 4 -10 -28 -7 -23 -15 -20 -15 -19 rrcurveto
          -10 -11 -8 -10 -2 vvcurveto
          -2 0 -9 8 6 vhcurveto
          7 4 23 24 22 27 rrcurveto
          18 23 18 26 11 vvcurveto
          endchar
        </CharString>
        <CharString name="scircumflex">
          -173 349 31 12 112 hstem
          72 29 101 43 -24 205 -77 21 vstem
          -104 callsubr
          345 400 -22 callsubr
          -73 -73 -18 -13 -47 callgsubr
        </CharString>
        <CharString name="scommaaccent">
          -173 -278 175 452 31 hstem
          -70 117 25 29 101 43 104 21 vstem
          -104 callsubr
          -30 -148 rmoveto
          11 -10 22 -16 -5 -19 2 -12 -3 vhcurveto
          -8 -24 23 5 -12 -34 -8 -30 -18 -24 -19 -22 rrcurveto
          -12 -14 -10 -12 -2 vvcurveto
          -3 0 -10 11 7 vhcurveto
          8 5 28 29 27 34 rrcurveto
          22 27 -27 callsubr
        </CharString>
        <CharString name="section">
          74 -203 33 683 40 hstem
          -25 22 83 45 39 45 177 46 39 44 41 23 vstem
          212 297 rmoveto
          44 -27 64 -6 45 -12 127 -38 0 -71 -57 -56 -6 -7 -17 -12 -12 -10 -31 29 -50 16 -49 12 rrcurveto
          -59 17 -86 12 58 vvcurveto
          37 40 38 47 20 vhcurveto
          202 -253 rmoveto
          47 29 54 61 54 vvcurveto
          76 -84 30 -77 21 vhcurveto
          -59 15 -86 13 57 vvcurveto
          58 91 35 71 12 vhcurveto
          31 7 155 20 -1 -60 rrcurveto
          -14 11 -13 8 18 vhcurveto
          2 9 2 7 9 vvcurveto
          1 80 -168 -11 -46 -12 -70 -17 -131 -56 -1 -89 -2 -35 14 -24 20 -16 -59 -29 -56 -37 -1 -58 -1 -107 128 -2 75 -22 rrcurveto
          74 -21 30 -30 -30 vvcurveto
          -48 -65 -50 -75 -25 vhcurveto
          -55 -17 -235 -37 46 123 5 14 -10 7 -6 -12 rrcurveto
          -10 -18 -6 -20 -22 vvcurveto
          -107 222 40 59 22 vhcurveto
          89 32 87 64 71 vvcurveto
          21 -7 18 -11 16 vhcurveto
          endchar
        </CharString>
        <CharString name="semicolon">
          -292 -120 25 hstem
          -49 callgsubr
          55 175 -3 callsubr
        </CharString>
        <CharString name="seven">
          -41 657 55 hstem
          132 40 vstem
          529 469 rmoveto
          0 0 1 1 vhcurveto
          22 10 20 22 -2 20 -3 30 -41 -27 -12 -21 -24 5 -178 14 -26 1 -99 3 -57 -19 -21 -113 -2 -10 14 -10 5 22 11 43 37 39 86 3 75 1 80 -4 66 -11 rrcurveto
          -74 -75 -290 -345 -18 -54 -2 -14 48 8 7 6 104 178 130 140 143 157 rrcurveto
          endchar
        </CharString>
        <CharString name="six">
          58 -423 57 355 73 hstem
          62 42 426 64 vstem
          394 169 rmoveto
          -79 -10 -58 -95 -91 hhcurveto
          -151 32 180 103 46 hvcurveto
          50 112 88 93 71 16 41 10 89 -7 -15 -107 -1 -7 20 -3 2 13 20 125 -97 16 -58 -12 -86 -19 -124 -99 -61 -122 rrcurveto
          -138 -69 3 -180 180 hhcurveto
          109 108 95 110 14 hvcurveto
          11 93 -70 35 -66 -2 rrcurveto
          -41 -46 -21 -24 -20 hvcurveto
          -17 -17 18 -4 9 8 22 18 26 19 32 1 46 2 55 -29 -11 -84 rrcurveto
          endchar
        </CharString>
        <CharString name="slash">
          9 -25 564 hstem
          20 434 vstem
          450 527 rmoveto
          14 16 -38 1 -15 -14 -45 -43 -326 -444 -20 -56 -6 -19 33 7 12 20 105 184 218 274 68 74 rrcurveto
          endchar
        </CharString>
        <CharString name="space">
          -239 endchar
        </CharString>
        <CharString name="sterling">
          91 -27 42 209 36 callgsubr
          462 27 hintmask 10010111
          306 275 rmoveto
          hintmask 10001111
          -34 -35 -3 -4 -35 hvcurveto
          53 105 72 122 53 37 50 33 79 12 3 -83 rrcurveto
          -14 -2 -15 -8 -13 vhcurveto
          10 callsubr
          -66 -27 -44 -48 -58 -66 -52 -99 -41 -96 rrcurveto
          hintmask 11000111
          -1 -10 -11 -2 -10 hhcurveto
          -1 -9 -4 18 -16 hhcurveto
          hintmask 10001111
          -15 -45 -12 -17 hvcurveto
          hintmask 11000111
          -14 15 -10 13 vhcurveto
          hintmask 10100111
          11 31 4 5 38 hvcurveto
          -24 -59 -21 -55 -17 -44 rrcurveto
          -2 -1 -1 -2 hhcurveto
          -32 -11 -28 -34 -1 -37 rrcurveto
          -13 11 3 14 8 vhcurveto
          3 3 2 2 3 hvcurveto
          2 -2 13 7 12 18 24 22 rcurveline
          21 -9 174 -45 26 -5 57 -11 56 -2 49 36 -85 callsubr
          -56 callgsubr
          -24 -33 -33 -37 -33 -26 -49 -38 -57 -2 -58 7 -63 9 -84 21 -53 18 rrcurveto
          -12 3 -11 4 -13 3 24 51 29 59 25 51 rrcurveto
          hintmask 10010111
          52 7 51 9 14 4 rrcurveto
          14 44 -28 3 -16 hhcurveto
          endchar
        </CharString>
        <CharString name="summation">
          101 470 43 hstem
          312 242 rmoveto
          39 18 3 7 -9 12 rrcurveto
          0 -169 159 -17 16 vhcurveto
          67 13 93 5 77 -2 41 -1 20 1 22 -15 22 -15 -9 -25 -7 -18 -9 -20 23 6 2 9 10 26 31 32 -43 39 -29 26 -41 -1 -59 -1 -26 -1 -178 -14 -24 -5 rrcurveto
          -12 21 -60 4 -4 -30 -1 -21 21 -23 25 -9 rrcurveto
          10 -11 165 -167 0 vvcurveto
          0 -104 -97 -100 -93 vhcurveto
          -42 1 -44 -39 -1 -49 rrcurveto
          -12 11 2 14 9 vhcurveto
          6 1 9 5 10 10 rrcurveto
          2 vlineto
          15 11 14 12 6 8 21 -9 174 -45 26 -5 56 -11 57 -3 48 37 69 50 -27 31 -12 -16 -27 -40 -46 -12 -58 8 -71 9 -133 21 -50 19 rrcurveto
          27 28 178 152 0 vvcurveto
          endchar
        </CharString>
        <CharString name="t">
          57 32 vstem
          294 287 -100 callgsubr
          endchar
        </CharString>
        <CharString name="tbar">
          179 33 hstemhm
          41 175 -159 32 hintmask 11000000
          176 187 rmoveto
          5 1 35 1 11 vvcurveto
          5 -1 -16 7 -24 hhcurveto
          -28 hlineto
          25 41 -9 callsubr
          rlinecurve
          -8 callgsubr
          -38 1 -25 -5 -31 -3 -13 -1 rcurveline
          48 84 6 12 10 -1 5 10 rlinecurve
          6 9 12 20 -9 12 -6 9 -19 3 -15 -2 -14 -2 -2 -10 -25 -43 -50 -93 rcurveline
          -2 -1 0 -2 -1 hvcurveto
          -19 -1 -26 0 -8 -17 rrcurveto
          -13 -6 10 -9 10 hhcurveto
          5 8 0 2 10 hvcurveto
          -9 -18 -8 -12 -2 -7 rrcurveto
          -31 hlineto
          hintmask 10100000
          -14 -26 -33 2 33 hvcurveto
          18 hlineto
          -60 -77 -9 -53 callgsubr
          rlinecurve
          -83 callsubr
          -50 callsubr
          24 -85 callsubr
          19 callgsubr
          rrcurveto
          2 29 21 45 25 51 rrcurveto
          endchar
        </CharString>
</ttFont>
